<?xml version="1.0" encoding="utf-8"?>
<!-- Generator: Adobe Illustrator 23.0.2, SVG Export Plug-In . SVG Version: 6.00 Build 0)  -->
<svg version="1.1" xmlns="http://www.w3.org/2000/svg" xmlns:xlink="http://www.w3.org/1999/xlink" x="0px" y="0px"
	 viewBox="0 0 749.6 226" style="enable-background:new 0 0 749.6 226;" xml:space="preserve">
<style type="text/css">
	.st0{opacity:0.15;fill:#FEF2EE;enable-background:new    ;}
	.st1{opacity:0.1;fill:#FEF2EE;enable-background:new    ;}
	.st2{fill:#FEF2EE;}
	.st3{fill:#EBF1F8;}
	.st4{fill:#FFFFFF;}
</style>
<g id="Laag_2">
	<g id="Laag_3">
		<circle class="st0" cx="353.8" cy="173" r="173"/>
	</g>
	<g>
		<circle class="st1" cx="353.8" cy="171.2" r="145.4"/>
		<circle class="st1" cx="353.8" cy="171.2" r="112.3"/>
		<circle class="st1" cx="353.8" cy="171.2" r="79.8"/>
		<circle class="st2" cx="353.8" cy="173" r="40.5"/>
	</g>
</g>
<g id="Laag_1">
	<g>
		<path class="st3" d="M749.6,224.6V83.9c-11.6-6.4-24.9-10.1-39.1-10.1c-35.2,0-65,22.5-76,54c-2.8-0.4-5.6-0.6-8.4-0.6
			c-12.7,0-24.6,3.8-34.6,10.2c-4.3-31-30.9-54.8-63.1-54.8c-28,0-51.8,18.1-60.3,43.2c-5.8-2.4-12.1-3.7-18.7-3.7
			c-23.1,0-42.4,16-47.6,37.4c-2.7-0.5-5.5-0.7-8.3-0.7c-15.7,0-29.6,7.4-38.6,18.8c-6.7-8.5-17.1-14-28.7-14
			c-3.5,0-6.9,0.5-10.1,1.4c-7.8-16.7-24.8-28.3-44.4-28.3c-27.1,0-49,21.9-49,49c0,16.7,8.3,31.4,21,40.2h56
			c0.1-0.1,0.2-0.2,0.4-0.2c0.1,0.1,0.2,0.2,0.3,0.2h138.8c0.8-2.1,1.6-4.3,2.1-6.6c2.7,0.5,5.5,0.7,8.3,0.7
			c17.3,0,32.5-9,41.2-22.5c10.6,7.8,23.6,12.4,37.7,12.4c12.7,0,24.6-3.8,34.6-10.2c1.3,9.6,4.8,18.5,9.9,26.2h174.1
			C747.9,225.5,748.7,225.1,749.6,224.6z"/>
		<path class="st4" d="M750,55c-19.8,6.7-34.6,24.2-37.3,45.5c-40.1,7-70.6,42-70.6,84.1c0,2.8,0.1,5.5,0.4,8.2
			c-2.5-0.3-5-0.5-7.6-0.5c-16.6,0-31.5,7.3-41.7,18.8c-11.7-33.1-43.3-56.9-80.5-56.9c-26,0-49.3,11.7-65,30
			c-1.3-0.1-2.6-0.1-3.9-0.1c-15.5,0-29.5,6.3-39.5,16.5c-8.5-5.3-18.6-8.4-29.3-8.4c-10.8,0-20.8,3.1-29.3,8.4
			c-10.1-10.2-24.1-16.5-39.5-16.5c-1.3,0-2.6,0.1-3.9,0.1c-15.7-18.4-39-30-65-30c-37.2,0-68.8,23.7-80.5,56.9
			c-10.2-11.6-25.1-18.8-41.7-18.8c-2.6,0-5.1,0.2-7.6,0.5c0.3-2.7,0.4-5.4,0.4-8.2c0-42.1-30.5-77.1-70.6-84.1
			C34.6,79.2,19.8,61.7,0,55v171h750V55z"/>
	</g>
</g>
</svg>
