<svg id="Laag_1" data-name="Laag 1" xmlns="http://www.w3.org/2000/svg" viewBox="0 0 739.21 633.4">
  <defs>
    <style>
      .cls-1 {
        fill: none;
      }

      .cls-2 {
        fill: #f1c411;
      }

      .cls-3 {
        fill: #ecf0f1;
      }

      .cls-4 {
        fill: #fff;
      }

      .cls-5 {
        fill: #bec4c8;
      }

      .cls-6 {
        fill: #e84c3d;
      }

      .cls-7 {
        fill: #c03a2b;
      }

      .cls-8 {
        fill: #c38210;
      }

      .cls-9 {
        fill: #2d3e50;
      }

      .cls-10 {
        fill: #3b97d3;
      }

      .cls-11 {
        fill: #2b81ba;
      }
    </style>
  </defs>
  <title>hero2024</title>
  <g>
    <path class="cls-1" d="M632.74,458.3a27,27,0,0,0,7.07-2.21,15.61,15.61,0,0,0,5.75-4.55,18.49,18.49,0,0,0,3.33-7.29,26.22,26.22,0,0,0,.05-10.23q-0.71-4.29-1.72-8.31t-2.51-9.58q-1.5-5.56-3.68-13.8c-0.48-1.82-1-3.84-1.55-6-0.88,4.94-1.92,9.81-3.18,14.61q-2.62,10-6,20.56A9.44,9.44,0,0,1,631,434c0,0.19,0,.39.07,0.58a10.61,10.61,0,0,1,2.66,1.8A7.9,7.9,0,0,1,636,441a12.29,12.29,0,0,1-1.46,8,8.8,8.8,0,0,1-6.66,4.7,11.08,11.08,0,0,1-3.6,0,4.48,4.48,0,0,1-3-1.94,30.3,30.3,0,0,0,1.31,5.23Q626.36,459.35,632.74,458.3Z" transform="translate(-12.83 -63.94)"/>
    <path class="cls-1" d="M513.81,248.83q-4.3.71-7.68,5.55a50.34,50.34,0,0,0-5.92,12,102.83,102.83,0,0,0-4.14,15.71c-0.5,2.67-.91,5.3-1.25,7.91a30.1,30.1,0,0,0,6.13-3.6,38.79,38.79,0,0,0,9.18-9.84A40.12,40.12,0,0,0,515.49,264a34.49,34.49,0,0,0,.5-13.84c-0.08-.46-0.16-0.9-0.26-1.32A6.12,6.12,0,0,0,513.81,248.83Z" transform="translate(-12.83 -63.94)"/>
    <path class="cls-1" d="M116.23,316.81l2.4-51.31a81.28,81.28,0,0,0-11.82,18.17A236.94,236.94,0,0,0,94.5,313.79q3.69,0.24,7.4.63A116.77,116.77,0,0,1,116.23,316.81Z" transform="translate(-12.83 -63.94)"/>
    <path class="cls-1" d="M578.15,387.33q-4.3.71-7.7,5.44a48.37,48.37,0,0,0-6,11.73,90.65,90.65,0,0,0-4,15.58q-0.71,4.11-1.18,8.23a32.63,32.63,0,0,0,6.22-3.71,38.79,38.79,0,0,0,9.18-9.84,38.27,38.27,0,0,0,5.24-12.54,35.27,35.27,0,0,0,.42-13.6c-0.08-.46-0.16-0.9-0.26-1.32A6.12,6.12,0,0,0,578.15,387.33Z" transform="translate(-12.83 -63.94)"/>
    <path class="cls-2" d="M161.65,210.1l7.67-1.21C212.73,134,293.8,83.44,386.46,83.44A250.16,250.16,0,0,1,574,167.95c-46-55.52-115.43-91-192.63-91-88.93,0-172,48-216.7,125.2l-0.12.21-16.46,2.6,0-.07L148,205l6.07,6.25Z" transform="translate(-12.83 -63.94)"/>
    <polygon class="cls-2" points="140.69 366.71 140.69 366.71 140.69 366.71 140.69 366.71"/>
    <path class="cls-2" d="M173.14,465.83a250.48,250.48,0,0,1-14.81-27.63l-4.77-7.49,0.13,0.28A249.85,249.85,0,0,0,173.14,465.83Z" transform="translate(-12.83 -63.94)"/>
    <path class="cls-2" d="M573.35,507.26c-2.2,2.35-4.06,4.27-5.85,6.06a263.24,263.24,0,0,1-372.28,0q-7.9-7.9-15-16.36a267,267,0,0,0,20.5,23,262.74,262.74,0,0,0,371.57,0c2-2,3.93-4,5.84-6.05l-3.74-7.72Z" transform="translate(-12.83 -63.94)"/>
    <polygon class="cls-2" points="561.51 442.25 561.51 442.26 561.52 442.25 561.51 442.25"/>
    <path class="cls-2" d="M604.8,187.9a261.7,261.7,0,0,1,39.75,134.9v0.43l-5.19.82-2.38.38-5.41.85h0l5.6,6.42,6-.94,6-.94A260.76,260.76,0,0,0,604.8,187.9Z" transform="translate(-12.83 -63.94)"/>
    <path class="cls-2" d="M47.12,437.31l0.14,0.2-0.13-.2h0Z" transform="translate(-12.83 -63.94)"/>
    <path class="cls-2" d="M142.85,233.52v0H143Z" transform="translate(-12.83 -63.94)"/>
    <path class="cls-2" d="M118.63,265.49l0.57-12.21q-9.28,7.09-17.39,23.38a246.69,246.69,0,0,0-14.48,36.79q3.57,0.1,7.16.34a236.94,236.94,0,0,1,12.31-30.12A81.28,81.28,0,0,1,118.63,265.49Z" transform="translate(-12.83 -63.94)"/>
    <path class="cls-2" d="M44,334.12q-6.36,3.7-7.65,9.91,0.9-.15,2.29,1.93a11.42,11.42,0,0,1,1.8,4.54,7.34,7.34,0,0,1-2.67,7,16.63,16.63,0,0,1-8.54,3.83,16.3,16.3,0,0,1-8.08-.54l-0.32,3.47a10.21,10.21,0,0,0,2.9,2.45,15.56,15.56,0,0,0,10.49,1.63,16.63,16.63,0,0,0,8.54-3.83,7.34,7.34,0,0,0,2.67-7,11.42,11.42,0,0,0-1.8-4.54q-1.39-2.07-2.29-1.93,1.29-6.21,7.65-9.91a47.89,47.89,0,0,1,8.52-3.77c1.07-3.12,2.18-6.25,3.35-9.36Q50.4,330.42,44,334.12Z" transform="translate(-12.83 -63.94)"/>
    <path class="cls-2" d="M157.58,241.6h0v-0.07h-0.06l-4.94-7-8,172.33L112,412.24l5,7,32.57-5.39Z" transform="translate(-12.83 -63.94)"/>
    <path class="cls-2" d="M99.22,324.21a95.06,95.06,0,0,0-15-.07Q80.17,339,77.15,354.46t-4.62,29.69q-1.6,14.21-1.9,26.45a113.12,113.12,0,0,0,1.12,20.84q1.08,6.56,2.55,9.1a19.06,19.06,0,0,0,2.86,3.94q-4.53.75-9.91,1.17A27.32,27.32,0,0,1,57,444.58a19.24,19.24,0,0,1-8.75-5.87q-0.47-.53-0.91-1.13l4.78,6.67,0.38,0.53,0.2,0.27h0c0.17,0.22.34,0.45,0.52,0.66A19.24,19.24,0,0,0,62,451.58a27.32,27.32,0,0,0,10.29,1.09q5.39-.43,9.91-1.17a19.06,19.06,0,0,1-2.86-3.94q-1.47-2.55-2.55-9.1a113.12,113.12,0,0,1-1.12-20.84q0.29-12.25,1.9-26.45t4.62-29.69q3-15.49,7.07-30.33a95.06,95.06,0,0,1,15,.07A89.79,89.79,0,0,1,115.61,333l0.26-5.74A100,100,0,0,0,99.22,324.21Z" transform="translate(-12.83 -63.94)"/>
    <path class="cls-2" d="M198.26,294.35a59.33,59.33,0,0,0-8.73,2q-3.53,1.17-3.11,3.65a0.53,0.53,0,0,0,.43.51,5.21,5.21,0,0,1,1,.3,2.38,2.38,0,0,1,1.09,1,8.17,8.17,0,0,1,.81,2.77q1,6.33-2.33,9.8a14,14,0,0,1-7.9,4.21,11.68,11.68,0,0,1-7.54-1.31,7.87,7.87,0,0,1-2.49-2.05h0l4.84,6.8h0a7.86,7.86,0,0,0,2.63,2.25,11.68,11.68,0,0,0,7.54,1.31,14,14,0,0,0,7.9-4.21q3.38-3.46,2.33-9.8a8.17,8.17,0,0,0-.81-2.77,2.38,2.38,0,0,0-1.09-1,5.21,5.21,0,0,0-1-.3,0.53,0.53,0,0,1-.43-0.51q-0.41-2.49,3.11-3.65a59.33,59.33,0,0,1,8.73-2l4.57-.76,3.1-8.34Z" transform="translate(-12.83 -63.94)"/>
    <path class="cls-2" d="M253,372.43a25.15,25.15,0,0,1-4.12,8.81,28.38,28.38,0,0,1-19,11.51l-59.93,9.91,5,7,59.93-9.91a28.38,28.38,0,0,0,19-11.51,25.15,25.15,0,0,0,4.12-8.81,21.3,21.3,0,0,0,.46-8.44,13.45,13.45,0,0,0-2.1-5.46h0l-0.19-.27-0.08-.11-4.83-6.75a13.38,13.38,0,0,1,2.19,5.59A21.3,21.3,0,0,1,253,372.43Z" transform="translate(-12.83 -63.94)"/>
    <path class="cls-2" d="M216.27,377.91L253,280.57l-5-7L208.44,378.4Q211.38,378.15,216.27,377.91Z" transform="translate(-12.83 -63.94)"/>
    <path class="cls-2" d="M251,358l0,0,0.12,0.15Z" transform="translate(-12.83 -63.94)"/>
    <path class="cls-2" d="M248.83,355.9h0l0,0Z" transform="translate(-12.83 -63.94)"/>
    <path class="cls-2" d="M413.79,281.87a69,69,0,0,1,7.28-7.94,15,15,0,0,1,7.73-3.83,4.53,4.53,0,0,1,.74-0.06c-0.09-.18-0.19-0.35-0.27-0.53q-1.11-2.49-2-4.66a2.85,2.85,0,0,0-3.43-1.76,15,15,0,0,0-7.73,3.83,69,69,0,0,0-7.28,7.94l-3.88,88.93-32.57,5.39,0.59-13.06a46.8,46.8,0,0,1-6.4,8.1A35.12,35.12,0,0,1,355.38,372a47.62,47.62,0,0,1-10.18,3.08q-9.73,1.61-16.39-2.87a18.65,18.65,0,0,1-2.3-1.87,21.61,21.61,0,0,0,7.3,8.87q6.66,4.47,16.39,2.87A47.62,47.62,0,0,0,360.38,379a35.12,35.12,0,0,0,11.15-7.77c0.44-.44.88-0.9,1.31-1.37l4.5,6.34,29.82-4.93a50.49,50.49,0,0,1,3-6.89Z" transform="translate(-12.83 -63.94)"/>
    <path class="cls-2" d="M292.77,351.68a13.76,13.76,0,0,0,2.55,6.32,4.84,4.84,0,0,0,2.68,1.76c-0.08-.36-0.17-0.7-0.23-1.08a32.87,32.87,0,0,1-.37-6.44L301,272.64l-5-7-3.57,79.59A32.87,32.87,0,0,0,292.77,351.68Z" transform="translate(-12.83 -63.94)"/>
    <path class="cls-2" d="M348.56,343.38q0.79,4.75,3.35,6.18a6.66,6.66,0,0,0,1.63.63,32.19,32.19,0,0,1-.27-7.2l3.57-79.59-5-7L348.27,336A32,32,0,0,0,348.56,343.38Z" transform="translate(-12.83 -63.94)"/>
    <path class="cls-2" d="M452.79,262a16.49,16.49,0,0,1-2.17,5.82,15.58,15.58,0,0,1-4.45,4.69,16.43,16.43,0,0,1-6.88,2.65,9.28,9.28,0,0,1-5.81-.48l0.81,1.82a14.05,14.05,0,0,0,3.18,4.47q2.07,2,6.82,1.2a16.43,16.43,0,0,0,6.88-2.65,15.58,15.58,0,0,0,4.45-4.69,16.49,16.49,0,0,0,2.17-5.82,18.12,18.12,0,0,0,0-6.05,19.21,19.21,0,0,0-5.9-11.1c-0.11-.1-0.23-0.19-0.34-0.29a20.07,20.07,0,0,1,1.25,4.39A18.12,18.12,0,0,1,452.79,262Z" transform="translate(-12.83 -63.94)"/>
    <path class="cls-2" d="M415.14,254.5l0-.74-5-7-0.81,14.77Q412.15,257.8,415.14,254.5Z" transform="translate(-12.83 -63.94)"/>
    <path class="cls-2" d="M312.41,369.92a40.25,40.25,0,0,1-7.64,7.89,31,31,0,0,1-7.86,4.44,41.11,41.11,0,0,1-7.56,2.06,24.78,24.78,0,0,1-18.25-3.6,17.79,17.79,0,0,1-2.28-1.79,20.66,20.66,0,0,0,7.28,8.79,24.78,24.78,0,0,0,18.25,3.6,41.11,41.11,0,0,0,7.56-2.06,31,31,0,0,0,7.86-4.44,40.25,40.25,0,0,0,7.64-7.89,52.11,52.11,0,0,0,5.9-10.39,32.15,32.15,0,0,1-4-9.25A55.73,55.73,0,0,1,312.41,369.92Z" transform="translate(-12.83 -63.94)"/>
    <path class="cls-2" d="M437.43,354.91a23.37,23.37,0,0,0-8.17,8.9,38.3,38.3,0,0,0-4,14.6q-0.86,8.86,1.27,21.75a68.28,68.28,0,0,0,1.57,7.41,43.77,43.77,0,0,0,1.6,4.73,14.32,14.32,0,0,0,1.52,2.88l1.35,1.87q-12.12,2-18.87-2a14.75,14.75,0,0,1-5.21-5.52v0.19l5.93,8.3h0a13.91,13.91,0,0,0,4.26,4q6.75,4,18.87,2l-1.35-1.87a14.32,14.32,0,0,1-1.52-2.88,43.77,43.77,0,0,1-1.6-4.73,68.28,68.28,0,0,1-1.57-7.41q-2.13-12.89-1.27-21.75a38.3,38.3,0,0,1,4-14.6,23.37,23.37,0,0,1,8.17-8.9,32.7,32.7,0,0,1,5.71-2.83l0.41-8.57A33.44,33.44,0,0,0,437.43,354.91Z" transform="translate(-12.83 -63.94)"/>
    <path class="cls-2" d="M528.05,289.58a49.11,49.11,0,0,0,9.09-16.37,39,39,0,0,0,1.31-18.69,32.15,32.15,0,0,0-2.36-8,16,16,0,0,0-1.18-2.13L534,250.12H533.8a38.57,38.57,0,0,1-1.65,16.08,49.11,49.11,0,0,1-9.09,16.38,58.83,58.83,0,0,1-14.91,12.69,64.5,64.5,0,0,1-18.75,7.63q0.08,1.85.24,3.56c0.11,1.14.27,2.32,0.47,3.52a40,40,0,0,0,1.67,6.58,18.07,18.07,0,0,0,3.13,5.64,12.06,12.06,0,0,0,2.14,2c-0.09-.22-0.18-0.44-0.26-0.66a40,40,0,0,1-1.67-6.58c-0.2-1.21-.36-2.38-0.47-3.52s-0.19-2.33-.24-3.56a64.5,64.5,0,0,0,18.75-7.63A58.83,58.83,0,0,0,528.05,289.58Z" transform="translate(-12.83 -63.94)"/>
    <path class="cls-2" d="M496.07,282.05a102.83,102.83,0,0,1,4.14-15.71,50.34,50.34,0,0,1,5.92-12q3.38-4.83,7.68-5.55a6.12,6.12,0,0,1,1.92,0,13.92,13.92,0,0,0-2.1-5.22,4.57,4.57,0,0,0-4.82-1.75q-4.3.71-7.68,5.55a50.34,50.34,0,0,0-5.92,12,102.83,102.83,0,0,0-4.14,15.71A137.54,137.54,0,0,0,489,291.81a28.71,28.71,0,0,0,5.86-1.85C495.16,287.36,495.57,284.72,496.07,282.05Z" transform="translate(-12.83 -63.94)"/>
    <polygon class="cls-2" points="464.96 349.59 460.71 437.65 428.18 443.03 433.18 450.03 465.71 444.65 469.96 356.59 502.99 351.13 503.83 333.79 498.83 326.79 497.99 344.13 464.96 349.59"/>
    <path class="cls-2" d="M521.58,338.7A32.87,32.87,0,0,1,510.94,346a54.76,54.76,0,0,1-12.86,3.75,44.93,44.93,0,0,1-16.11,0,8.54,8.54,0,0,1-1.24,0l-2.09,46.35,5.36-.89,1.74-38.47a8.54,8.54,0,0,0,1.24,0,44.93,44.93,0,0,0,16.11,0A54.76,54.76,0,0,0,515.94,353a32.87,32.87,0,0,0,10.64-7.34,33.75,33.75,0,0,0,7.23-11.77,51.51,51.51,0,0,0,2.87-17.09l-2.51-3.29-2.49-3.71a51.51,51.51,0,0,1-2.87,17.09A33.75,33.75,0,0,1,521.58,338.7Z" transform="translate(-12.83 -63.94)"/>
    <path class="cls-2" d="M607,457.89a83.82,83.82,0,0,1-8.72,11,70,70,0,0,1-15.39,12.3,57,57,0,0,1-20,7q-16.16,2.67-27.22-4.1a23.29,23.29,0,0,1-4.43-3.54,26.05,26.05,0,0,0,9.43,10.54q11.06,6.77,27.22,4.1a57,57,0,0,0,20-7,70,70,0,0,0,15.39-12.3,83.78,83.78,0,0,0,8.29-10.39,25.35,25.35,0,0,1-2.77-3.93A32.67,32.67,0,0,1,607,457.89Z" transform="translate(-12.83 -63.94)"/>
    <path class="cls-2" d="M560.44,420.08a90.65,90.65,0,0,1,4-15.58,48.37,48.37,0,0,1,6-11.73q3.4-4.72,7.7-5.44a6.12,6.12,0,0,1,1.92,0,13.93,13.93,0,0,0-2.1-5.22,4.57,4.57,0,0,0-4.82-1.75q-4.3.71-7.7,5.44a48.37,48.37,0,0,0-6,11.73,90.65,90.65,0,0,0-4,15.58,141.33,141.33,0,0,0-1.92,17.19,31.19,31.19,0,0,0,5.74-2Q559.74,424.19,560.44,420.08Z" transform="translate(-12.83 -63.94)"/>
    <path class="cls-2" d="M736.62,455.64a16.56,16.56,0,0,1-5.83,4.1,29.49,29.49,0,0,1-6,1.69q-12,2-18.52-4.49l-0.11-.12a26.9,26.9,0,0,0,5.11,7.12q6.53,6.48,18.52,4.49a29.49,29.49,0,0,0,6-1.69,16.56,16.56,0,0,0,5.83-4.1,27.69,27.69,0,0,0,5-7.79,52.1,52.1,0,0,0,3.5-12.55l-5-7a52.1,52.1,0,0,1-3.5,12.55A27.69,27.69,0,0,1,736.62,455.64Z" transform="translate(-12.83 -63.94)"/>
    <path class="cls-2" d="M639.48,396.32c-1.1-4.37-2.33-9.42-3.7-15.2a190.38,190.38,0,0,1-4.47,22.81q-2.92,11.17-6.77,23a10.82,10.82,0,0,1,4.24,2.44,7,7,0,0,1,1.53,2.17q3.37-10.53,6-20.56C637.55,406.13,638.6,401.26,639.48,396.32Z" transform="translate(-12.83 -63.94)"/>
    <path class="cls-2" d="M697.36,434.21q-3,3.88-6.19,7.22a159,159,0,0,1-15,14.09,35.25,35.25,0,0,1-6.87,7.64,55.41,55.41,0,0,1-8.35,5.68,49.37,49.37,0,0,1-9.11,3.95,64.92,64.92,0,0,1-8.93,2.17,38.84,38.84,0,0,1-15.24-.15,31.93,31.93,0,0,1-11.39-5A27.29,27.29,0,0,1,613,467c0.26,0.51.52,1,.81,1.54a25.87,25.87,0,0,0,7.53,8.28,31.93,31.93,0,0,0,11.39,5,38.84,38.84,0,0,0,15.24.15,64.92,64.92,0,0,0,8.93-2.17,49.37,49.37,0,0,0,9.11-3.95,55.41,55.41,0,0,0,8.35-5.68,35.25,35.25,0,0,0,6.87-7.64,159,159,0,0,0,15-14.09q1.55-1.64,3.07-3.41a39.68,39.68,0,0,1-1.28-5.41A53.39,53.39,0,0,1,697.36,434.21Z" transform="translate(-12.83 -63.94)"/>
    <path class="cls-2" d="M624.32,453.7a11.08,11.08,0,0,0,3.6,0,8.8,8.8,0,0,0,6.66-4.7,12.29,12.29,0,0,0,1.46-8,7.9,7.9,0,0,0-2.27-4.62,10.61,10.61,0,0,0-2.66-1.8,12.36,12.36,0,0,1-1.53,7.44,8.8,8.8,0,0,1-6.66,4.7,11.08,11.08,0,0,1-3.6,0,4.48,4.48,0,0,1-3-1.94q1.31,7.92,5.13,11.35a8.88,8.88,0,0,0,1.18.88,30.3,30.3,0,0,1-1.31-5.23A4.48,4.48,0,0,0,624.32,453.7Z" transform="translate(-12.83 -63.94)"/>
    <path class="cls-2" d="M734.05,327.7q-0.27,6.79-.58,14.73l5.31-.88q0.14-3.56.27-6.86,0.27-6.78.62-11.72,0.19-5.84.58-10.55l-5-7q-0.39,4.71-.58,10.55Q734.32,320.91,734.05,327.7Z" transform="translate(-12.83 -63.94)"/>
    <path class="cls-2" d="M676,403.86q2.08,8.37,3.41,13.61t2.27,10.9a36.37,36.37,0,0,1,.52,8.74q2.17-1.79,4.15-3.55c-0.56-3.12-1.19-6.16-1.93-9.09q-1.33-5.23-3.41-13.61t-5.23-21.79q-3.15-13.42-7.68-35.21l-5-7q4.53,21.79,7.68,35.21T676,403.86Z" transform="translate(-12.83 -63.94)"/>
    <path class="cls-2" d="M596.46,404.59a48.65,48.65,0,0,1-9.07,16.49,58.82,58.82,0,0,1-14.91,12.69,64.51,64.51,0,0,1-18.75,7.63q0.19,2.53.45,4.81t0.6,4.32q1.91,11.53,6.6,14.59l0.35,0.2a43.21,43.21,0,0,1-1.95-7.79q-0.34-2-.6-4.32t-0.45-4.81a64.51,64.51,0,0,0,18.75-7.63,58.82,58.82,0,0,0,14.91-12.69,48.65,48.65,0,0,0,9.07-16.49A39.23,39.23,0,0,0,602.79,393a32.19,32.19,0,0,0-2.36-8,16.26,16.26,0,0,0-4.54-5.87,32.66,32.66,0,0,1,1.9,6.85A39.23,39.23,0,0,1,596.46,404.59Z" transform="translate(-12.83 -63.94)"/>
    <polygon class="cls-2" points="680.29 294.46 685.29 301.46 687.39 301.11 687.75 293.22 680.29 294.46"/>
    <path class="cls-2" d="M738.15,358.78l13.57-2.24,0.31-9.35-5-7-0.31,9.35-13.57,2.24L729.9,422a33.49,33.49,0,0,0,.18,8.1,9.66,9.66,0,0,0,2.67,5.6,5,5,0,0,0,2.31,1.21,33.82,33.82,0,0,1-.15-7.91Z" transform="translate(-12.83 -63.94)"/>
    <path class="cls-2" d="M531.55,240.67a16.57,16.57,0,0,1,3.36,3.74v0l-5.82-8.14h0a15.94,15.94,0,0,1,2,3.3C531.25,239.91,531.4,240.29,531.55,240.67Z" transform="translate(-12.83 -63.94)"/>
    <path class="cls-2" d="M531.55,240.67a32.62,32.62,0,0,1,1.9,6.85c0.14,0.87.26,1.74,0.35,2.6H534l0.88-5.71A16.57,16.57,0,0,0,531.55,240.67Z" transform="translate(-12.83 -63.94)"/>
    <path class="cls-3" d="M644.54,322.8A261.7,261.7,0,0,0,604.8,187.9,264.75,264.75,0,0,0,567.5,141a263.24,263.24,0,0,0-372.28,0,264.17,264.17,0,0,0-46.67,63l-0.43.81,0,0.07,16.46-2.6,0.12-.21c44.74-77.23,127.77-125.2,216.7-125.2,77.2,0,146.61,35.49,192.63,91A248.83,248.83,0,0,1,631.57,324.7v0.58h0l5.41-.85,2.38-.38,5.19-.82V322.8Z" transform="translate(-12.83 -63.94)"/>
    <polygon class="cls-3" points="140.7 366.71 140.69 366.71 140.73 366.77 140.7 366.71"/>
    <polygon class="cls-3" points="561.52 442.25 561.52 442.25 561.52 442.25 561.52 442.25"/>
    <path class="cls-3" d="M574.35,506.19h0l-21.94,3.46-0.11.1a249.22,249.22,0,0,1-170.93,67.66c-84.16,0-162.21-42.76-208.21-111.59A249.85,249.85,0,0,1,153.69,431l-0.13-.28,0-.06h0l-13.45,2.12,0.26,0.59A261.22,261.22,0,0,0,180.18,497q7.15,8.44,15,16.36a263.24,263.24,0,0,0,372.28,0c1.79-1.79,3.65-3.71,5.85-6.06l1-1.06h0Z" transform="translate(-12.83 -63.94)"/>
    <path class="cls-2" d="M15.37,356.57v0l4.94,6.88a13.34,13.34,0,0,1-1.77-3.93A10.23,10.23,0,0,1,15.37,356.57Z" transform="translate(-12.83 -63.94)"/>
    <path class="cls-3" d="M20.87,364.26h0l0,0Z" transform="translate(-12.83 -63.94)"/>
    <path class="cls-2" d="M18.77,359.7l-0.24-.16a13.34,13.34,0,0,0,1.77,3.93l0.54,0.76,0,0,0.32-3.47A14.52,14.52,0,0,1,18.77,359.7Z" transform="translate(-12.83 -63.94)"/>
    <polygon class="cls-2" points="579.23 321.72 586.49 319.07 580.99 311.33 579.23 311.33 579.23 321.72"/>
    <polygon class="cls-2" points="621.84 373.45 616.29 374.59 616.29 368.4 617.46 367.56 621.84 373.45"/>
    <polygon class="cls-2" points="520.71 420.42 515.17 412.67 511.93 406.3 528.58 406.3 520.71 420.42"/>
    <polygon class="cls-2" points="432.94 188.66 437.92 190.2 442.25 191.73 436.84 184.11 432.94 188.66"/>
    <polygon class="cls-2" points="701.17 397.7 695.96 397.14 690.02 388.8 696.88 391.03 701.17 397.7"/>
    <path class="cls-3" d="M143.12,233.53H143l9.54,1A33.74,33.74,0,0,0,143.12,233.53Z" transform="translate(-12.83 -63.94)"/>
    <path class="cls-3" d="M249.81,356.69a7.34,7.34,0,0,0-.94-0.75l2,2A11.53,11.53,0,0,0,249.81,356.69Z" transform="translate(-12.83 -63.94)"/>
    <path class="cls-3" d="M377.93,363.13c-0.46.71-.92,1.39-1.38,2.06h1.29Z" transform="translate(-12.83 -63.94)"/>
    <path class="cls-3" d="M429.55,270a14.13,14.13,0,0,0,2.91,3.94,4.45,4.45,0,0,0,1,.71c-0.43-1-.85-1.94-1.24-2.84A2.74,2.74,0,0,0,429.55,270Z" transform="translate(-12.83 -63.94)"/>
    <g>
      <path class="cls-3" d="M143,233.54h-0.19a64,64,0,0,0-8.21.7,45.7,45.7,0,0,0-19.7,8.7,98.3,98.3,0,0,0-18.2,17.83,176.38,176.38,0,0,0-16.29,24.46,297.24,297.24,0,0,0-14,28.59q-7.35.52-12.33,1.34a73.64,73.64,0,0,0-17.74,5.14,51.4,51.4,0,0,0-13.48,8.39,32.89,32.89,0,0,0-8.13,10.52,18.9,18.9,0,0,0-1.73,11.32,14.6,14.6,0,0,0,2.3,6,10.23,10.23,0,0,0,3.16,3l0.24,0.16a14.52,14.52,0,0,0,2.42,1.09,16.3,16.3,0,0,0,8.08.54,16.63,16.63,0,0,0,8.54-3.83,7.34,7.34,0,0,0,2.67-7,11.42,11.42,0,0,0-1.8-4.54q-1.39-2.07-2.29-1.93,1.29-6.21,7.65-9.91T60.92,328c-1.18,3.12-2.28,6.24-3.35,9.36q-3.25,9.48-5.9,19-3.92,14.24-6.33,27.07A191.9,191.9,0,0,0,42.28,407a84.07,84.07,0,0,0,.62,18.49c0.83,5,2.24,8.93,4.23,11.78l0.13,0.2,0,0.06q0.44,0.6.91,1.13A19.24,19.24,0,0,0,57,444.58a27.32,27.32,0,0,0,10.29,1.09q5.39-.43,9.91-1.17a19.06,19.06,0,0,1-2.86-3.94q-1.47-2.55-2.55-9.1a113.12,113.12,0,0,1-1.12-20.84q0.29-12.25,1.9-26.45t4.62-29.69q3-15.49,7.07-30.33a95.06,95.06,0,0,1,15,.07,100,100,0,0,1,16.65,3.06L115.61,333,112,412.24l32.57-5.39,8-172.33ZM87.33,313.45a246.69,246.69,0,0,1,14.48-36.79q8.11-16.28,17.39-23.38l-0.57,12.21-2.4,51.31a116.77,116.77,0,0,0-14.34-2.39q-3.71-.38-7.4-0.63T87.33,313.45Z" transform="translate(-12.83 -63.94)"/>
      <path class="cls-3" d="M251.26,358.4l-0.23-.32-0.12-.15-2-2,0,0a9.58,9.58,0,0,0-7.12-1.14q-6.33,1-9,4.85t-2.1,7a5.19,5.19,0,0,0,1.54,3,4.47,4.47,0,0,0,3.54,1,4.93,4.93,0,0,1,0,.51c0,0.1,0,.2,0,0.3a4.62,4.62,0,0,1-2.83,3.39,25.49,25.49,0,0,1-7,2.08,82.19,82.19,0,0,1-9.48,1h-0.1q-4.88.24-7.83,0.49L248,273.57l-58.12,9.61a26.09,26.09,0,0,0-10.6,4.08,29,29,0,0,0-7.32,7,25,25,0,0,0-4,8.32,18.77,18.77,0,0,0-.58,7.76,10.29,10.29,0,0,0,2,4.87,7.87,7.87,0,0,0,2.49,2.05,11.68,11.68,0,0,0,7.54,1.31,14,14,0,0,0,7.9-4.21q3.38-3.46,2.33-9.8a8.17,8.17,0,0,0-.81-2.77,2.38,2.38,0,0,0-1.09-1,5.21,5.21,0,0,0-1-.3,0.53,0.53,0,0,1-.43-0.51q-0.41-2.49,3.11-3.65a59.33,59.33,0,0,1,8.73-2l12.67-2.09-3.1,8.34L169.93,402.66l59.93-9.91a28.38,28.38,0,0,0,19-11.51,25.15,25.15,0,0,0,4.12-8.81,21.3,21.3,0,0,0,.46-8.44A13.38,13.38,0,0,0,251.26,358.4Z" transform="translate(-12.83 -63.94)"/>
      <path class="cls-3" d="M452.83,256a20.07,20.07,0,0,0-1.25-4.39,19.28,19.28,0,0,0-4.66-6.71q-4.82-4.55-12.51-3.28-6.78,1.12-13.16,6.82a83,83,0,0,0-6.12,6.09q-3,3.3-5.77,7l0.81-14.77-32.57,5.39-3.39,75.29a40,40,0,0,1-4.75,15.28q-3.7,6.42-10.26,7.5a14.08,14.08,0,0,1-5.68,0,6.66,6.66,0,0,1-1.63-.63q-2.56-1.43-3.35-6.18a32,32,0,0,1-.29-7.39l3.57-79.59-32.57,5.39-3.37,75.14a41.22,41.22,0,0,1-4.65,15.41q-3.59,6.4-10.15,7.49a7.4,7.4,0,0,1-3.09-.07,4.84,4.84,0,0,1-2.68-1.76,13.76,13.76,0,0,1-2.55-6.32,32.87,32.87,0,0,1-.37-6.44L296,265.64,263.41,271,260,346.17a73.93,73.93,0,0,0,.62,15q2,12.12,8.15,17.75a17.79,17.79,0,0,0,2.28,1.79,24.78,24.78,0,0,0,18.25,3.6,41.11,41.11,0,0,0,7.56-2.06,31,31,0,0,0,7.86-4.44,40.25,40.25,0,0,0,7.64-7.89,55.73,55.73,0,0,0,6.86-12.64,32.15,32.15,0,0,0,4,9.25,21.09,21.09,0,0,0,3.21,3.8,18.65,18.65,0,0,0,2.3,1.87q6.66,4.47,16.39,2.87A47.62,47.62,0,0,0,355.38,372a35.12,35.12,0,0,0,11.15-7.77,46.8,46.8,0,0,0,6.4-8.1l-0.59,13.06,32.57-5.39,3.88-88.93a69,69,0,0,1,7.28-7.94,15,15,0,0,1,7.73-3.83,2.85,2.85,0,0,1,3.43,1.76q0.94,2.17,2,4.66c0.08,0.18.18,0.35,0.27,0.53a2.74,2.74,0,0,1,2.68,1.81c0.39,0.9.81,1.86,1.24,2.84a9.28,9.28,0,0,0,5.81.48,16.43,16.43,0,0,0,6.88-2.65,15.58,15.58,0,0,0,4.45-4.69,16.49,16.49,0,0,0,2.17-5.82A18.12,18.12,0,0,0,452.83,256Z" transform="translate(-12.83 -63.94)"/>
    </g>
    <path class="cls-3" d="M523.05,282.58a49.11,49.11,0,0,0,9.09-16.37,38.57,38.57,0,0,0,1.65-16.08c-0.09-.86-0.2-1.73-0.35-2.6a32.62,32.62,0,0,0-1.9-6.85c-0.15-.38-0.3-0.76-0.46-1.13a15.94,15.94,0,0,0-2-3.3,17.08,17.08,0,0,0-3-3,19.87,19.87,0,0,0-8.49-3.59,36.28,36.28,0,0,0-12.62.23,50.32,50.32,0,0,0-19.91,7.47,53.52,53.52,0,0,0-14,13.47A70.43,70.43,0,0,0,462,268a95.48,95.48,0,0,0-4.72,18.55A120,120,0,0,0,456,304.47a95.66,95.66,0,0,0,1.11,15.15A60.41,60.41,0,0,0,459.68,330a90,90,0,0,0-22.75,8.54q-13.09,7.28-20.84,16.92a56.42,56.42,0,0,0-5.9,8.95,50.49,50.49,0,0,0-3,6.89,49.14,49.14,0,0,0-1.46,4.93,55.24,55.24,0,0,0-.85,22,34,34,0,0,0,3.68,11.37,14.75,14.75,0,0,0,5.21,5.52q6.75,4,18.87,2l-1.35-1.87a14.32,14.32,0,0,1-1.52-2.88,43.77,43.77,0,0,1-1.6-4.73,68.28,68.28,0,0,1-1.57-7.41q-2.13-12.89-1.27-21.75a38.3,38.3,0,0,1,4-14.6,23.37,23.37,0,0,1,8.17-8.9,33.44,33.44,0,0,1,11.12-4.4l-0.41,8.57L441,507l32.53-5.38,4.26-88.07,33-5.46,0.85-17.33L484,395.3l-5.36.89,2.09-46.35a8.54,8.54,0,0,0,1.24,0,44.93,44.93,0,0,0,16.11,0A54.76,54.76,0,0,0,510.94,346a32.87,32.87,0,0,0,10.64-7.34,33.75,33.75,0,0,0,7.23-11.77,51.51,51.51,0,0,0,2.87-17.09,58.86,58.86,0,0,1-11.32,10.47,31.68,31.68,0,0,1-13.23,5.91,13.82,13.82,0,0,1-7.23-.43,11.91,11.91,0,0,1-2.85-1.57,12.06,12.06,0,0,1-2.14-2,18.07,18.07,0,0,1-3.13-5.64,40,40,0,0,1-1.67-6.58c-0.2-1.21-.36-2.38-0.47-3.52s-0.19-2.33-.24-3.56a64.5,64.5,0,0,0,18.75-7.63A58.83,58.83,0,0,0,523.05,282.58ZM501,286.36a30.1,30.1,0,0,1-6.13,3.6,28.71,28.71,0,0,1-5.86,1.85,137.54,137.54,0,0,1,2.11-16.76,102.83,102.83,0,0,1,4.14-15.71,50.34,50.34,0,0,1,5.92-12q3.38-4.83,7.68-5.55a4.57,4.57,0,0,1,4.82,1.75,13.92,13.92,0,0,1,2.1,5.22c0.09,0.43.18,0.86,0.26,1.32a34.49,34.49,0,0,1-.5,13.84,40.12,40.12,0,0,1-5.36,12.56A38.79,38.79,0,0,1,501,286.36Z" transform="translate(-12.83 -63.94)"/>
    <path class="cls-3" d="M733.15,351.78l13.57-2.24,0.31-9.35-8.26,1.37-5.31.88q0.31-7.95.58-14.73T734.67,316q0.19-5.84.58-10.55l-32.72,10.06-1.62,32.33-7.46,1.23-0.31,9.35,7.46-1.23L700.22,365,697.54,423l-0.91.15a100,100,0,0,1-10.27,10.45q-2,1.76-4.15,3.55a36.37,36.37,0,0,0-.52-8.74q-0.93-5.65-2.27-10.9T676,403.86q-2.08-8.37-5.23-21.79t-7.68-35.21l-32.72,10.06q-2.44,17.6-6.24,35.3a280.87,280.87,0,0,1-10.5,36.24,22.59,22.59,0,0,0-8.92,17.35c-0.46.64-.91,1.27-1.37,1.89a58.42,58.42,0,0,1-7.85,8.73,45.78,45.78,0,0,1-9.37,6.55,39,39,0,0,1-11.91,3.83c-5.23.87-9.39,0.35-12.48-1.51l-0.35-.2q-4.69-3.06-6.6-14.59-0.34-2-.6-4.32t-0.45-4.81a64.51,64.51,0,0,0,18.75-7.63,58.82,58.82,0,0,0,14.91-12.69,48.65,48.65,0,0,0,9.07-16.49A39.23,39.23,0,0,0,597.79,386a32.66,32.66,0,0,0-1.9-6.85c-0.15-.38-0.3-0.76-0.46-1.13a16.35,16.35,0,0,0-5-6.26,19.87,19.87,0,0,0-8.49-3.59,36.29,36.29,0,0,0-12.63.23,50.34,50.34,0,0,0-19.91,7.47,53.53,53.53,0,0,0-14,13.47,70.48,70.48,0,0,0-9,17.17,95.43,95.43,0,0,0-4.71,18.55A119.92,119.92,0,0,0,520.31,443a95.6,95.6,0,0,0,1.11,15.15q2.49,15,9.81,22.45a23.29,23.29,0,0,0,4.43,3.54q11.06,6.77,27.22,4.1a57,57,0,0,0,20-7,70,70,0,0,0,15.39-12.3,83.82,83.82,0,0,0,8.72-11,32.67,32.67,0,0,0,1.8,3.68,25.35,25.35,0,0,0,2.77,3.93c0.45,0.53.92,1,1.41,1.53a27.29,27.29,0,0,0,3.34,2.82,31.93,31.93,0,0,0,11.39,5,38.84,38.84,0,0,0,15.24.15,64.92,64.92,0,0,0,8.93-2.17,49.37,49.37,0,0,0,9.11-3.95,55.41,55.41,0,0,0,8.35-5.68,35.25,35.25,0,0,0,6.87-7.64,159,159,0,0,0,15-14.09q3.15-3.33,6.19-7.22a53.39,53.39,0,0,0,.6,5.4,39.68,39.68,0,0,0,1.28,5.41,28.42,28.42,0,0,0,6.94,11.8l0.11,0.12q6.53,6.48,18.52,4.49a29.49,29.49,0,0,0,6-1.69,16.56,16.56,0,0,0,5.83-4.1,27.69,27.69,0,0,0,5-7.79,52.1,52.1,0,0,0,3.5-12.55,12.17,12.17,0,0,1-3,1.07c-1.12.27-2.06,0.46-2.81,0.58a10.71,10.71,0,0,1-4.29,0,5,5,0,0,1-2.31-1.21,9.66,9.66,0,0,1-2.67-5.6,33.49,33.49,0,0,1-.18-8.1ZM555.44,413.08a90.65,90.65,0,0,1,4-15.58,48.37,48.37,0,0,1,6-11.73q3.4-4.72,7.7-5.44a4.57,4.57,0,0,1,4.82,1.75,13.93,13.93,0,0,1,2.1,5.22c0.09,0.43.18,0.86,0.26,1.32a35.27,35.27,0,0,1-.42,13.6,38.27,38.27,0,0,1-5.24,12.54,38.79,38.79,0,0,1-9.18,9.84,32.63,32.63,0,0,1-6.22,3.71,31.19,31.19,0,0,1-5.74,2A141.33,141.33,0,0,1,555.44,413.08Zm93.44,31.16a18.49,18.49,0,0,1-3.33,7.29,15.61,15.61,0,0,1-5.75,4.55,27,27,0,0,1-7.07,2.21q-6.39,1.06-10.1-1.32a8.88,8.88,0,0,1-1.18-.88q-3.82-3.43-5.13-11.35a4.48,4.48,0,0,0,3,1.94,11.08,11.08,0,0,0,3.6,0,8.8,8.8,0,0,0,6.66-4.7,12.36,12.36,0,0,0,1.53-7.44c0-.19,0-0.39-0.07-0.58a9.44,9.44,0,0,0-.74-2.45,7,7,0,0,0-1.53-2.17,10.82,10.82,0,0,0-4.24-2.44q3.85-11.79,6.77-23a190.38,190.38,0,0,0,4.47-22.81c1.37,5.78,2.6,10.83,3.7,15.2,0.55,2.17,1.07,4.18,1.55,6q2.17,8.24,3.68,13.8t2.51,9.58q1,4,1.72,8.31A26.22,26.22,0,0,1,648.89,444.25Z" transform="translate(-12.83 -63.94)"/>
  </g>
  <g>
    <path class="cls-4" d="M296.45,646.28a1.67,1.67,0,0,0,1.48-.79,1.34,1.34,0,0,0-.73-1.89h0L225.31,611.4l68.92-37.82a1.34,1.34,0,0,0,.61-1.94,1.74,1.74,0,0,0-2.2-.54l-0.11.06-71.37,39.13a1.28,1.28,0,0,0-.74,1.24,1.46,1.46,0,0,0,.89,1.24l74.41,33.37A1.35,1.35,0,0,0,296.45,646.28Z" transform="translate(-12.83 -63.94)"/>
    <g id="Laag_3" data-name="Laag 3">
      <path class="cls-3" d="M48.33,602l-1.11,15.7A1.82,1.82,0,0,0,49,619.58c18.45,1.5,164.75,12.5,174.9-7.33Z" transform="translate(-12.83 -63.94)"/>
      <path class="cls-5" d="M48.33,602.18l1.19-15.9a1.71,1.71,0,0,1,1.78-1.44c17.49,0.65,165.42,6.61,172.53,27.55Z" transform="translate(-12.83 -63.94)"/>
      <g>
        <path class="cls-6" d="M55.89,602.51L48.33,602l-1.19,16.16a1.32,1.32,0,0,0,1.3,1.37h0c1.26,0.13,3.33.26,6.08,0.46Z" transform="translate(-12.83 -63.94)"/>
        <path class="cls-7" d="M57.15,585c-2.74-.13-4.82-0.2-6.08-0.26A1.48,1.48,0,0,0,49.51,586l-1.19,16.16,7.56,0.46Z" transform="translate(-12.83 -63.94)"/>
      </g>
      <g>
        <path class="cls-8" d="M26.91,600.8c0.15,2.49,7.19,5.63,9.12,6.61,2.3,1.18,7.34,3.73,9.12.65a15,15,0,0,0,.82-6.15Z" transform="translate(-12.83 -63.94)"/>
        <path class="cls-6" d="M26.91,600.8c0.15,2.49,7.19,5.63,9.12,6.61,2.3,1.18,7.34,3.73,9.12.65a15,15,0,0,0,.82-6.15Z" transform="translate(-12.83 -63.94)"/>
        <path class="cls-7" d="M26.91,600.93c0.52-2.49,8-4.78,10-5.5,2.45-.92,7.86-2.81,9.12.39A15.63,15.63,0,0,1,46,602Z" transform="translate(-12.83 -63.94)"/>
      </g>
      <path class="cls-9" d="M126,594.06c7.84,0.45,13.78,6.43,13.26,13.35s-7.28,12.16-15.12,11.71-13.78-6.43-13.26-13.35,7.25-12.16,15.07-11.72h0Z" transform="translate(-12.83 -63.94)"/>
      <g>
        <path class="cls-6" d="M40.77,607.48l-0.22,46.2a2,2,0,0,1-2.13,1.9H38.25l-3.11-.2c-2.91-.17-5.11-2.39-4.92-5q0-.13,0-0.27l6.23-43a2.09,2.09,0,0,1,2.3-1.64h0A2.07,2.07,0,0,1,40.77,607.48Z" transform="translate(-12.83 -63.94)"/>
        <path class="cls-7" d="M41.36,598.51l6.82-47.64a2.78,2.78,0,0,0-2.65-3H45.36l-4.08-.2a3.33,3.33,0,0,0-3.69,2.78q0,0.12,0,.23l-0.3,47.57Z" transform="translate(-12.83 -63.94)"/>
      </g>
      <path class="cls-6" d="M117.7,514.23c4.8,0.27,8.45,3.92,8.15,8.16v0L113.32,690.12c-0.3,4.24-4.44,7.46-9.24,7.2h0l-20.83-1.24c-4.8-.27-8.45-3.92-8.15-8.16v0L87.61,520.19c0.3-4.24,4.44-7.46,9.24-7.2h0Z" transform="translate(-12.83 -63.94)"/>
      <g>
        <polygon class="cls-6" points="96.52 492.16 98.74 462.52 112.64 463.33 110.43 492.97 96.52 492.16"/>
        <polygon class="cls-6" points="86.92 620.52 89.13 590.88 103.04 591.69 100.82 621.33 86.92 620.52"/>
      </g>
      <g>
        <path class="cls-7" d="M203,573.26c4.08,0.24,7.17,3.36,6.89,7v0l-4.67,62.36c-0.28,3.61-3.81,6.33-7.89,6.09h0L182,647.79c-4.08-.24-7.17-3.36-6.89-7v0l4.67-62.36c0.28-3.61,3.81-6.33,7.89-6.09h0Z" transform="translate(-12.83 -63.94)"/>
        <path class="cls-6" d="M180.69,609.7h0c-0.07,1.11,3.71,2.22,8.45,2.49l32.39,1.9c4.74,0.26,8.67-.39,8.75-1.5h0c0.07-1.11-3.71-2.22-8.45-2.49l-32.39-1.9C184.69,607.94,180.77,608.59,180.69,609.7Z" transform="translate(-12.83 -63.94)"/>
      </g>
    </g>
    <path class="cls-10" d="M289.93,569.13v81.14S399,620.63,523.16,661.46,746,650.66,746,650.66L709.32,629l33.13-51.24s-94.86,29.45-172.23,8.77C513.52,571.29,375.08,524.18,289.93,569.13Z" transform="translate(-12.83 -63.94)"/>
    <g>
      <path class="cls-4" d="M345.09,573.5a8.32,8.32,0,0,1-1.33,3.67,3.35,3.35,0,0,1-2.28,1.52,1.78,1.78,0,0,1-1.09-.14,2.44,2.44,0,0,1-.81-0.79,5.34,5.34,0,0,0,1.29-1.81,8.74,8.74,0,0,0,.74-2.36,7.06,7.06,0,0,0,0-1.92A3.78,3.78,0,0,0,341,570a2.93,2.93,0,0,0-1.25-1.07,3.5,3.5,0,0,0-2-.18,5.78,5.78,0,0,0-2.33.91,7.53,7.53,0,0,0-1.88,1.78,10.41,10.41,0,0,0-1.32,2.37,12.41,12.41,0,0,0-.74,2.77,6.37,6.37,0,0,0,.47,4.24,6.65,6.65,0,0,0,2.4,2.36,27,27,0,0,0,3.36,1.63,11.14,11.14,0,0,1,3.3,2.07,8.4,8.4,0,0,1,2.22,3.53,13.66,13.66,0,0,1,.19,6.08,19.17,19.17,0,0,1-1.86,6,15.79,15.79,0,0,1-3.12,4.25,14.42,14.42,0,0,1-3.92,2.66,16.45,16.45,0,0,1-4.26,1.31,13.73,13.73,0,0,1-3.65.11,6.86,6.86,0,0,1-3.05-1,5,5,0,0,1-1.93-2.41,7.77,7.77,0,0,1-.26-4.05,15.84,15.84,0,0,1,.79-3,15.28,15.28,0,0,1,1.41-2.92,10.29,10.29,0,0,1,2-2.32,5,5,0,0,1,2.43-1.22,2,2,0,0,1,1.71.37,4,4,0,0,1,.94,2.37,4.85,4.85,0,0,0-2,.91,6.34,6.34,0,0,0-1.38,1.49,7.33,7.33,0,0,0-.85,1.73,9.84,9.84,0,0,0-.42,1.65,5.07,5.07,0,0,0,.17,2.62,3.85,3.85,0,0,0,1.19,1.66,4.12,4.12,0,0,0,1.76.82,5.45,5.45,0,0,0,1.95,0,6.36,6.36,0,0,0,4-2.57,12.6,12.6,0,0,0,2.33-6,9.37,9.37,0,0,0-.26-5,6.59,6.59,0,0,0-2.16-2.76,12.5,12.5,0,0,0-3.08-1.65,13.85,13.85,0,0,1-3.09-1.59,6.08,6.08,0,0,1-2.16-2.75,10,10,0,0,1-.24-5.12,17.85,17.85,0,0,1,1.6-5.23,17.62,17.62,0,0,1,2.72-4.08,13.14,13.14,0,0,1,3.44-2.75,11.54,11.54,0,0,1,3.76-1.31,13.5,13.5,0,0,1,2.22-.1,6.06,6.06,0,0,1,2.64.65,4.54,4.54,0,0,1,2,2.1A6.93,6.93,0,0,1,345.09,573.5Z" transform="translate(-12.83 -63.94)"/>
      <path class="cls-4" d="M362.68,585.78a11.19,11.19,0,0,1-3.75,6.83,16.72,16.72,0,0,1-8.1,3.76,14.38,14.38,0,0,0,.13,3.7,5.45,5.45,0,0,0,.87,2.2,2.81,2.81,0,0,0,1.48,1.05,5.57,5.57,0,0,0,1.88.22,8.68,8.68,0,0,0,4.49-1.6,12.76,12.76,0,0,0,4-4.91h1.48a23.14,23.14,0,0,1-2.32,4.09,20.5,20.5,0,0,1-3.08,3.45,16.59,16.59,0,0,1-3.54,2.44,9.17,9.17,0,0,1-3.65,1,7.17,7.17,0,0,1-3.11-.48,5.1,5.1,0,0,1-2.4-2.07,9.93,9.93,0,0,1-1.31-3.93,21.54,21.54,0,0,1,.2-6.16,36.91,36.91,0,0,1,1.25-5.29,26.38,26.38,0,0,1,2.33-5.39,16.56,16.56,0,0,1,3.43-4.26,7.36,7.36,0,0,1,4.56-1.89,7.56,7.56,0,0,1,2.22.2,3.77,3.77,0,0,1,1.85,1.07,4.63,4.63,0,0,1,1.1,2.23A10.33,10.33,0,0,1,362.68,585.78Zm-11.56,8.35c4.64-1.11,8.05-4.61,8.61-8.83a5.55,5.55,0,0,0-.14-3.11,1.57,1.57,0,0,0-1.62-.87,3.42,3.42,0,0,0-2.34,1.28,12.68,12.68,0,0,0-2,3.07,26.12,26.12,0,0,0-1.54,4.1A34.34,34.34,0,0,0,351.12,594.13Z" transform="translate(-12.83 -63.94)"/>
      <path class="cls-4" d="M371.47,576.36l-0.69,4.44a9.22,9.22,0,0,1,2.39-1.86,5.73,5.73,0,0,1,2.91-.65,5.12,5.12,0,0,1,2.93,1,6.38,6.38,0,0,1,2.07,2.72,14,14,0,0,1,1,4.52,29,29,0,0,1-.36,6.41q-1.1,7.2-3.9,11.08c-1.88,2.62-4,3.83-6.48,3.78a4.38,4.38,0,0,1-2.55-.77,5.44,5.44,0,0,1-1.65-2.06L364.8,620.3c-2,.57-3,0.86-5,1.47l6.89-45.38C368.61,576.35,369.57,576.34,371.47,576.36Zm2.4,5.63a3.11,3.11,0,0,0-2,.69,6.81,6.81,0,0,0-1.7,2L367.58,602a3.5,3.5,0,0,0,1.26,1.51,3,3,0,0,0,1.56.48,3.22,3.22,0,0,0,2.22-.88,9.12,9.12,0,0,0,1.87-2.43A19,19,0,0,0,376,597a31.63,31.63,0,0,0,1-4.54,23.25,23.25,0,0,0,.31-5,10,10,0,0,0-.67-3.21,3.8,3.8,0,0,0-1.3-1.71,2.84,2.84,0,0,0-1.51-.54h0Z" transform="translate(-12.83 -63.94)"/>
      <path class="cls-4" d="M392.32,570.57L391,579.33c1.44,0.12,2.16.18,3.59,0.31l-0.3,2c-1.43-.14-2.15-0.2-3.59-0.31L388,599c-0.07.46-.13,1-0.19,1.59a8.41,8.41,0,0,0,0,1.72,3.31,3.31,0,0,0,.44,1.41,1.41,1.41,0,0,0,1.15.65A3.38,3.38,0,0,0,392,603a13.18,13.18,0,0,0,2.5-4.55l1.72,0.18a34.34,34.34,0,0,1-2.56,5.56,13,13,0,0,1-2.37,3,5.13,5.13,0,0,1-2.15,1.23,5.9,5.9,0,0,1-1.79.16,4.38,4.38,0,0,1-2.63-1,4.88,4.88,0,0,1-1.38-2.11,8.7,8.7,0,0,1-.44-2.74,18.57,18.57,0,0,1,.21-2.92L386,581l-1.59-.1,0.3-2,1.62,0.09,1.21-8C389.45,570.85,390.41,570.76,392.32,570.57Z" transform="translate(-12.83 -63.94)"/>
      <path class="cls-4" d="M410.68,589a9.42,9.42,0,0,1-3.71,6.35,13,13,0,0,1-7.89,2.38,16,16,0,0,0,.1,3.83A6.94,6.94,0,0,0,400,604a3.56,3.56,0,0,0,1.42,1.35,5.7,5.7,0,0,0,1.82.57,7.08,7.08,0,0,0,4.38-.84,10.15,10.15,0,0,0,3.88-4.36l1.48,0.24a19.35,19.35,0,0,1-2.28,3.8,15.93,15.93,0,0,1-3,3,12.59,12.59,0,0,1-3.45,1.88,7.63,7.63,0,0,1-3.56.4,7.49,7.49,0,0,1-3-1.08,6.63,6.63,0,0,1-2.32-2.62,12.52,12.52,0,0,1-1.25-4.33,23.14,23.14,0,0,1,.22-6.3,35.16,35.16,0,0,1,1.24-5.2,22.7,22.7,0,0,1,2.28-5.09,12.83,12.83,0,0,1,3.35-3.72,5.94,5.94,0,0,1,4.45-1.09,7.79,7.79,0,0,1,2.22.62,4.7,4.7,0,0,1,1.79,1.43,5.92,5.92,0,0,1,1.06,2.49A11.16,11.16,0,0,1,410.68,589Zm-11.28,6.48a9.29,9.29,0,0,0,5.65-2.22A8.43,8.43,0,0,0,407.8,588a6.18,6.18,0,0,0-.13-3.23,1.89,1.89,0,0,0-1.56-1.18,2.69,2.69,0,0,0-2.28.88,10.17,10.17,0,0,0-2,2.78,23.13,23.13,0,0,0-1.48,3.93,33.05,33.05,0,0,0-1,4.31h0Z" transform="translate(-12.83 -63.94)"/>
      <path class="cls-4" d="M418.91,582.94l-0.6,4q1.62-2.56,3.06-3.08a5.1,5.1,0,0,1,2.64-.29,5.21,5.21,0,0,1,2,.8,5.06,5.06,0,0,1,1.37,1.39,6.79,6.79,0,0,1,.83,1.83,11.55,11.55,0,0,1,.4,2.16,12.23,12.23,0,0,1,1.74-2.47A6.59,6.59,0,0,1,432,586a3.18,3.18,0,0,1,1.48-.41,5.8,5.8,0,0,1,1.24.11,5.64,5.64,0,0,1,3.16,1.7,6.78,6.78,0,0,1,1.48,2.93,12.84,12.84,0,0,1,.33,3.53,32.26,32.26,0,0,1-.33,3.53q-0.16,1-.39,2.26l-0.47,2.52L438,604.75q-0.24,1.31-.41,2.38-0.07.46-.15,1.31a10.18,10.18,0,0,0,0,1.69,4.45,4.45,0,0,0,.38,1.55,1.51,1.51,0,0,0,1.1.88A2.18,2.18,0,0,0,441,611.5a14.52,14.52,0,0,0,2.12-4.46l1.68,0.41a27,27,0,0,1-2.15,5.43,10.78,10.78,0,0,1-2.13,2.81,3.84,3.84,0,0,1-1.95,1,4.73,4.73,0,0,1-1.65-.05,4.56,4.56,0,0,1-2.36-1.31,6.12,6.12,0,0,1-1.35-2.3,10.45,10.45,0,0,1-.51-3,18.8,18.8,0,0,1,.21-3.41q0.08-.52.32-1.92l0.5-3q0.27-1.61.51-3t0.33-2a17.2,17.2,0,0,0,.24-3.11,6.3,6.3,0,0,0-.35-2,2.85,2.85,0,0,0-.79-1.18,2.45,2.45,0,0,0-1.07-.52,2.52,2.52,0,0,0-2.53,1,11.79,11.79,0,0,0-2,4.58l-2.82,18.41c-1.83-.37-2.75-0.55-4.59-0.9l2.93-19.26q0.16-1,.24-2a6.85,6.85,0,0,0-.07-1.83,3.16,3.16,0,0,0-.59-1.39,2.06,2.06,0,0,0-1.3-.71,2.35,2.35,0,0,0-2.46,1.13,20.1,20.1,0,0,0-2.13,4.51l-2.83,18.5c-1.84-.31-2.76-0.47-4.6-0.76l4.38-28.83C416.16,582.47,417.08,582.63,418.91,582.94Z" transform="translate(-12.83 -63.94)"/>
      <path class="cls-4" d="M447.73,577.85c1.88,0.11,2.81.17,4.68,0.3l-2.08,13.66a6,6,0,0,1,2.07-1.16,4.62,4.62,0,0,1,2.59,0,7.31,7.31,0,0,1,2.46,1.2,7.6,7.6,0,0,1,2.16,2.57,12.45,12.45,0,0,1,1.29,4.29,22.71,22.71,0,0,1-.21,6.36,31,31,0,0,1-1.58,6.18,17.63,17.63,0,0,1-2.68,4.9,9.64,9.64,0,0,1-3.71,2.91,7,7,0,0,1-4.57.27,6.2,6.2,0,0,1-4.34-3.49,10.81,10.81,0,0,1-.87-3.61,22.12,22.12,0,0,1,.27-5.16Zm8.72,27.48a26.88,26.88,0,0,0,.32-4.29,16.52,16.52,0,0,0-.41-3.67,7.65,7.65,0,0,0-1.15-2.7,3.29,3.29,0,0,0-1.9-1.35,2.74,2.74,0,0,0-1.75.15,5.53,5.53,0,0,0-1.62,1.06l-2.3,15.17q-0.79,5.19,1.9,5.89a3,3,0,0,0,2.39-.38,6.56,6.56,0,0,0,2-2.15,15.06,15.06,0,0,0,1.53-3.44,27.77,27.77,0,0,0,1-4.29h0Z" transform="translate(-12.83 -63.94)"/>
      <path class="cls-4" d="M478.14,604.6a8.27,8.27,0,0,1-3.62,6,11,11,0,0,1-7.73,1.31,17.28,17.28,0,0,0,.09,3.93,8.3,8.3,0,0,0,.81,2.62,4.36,4.36,0,0,0,1.39,1.59,6.15,6.15,0,0,0,1.79.83,6.31,6.31,0,0,0,4.29-.29,8.45,8.45,0,0,0,3.81-4l1.48,0.42a16.9,16.9,0,0,1-2.22,3.6,13.19,13.19,0,0,1-3,2.7,10.34,10.34,0,0,1-3.39,1.47,7,7,0,0,1-3.48-.08,8,8,0,0,1-5.22-4.53,14.9,14.9,0,0,1-1.21-4.62,24.47,24.47,0,0,1,.24-6.42,33.77,33.77,0,0,1,1.23-5.13,20,20,0,0,1,2.22-4.86,10.39,10.39,0,0,1,3.29-3.27,5.28,5.28,0,0,1,4.34-.48,8.56,8.56,0,0,1,2.15.94,5.68,5.68,0,0,1,1.75,1.69,7,7,0,0,1,1,2.67A11.8,11.8,0,0,1,478.14,604.6Zm-11.06,5.07a7.76,7.76,0,0,0,5.54-1.47,7.43,7.43,0,0,0,2.72-5,6.69,6.69,0,0,0-.11-3.31,2.24,2.24,0,0,0-1.53-1.43,2.32,2.32,0,0,0-2.22.58,8.51,8.51,0,0,0-1.93,2.56,21,21,0,0,0-1.48,3.8,32,32,0,0,0-1,4.25v0Z" transform="translate(-12.83 -63.94)"/>
      <path class="cls-4" d="M486.25,599.36l-0.74,4.84q0.7-.88,1.36-1.65a7.24,7.24,0,0,1,1.4-1.31,4.8,4.8,0,0,1,1.57-.71,3.34,3.34,0,0,1,1.79.07,3.15,3.15,0,0,1,2.1,1.68,4.55,4.55,0,0,1,.35,2.66,3.7,3.7,0,0,1-.44,1.37,2.48,2.48,0,0,1-.68.77,1.58,1.58,0,0,1-.74.29,1.73,1.73,0,0,1-.65,0,1.11,1.11,0,0,1-.62-0.43c-0.14-.2-0.28-0.41-0.42-0.65a5.35,5.35,0,0,0-.49-0.65,1.6,1.6,0,0,0-.78-0.47,2.61,2.61,0,0,0-2.13.34,13.29,13.29,0,0,0-2,1.46l-3.22,21.22-4.52-1.31,4.37-28.78Z" transform="translate(-12.83 -63.94)"/>
      <path class="cls-4" d="M510.61,636.66l-4.88-1.43,5.41-35.64-5.06-1.49,0.59-3a14.61,14.61,0,0,0,1.92.42,9.35,9.35,0,0,0,2.36,0,15.49,15.49,0,0,0,2.82-.58,17.28,17.28,0,0,0,3.39-1.47Z" transform="translate(-12.83 -63.94)"/>
      <path class="cls-4" d="M524.54,640.7l-4.88-1.42,5.41-35.64L520,602.18l0.59-3a14.57,14.57,0,0,0,1.92.41,9.35,9.35,0,0,0,2.36,0,15.51,15.51,0,0,0,2.83-.6,17.39,17.39,0,0,0,3.39-1.5Z" transform="translate(-12.83 -63.94)"/>
      <path class="cls-4" d="M540.4,605.91l-1.33,8.76,3.49,0.94-0.3,2-3.49-.94-2.67,17.59c-0.07.46-.13,1-0.19,1.6a9.11,9.11,0,0,0,0,1.77,4.08,4.08,0,0,0,.43,1.52,1.7,1.7,0,0,0,1.12.87,2.73,2.73,0,0,0,2.57-.93,11.21,11.21,0,0,0,2.47-4.27l1.68,0.44a30.18,30.18,0,0,1-2.53,5.3,10.46,10.46,0,0,1-2.33,2.72,4,4,0,0,1-2.1.91,5.31,5.31,0,0,1-1.75-.14,5,5,0,0,1-2.56-1.5,6.46,6.46,0,0,1-1.33-2.44,10.32,10.32,0,0,1-.41-2.91,19.51,19.51,0,0,1,.21-3l2.85-18.8-1.54-.43,0.3-2,1.54,0.43,1.21-8Z" transform="translate(-12.83 -63.94)"/>
      <path class="cls-4" d="M551.49,606l-2.42,15.91a11.56,11.56,0,0,1,1.76-2.15,4.92,4.92,0,0,1,1.65-1.05,4.14,4.14,0,0,1,1.48-.26,6.1,6.1,0,0,1,1.27.16,5.88,5.88,0,0,1,3.15,1.79,7,7,0,0,1,1.48,3,13,13,0,0,1,.33,3.57,31.92,31.92,0,0,1-.34,3.63q-0.29,1.9-.82,4.58t-0.91,5.23q-0.09.58-.16,1.39a6.86,6.86,0,0,0,0,1.62,4.07,4.07,0,0,0,.49,1.46,1.81,1.81,0,0,0,1.24.85,4.3,4.3,0,0,0,.79.09,1,1,0,0,0,.74-0.22l-0.06.41a7,7,0,0,1-.69,2.35,3.34,3.34,0,0,1-1,1.15,1.85,1.85,0,0,1-1.09.35,4.76,4.76,0,0,1-1-.1,4.44,4.44,0,0,1-2.3-1.31,6.5,6.5,0,0,1-1.37-2.33,10.2,10.2,0,0,1-.53-3,18.74,18.74,0,0,1,.21-3.45q0.08-.52.32-1.92l0.5-3q0.27-1.61.51-3t0.33-2a17.3,17.3,0,0,0,.24-3.11,6.47,6.47,0,0,0-.35-2.06,3,3,0,0,0-.79-1.21,2.55,2.55,0,0,0-1.07-.56,2.73,2.73,0,0,0-2.65.83,11.68,11.68,0,0,0-2.39,4.42l-2.8,18.45-4.54-1.18,6-39.55Z" transform="translate(-12.83 -63.94)"/>
      <path class="cls-4" d="M563,646.48a3.33,3.33,0,0,1,.48-1.31,3.1,3.1,0,0,1,.87-0.91,3.42,3.42,0,0,1,1.07-.48,2.3,2.3,0,0,1,1.07,0,2.9,2.9,0,0,1,2.29,1.86A6.83,6.83,0,0,1,569,649a13.08,13.08,0,0,1-.79,2.84,18,18,0,0,1-1.36,2.75,12.93,12.93,0,0,1-1.71,2.26,4.87,4.87,0,0,1-1.88,1.31,1.42,1.42,0,0,1-.42-0.78,2.54,2.54,0,0,1,0-.75,4.5,4.5,0,0,1,.34-1.15c0.17-.38.34-0.75,0.52-1.11s0.36-.72.52-1.08a4,4,0,0,0,.33-1.06,3.14,3.14,0,0,0,0-1.31,1.87,1.87,0,0,0-.35-0.65,1.73,1.73,0,0,0-.53-0.41,1.22,1.22,0,0,1-.51-0.53,3,3,0,0,1-.3-1A6.88,6.88,0,0,1,563,646.48Z" transform="translate(-12.83 -63.94)"/>
      <path class="cls-4" d="M587.93,649.66a20.71,20.71,0,0,1,4.19,1.16,19.62,19.62,0,0,0,4.52,1.15,8.38,8.38,0,0,0,2.16,0,4.22,4.22,0,0,0,1.62-.54,5,5,0,0,0,1.28-1.11q0.58-.69,1.25-1.68a14.49,14.49,0,0,1,.21,2.07,11.53,11.53,0,0,1-.12,2,6.51,6.51,0,0,1-.74,2.35,4.36,4.36,0,0,1-1.27,1.41,3.79,3.79,0,0,1-1.67.65,7.71,7.71,0,0,1-2,0,14.13,14.13,0,0,1-2.78-.65q-1.44-.49-2.77-1l-2.49-1a9.31,9.31,0,0,0-2-.6,8.69,8.69,0,0,0-2.33-.05,7.64,7.64,0,0,0-2.45.74,8.51,8.51,0,0,1-.21-1.13,9.26,9.26,0,0,1,.13-2.43,13.28,13.28,0,0,1,1.78-5,27.44,27.44,0,0,1,3.16-4.17q1.81-2,3.85-3.88a47.63,47.63,0,0,0,3.88-4.08,28.53,28.53,0,0,0,3.25-4.76,17.85,17.85,0,0,0,1.91-5.89,11,11,0,0,0-.28-5.31,3.58,3.58,0,0,0-3.12-2.47,3.83,3.83,0,0,0-3.51,1.06,6,6,0,0,0-1.65,3.4,9.57,9.57,0,0,0,0,2.27,4.06,4.06,0,0,0,.93,2.3,3.31,3.31,0,0,1-1.35.94,2.6,2.6,0,0,1-1.22.13,2.23,2.23,0,0,1-1.36-.73,3.81,3.81,0,0,1-.79-1.49,8.38,8.38,0,0,1-.31-2,10.75,10.75,0,0,1,.11-2.11A7.53,7.53,0,0,1,591,613.8a9.62,9.62,0,0,1,6.8-1.1,10.18,10.18,0,0,1,4.54,1.63,7.89,7.89,0,0,1,2.51,2.91,9.57,9.57,0,0,1,1,3.66,18.2,18.2,0,0,1-.16,3.88,17.62,17.62,0,0,1-2,6.16,25.13,25.13,0,0,1-3.48,4.74,32.81,32.81,0,0,1-4.19,3.77q-2.22,1.67-4.19,3.23a26.09,26.09,0,0,0-3.47,3.27,8.77,8.77,0,0,0-2,3.78A5.42,5.42,0,0,1,587.93,649.66Z" transform="translate(-12.83 -63.94)"/>
      <path class="cls-4" d="M624.44,615.26a7.38,7.38,0,0,1,5,2,11,11,0,0,1,2.73,4.73,22.91,22.91,0,0,1,.87,6.66,51.77,51.77,0,0,1-.61,7.73,59.28,59.28,0,0,1-1.87,8.24,34,34,0,0,1-3.12,7.32,17,17,0,0,1-4.45,5.15,8.66,8.66,0,0,1-5.83,1.74,7.82,7.82,0,0,1-4.37-1.56,9.59,9.59,0,0,1-3-4.15,21.53,21.53,0,0,1-1.38-6.79,45.1,45.1,0,0,1,.56-9.48,52.29,52.29,0,0,1,2.16-9.1,28.12,28.12,0,0,1,3.36-6.92,14,14,0,0,1,4.45-4.29A9.68,9.68,0,0,1,624.44,615.26Zm-9.63,21.91a61,61,0,0,0-.62,6.11,28.65,28.65,0,0,0,.2,5.52,10.9,10.9,0,0,0,1.3,4.05,3.17,3.17,0,0,0,2.68,1.67,4,4,0,0,0,3.19-1.45,14.37,14.37,0,0,0,2.62-4.19,38.45,38.45,0,0,0,2-6.14q0.86-3.47,1.44-7.28a56.42,56.42,0,0,0,.74-8.41,21.47,21.47,0,0,0-.54-5.29,5.46,5.46,0,0,0-1.48-2.75,3.12,3.12,0,0,0-1.9-.84,4.08,4.08,0,0,0-3.15,1.48,15.62,15.62,0,0,0-2.76,4.21,39.25,39.25,0,0,0-2.22,6.11,59.34,59.34,0,0,0-1.47,7.22h0Z" transform="translate(-12.83 -63.94)"/>
      <path class="cls-4" d="M639,653.23a21.12,21.12,0,0,1,4.31.35,19,19,0,0,0,4.66.24,9.49,9.49,0,0,0,2.22-.39,5.52,5.52,0,0,0,1.66-.85,6.7,6.7,0,0,0,1.31-1.31q0.59-.79,1.27-1.88a12.4,12.4,0,0,1,.22,2,10.88,10.88,0,0,1-.12,2,7.2,7.2,0,0,1-.74,2.43,5.77,5.77,0,0,1-1.31,1.63,5,5,0,0,1-1.73.95,8.82,8.82,0,0,1-2,.39,14,14,0,0,1-2.87-.09q-1.48-.19-2.85-0.46l-2.56-.52a9.18,9.18,0,0,0-2-.22,9.91,9.91,0,0,0-2.39.37,9.72,9.72,0,0,0-2.51,1.16,7.15,7.15,0,0,1-.21-1.06,8.76,8.76,0,0,1,.13-2.39,14.66,14.66,0,0,1,1.81-5.2,34.52,34.52,0,0,1,3.23-4.63q1.85-2.25,3.94-4.48t4-4.7a35.61,35.61,0,0,0,3.32-5.23,19.61,19.61,0,0,0,1.94-6.16,9.67,9.67,0,0,0-.31-5.09,3,3,0,0,0-3.22-1.8,4.84,4.84,0,0,0-3.61,1.69,7,7,0,0,0-1.68,3.61,8.84,8.84,0,0,0,0,2.21,3.17,3.17,0,0,0,1,2.07,4.35,4.35,0,0,1-1.38,1.16,3.07,3.07,0,0,1-1.26.35,2,2,0,0,1-1.39-.46,2.93,2.93,0,0,1-.82-1.31,7.13,7.13,0,0,1-.33-1.86,10.17,10.17,0,0,1,.1-2.07,8.88,8.88,0,0,1,3.28-5.89,11.85,11.85,0,0,1,7-2.33,9.73,9.73,0,0,1,4.68.69,5.94,5.94,0,0,1,2.6,2.31,7.59,7.59,0,0,1,1,3.36,17,17,0,0,1-.15,3.8A19.53,19.53,0,0,1,655,632a32,32,0,0,1-3.56,5.3,43.31,43.31,0,0,1-4.29,4.48q-2.27,2-4.31,3.93a34.68,34.68,0,0,0-3.55,3.8,10.35,10.35,0,0,0-2,4A6.17,6.17,0,0,1,639,653.23Z" transform="translate(-12.83 -63.94)"/>
      <path class="cls-4" d="M679.37,611.8l-3.51,23.12c1.62-.31,2.42-0.47,4-0.81l-0.62,3.42c-1.58.33-2.37,0.49-3.94,0.79L672.79,655c-2.1.4-3.15,0.58-5.24,0.93l2.54-16.72c-5,.82-7.49,1.15-12.44,1.68a19.43,19.43,0,0,1,1.68-4.41q1.17-2.26,2.42-4.7t2.36-5.1a24.12,24.12,0,0,0,1.58-5.71q0.13-.86.21-1.89t0.11-2q0-.94,0-1.78a7.84,7.84,0,0,0-.15-1.31,3,3,0,0,1,3.27,1.66,8.87,8.87,0,0,1,.44,5.29,17.59,17.59,0,0,1-1.34,4.65,39.36,39.36,0,0,1-2.13,4.05q-1.17,2-2.34,3.76a25.28,25.28,0,0,0-2,3.67c3.52-.43,5.28-0.65,8.83-1.26L674,613.63C676.12,612.88,677.21,612.52,679.37,611.8Z" transform="translate(-12.83 -63.94)"/>
    </g>
    <path class="cls-11" d="M523.16,655c106.05,34.88,193.5,2.29,216.77-8l6.08,3.6s-98.72,51.63-222.85,10.8-233.23-11.19-233.23-11.19v-6.41C289.93,643.79,399,614.22,523.16,655Z" transform="translate(-12.83 -63.94)"/>
  </g>
</svg>
