<?xml version="1.0" encoding="UTF-8"?>
<svg id="Laag_1" data-name="Laag 1" xmlns="http://www.w3.org/2000/svg" xmlns:serif="http://www.serif.com/" version="1.1" viewBox="0 0 612 792">
  <defs>
    <style>
      .cls-1 {
        fill: none;
      }

      .cls-1, .cls-2, .cls-3, .cls-4, .cls-5, .cls-6, .cls-7, .cls-8, .cls-9, .cls-10, .cls-11 {
        stroke-width: 0px;
      }

      .cls-2 {
        fill: #e84c3d;
      }

      .cls-3 {
        fill: #3b97d3;
      }

      .cls-4 {
        fill: #2b81ba;
      }

      .cls-5 {
        fill: #ecf0f1;
      }

      .cls-6 {
        fill: #2d3e50;
      }

      .cls-7 {
        fill: #c38210;
      }

      .cls-8 {
        fill: #bec4c8;
      }

      .cls-9 {
        fill: #c03a2b;
      }

      .cls-10 {
        fill: #fff;
      }

      .cls-11 {
        fill: #f1c411;
      }
    </style>
  </defs>
  <path class="cls-1" d="M479.8,507.2c1.7-.3,3.5-.8,5.1-1.6,1.7-.8,3-1.9,4.2-3.3,1.1-1.5,1.9-3.2,2.4-5.3.5-2.1.5-4.6.1-7.4-.4-2.1-.7-4.1-1.2-6-.5-2-1.1-4.3-1.8-7-.7-2.7-1.6-6-2.7-10-.4-1.3-.7-2.8-1.1-4.4-.7,3.6-1.4,7.1-2.3,10.6-1.2,4.9-2.8,9.8-4.4,14.9.2.5.4,1.1.5,1.8,0,.1,0,.3.1.4.7.4,1.4.8,2,1.3.9.8,1.5,2,1.7,3.3.3,2,0,3.9-1.1,5.8-1,1.9-2.6,3-4.9,3.4-.9.1-1.7.1-2.6,0s-1.6-.6-2.2-1.4c.2,1.4.6,2.7.9,3.8,1.8,1.3,4.3,1.6,7.3,1.1Z"/>
  <path class="cls-1" d="M393.6,355.2c-2.1.4-3.9,1.7-5.6,4s-3,5.2-4.3,8.7c-1.2,3.5-2.2,7.3-3,11.4-.4,2-.7,3.8-.9,5.7,1.5-.7,3-1.5,4.4-2.6,2.6-2,4.9-4.4,6.7-7.1,1.8-2.8,3.1-5.8,3.9-9.1.8-3.3.9-6.7.4-10-.1-.4-.1-.7-.2-.9-.5-.1-.9-.1-1.4-.1Z"/>
  <path class="cls-1" d="M105.3,404.6l1.7-37.2c-3,3.3-5.9,7.7-8.6,13.2-3.3,6.6-6.2,13.8-8.9,21.8,1.8.1,3.6.3,5.4.4,3.6.4,7.1,1,10.4,1.8Z"/>
  <path class="cls-1" d="M440.2,455.7c-2.1.4-3.9,1.7-5.6,3.9-1.7,2.2-3.1,5.1-4.4,8.5-1.2,3.4-2.2,7.2-2.9,11.3-.4,2-.7,4-.9,5.9,1.6-.7,3-1.6,4.5-2.7,2.6-2,4.9-4.4,6.7-7.1,1.8-2.8,3-5.8,3.8-9.1.7-3.3.9-6.6.3-9.9-.1-.4-.1-.7-.2-.9-.3,0-.8,0-1.3.1Z"/>
  <path class="cls-11" d="M138.3,327.2l5.6-.9c31.5-54.3,90.3-91,157.4-91s102.7,23.7,136,61.3c-33.4-40.2-83.7-66-139.7-66s-124.7,34.8-157.1,90.8h-.1c0,.1-12,2-12,2h-.1l4.4,4.6,5.6-.8Z"/>
  <path class="cls-11" d="M146.5,512.6c-4-6.5-7.5-13.1-10.7-20l-3.5-5.4v.2c4.2,8.8,9,17.3,14.2,25.2Z"/>
  <path class="cls-11" d="M436.7,542.7c-1.6,1.7-3,3.1-4.3,4.4-36,36-84,55.9-134.9,55.9s-98.9-19.9-134.9-56c-3.8-3.8-7.5-7.8-10.9-11.9,4.6,5.8,9.6,11.4,14.9,16.7,36,36,83.8,55.8,134.7,55.8s98.7-19.7,134.7-55.8c1.5-1.5,2.8-2.9,4.2-4.4l-2.7-5.6-.8.9Z"/>
  <path class="cls-11" d="M459.6,311.1c18.2,29.1,28.3,62.7,28.8,97.8v.3l-3.8.6-5.7.9,4.1,4.6,8.7-1.3c-.6-37.2-11.7-72.7-32.1-102.9Z"/>
  <path class="cls-11" d="M55.2,491.9h0q0,.1,0,0Z"/>
  <path class="cls-11" d="M124.6,344.2h0,0Z"/>
  <path class="cls-11" d="M107,367.4l.4-8.8c-4.5,3.4-8.7,9.1-12.6,17s-7.4,16.8-10.5,26.7c1.7.1,3.5.1,5.2.2,2.7-8,5.7-15.3,8.9-21.8,2.8-5.7,5.7-10,8.6-13.3Z"/>
  <path class="cls-11" d="M52.9,417.1c-3,1.8-4.9,4.2-5.6,7.2.4-.1,1,.4,1.7,1.4s1.1,2.1,1.3,3.3c.3,2-.3,3.6-2,5.1-1.6,1.5-3.7,2.4-6.2,2.8-2.1.4-4.1.2-5.9-.4l-.2,2.5c.6.7,1.3,1.3,2.1,1.7,2.2,1.2,4.8,1.7,7.6,1.2,2.5-.4,4.6-1.4,6.2-2.8,1.6-1.5,2.2-3.1,2-5.1-.2-1.2-.7-2.3-1.3-3.3-.7-1-1.2-1.5-1.7-1.4.7-3,2.5-5.4,5.6-7.2,1.7-1,3.8-1.9,6.2-2.8.8-2.2,1.6-4.5,2.5-6.8-5.1,1.3-9.1,2.8-12.3,4.6Z"/>
  <path class="cls-11" d="M135.3,350s-.1,0,0,0l-3.6-5.1-5.8,124.9-23.6,3.9,3.6,5.1,23.6-3.9,5.8-124.9Z"/>
  <path class="cls-11" d="M93,409.9c-3.6-.3-7.2-.3-10.9-.1-2,7.2-3.7,14.5-5.1,22-1.5,7.5-2.6,14.6-3.3,21.5-.8,6.9-1.2,13.3-1.4,19.2,0,5.9,0,10.9.8,15.1.5,3.2,1.2,5.4,1.9,6.6s1.4,2.2,2.1,2.8c-2.2.4-4.6.7-7.2.9-2.6.2-5.1-.1-7.5-.8-2.4-.7-4.5-2.2-6.4-4.3-.2-.3-.4-.5-.7-.8l3.5,4.9c0,.1.2.3.3.4v.2c.2.1.3.4.5.5,1.9,2.1,4,3.6,6.4,4.3s4.9,1,7.5.8,5-.5,7.2-.9c-.7-.7-1.4-1.6-2.1-2.8-.7-1.2-1.3-3.4-1.9-6.6-.7-4.1-.9-9.2-.8-15.1s.6-12.3,1.4-19.2c.8-6.9,1.9-14.1,3.3-21.5,1.5-7.5,3.2-14.8,5.1-22,3.7-.3,7.3-.2,10.9.1,2.5.2,5.3.7,8.3,1.3l.2-4.1c-4.5-1.4-8.5-2.1-12.1-2.4Z"/>
  <path class="cls-11" d="M164.8,388.3c-2.5.4-4.6.9-6.3,1.5s-2.5,1.5-2.2,2.7c.1.2.1.4.3.4s.4.1.7.2.6.4.8.7c.2.4.4,1,.6,2,.5,3-.1,5.4-1.7,7.1-1.7,1.7-3.6,2.7-5.7,3-1.9.3-3.7,0-5.4-.9-.7-.4-1.3-.9-1.8-1.5l3.5,4.9c.5.7,1.2,1.2,1.9,1.6,1.8.9,3.6,1.2,5.4.9,2.2-.4,4.1-1.4,5.7-3s2.2-4.1,1.7-7.1c-.1-1-.4-1.7-.6-2s-.5-.6-.8-.7-.5-.2-.7-.2-.3-.1-.3-.4c-.2-1.2.6-2.1,2.2-2.7,1.7-.6,3.8-1.1,6.3-1.5l3.3-.6,2.2-6-9.1,1.6Z"/>
  <path class="cls-11" d="M204.5,444.9c-.5,2.2-1.5,4.4-3,6.4s-3.3,3.8-5.6,5.3c-2.2,1.5-5,2.5-8.2,3l-43.4,7.2,3.6,5.1,43.4-7.2c3.2-.5,5.9-1.5,8.2-3,2.2-1.5,4.1-3.3,5.6-5.3s2.5-4.1,3-6.4c.5-2.2.7-4.3.4-6.1-.2-1.5-.8-2.8-1.5-4v-.2c-.1,0-.2-.1-.2-.1l-3.5-4.9c.8,1.2,1.3,2.5,1.6,4.1.2,1.9.1,3.9-.4,6.1Z"/>
  <path class="cls-11" d="M177.9,448.9l26.7-70.6-3.6-5.1-28.7,76c1.3,0,3.2-.2,5.6-.3Z"/>
  <path class="cls-11" d="M203,434.4s0,.1,0,0h0Z"/>
  <path class="cls-11" d="M201.4,432.9s.1,0,0,0Z"/>
  <path class="cls-11" d="M321.1,379.2c1.9-2.3,3.6-4.3,5.3-5.7,1.7-1.5,3.6-2.5,5.6-2.8.2,0,.4-.1.5-.1-.1-.1-.1-.2-.2-.4-.5-1.2-1-2.3-1.5-3.4-.4-1-1.3-1.5-2.5-1.3-2.1.4-3.9,1.3-5.6,2.8s-3.4,3.4-5.3,5.7l-2.8,64.5-23.6,3.9.4-9.5c-1.5,2.3-3,4.3-4.6,5.9-2.7,2.6-5.4,4.5-8,5.7-2.8,1.2-5.2,1.9-7.4,2.2-4.7.8-8.6.1-11.9-2.1-.6-.4-1.2-.9-1.7-1.4,1.4,2.8,3.1,4.9,5.3,6.5,3.2,2.2,7.2,2.8,11.9,2.1,2.2-.4,4.6-1.1,7.4-2.2,2.8-1.2,5.4-3,8-5.7.3-.3.7-.7.9-1l3.3,4.6,21.6-3.6c.6-1.7,1.3-3.3,2.2-5l2.7-59.7Z"/>
  <path class="cls-11" d="M233.3,429.9c.3,1.9.9,3.4,1.9,4.6.5.7,1.2,1.1,2,1.3-.1-.3-.1-.5-.1-.8-.2-1.5-.3-3-.3-4.6l2.6-57.7-3.6-5.1-2.6,57.7c-.2,1.6,0,3.1.1,4.6Z"/>
  <path class="cls-11" d="M273.8,423.8c.4,2.3,1.2,3.8,2.4,4.5.4.2.7.4,1.2.4-.2-1.6-.3-3.3-.2-5.2l2.6-57.7-3.6-5.1-2.6,57.7c-.2,2,0,3.8.2,5.4Z"/>
  <path class="cls-11" d="M349.4,364.8c-.3,1.5-.8,2.9-1.6,4.2-.8,1.3-1.9,2.5-3.3,3.4s-3,1.6-5,1.9c-1.8.3-3.2.1-4.2-.4.2.4.4.9.6,1.3.5,1.2,1.3,2.3,2.3,3.3s2.7,1.2,4.9.9c2-.3,3.6-.9,5-1.9,1.4-.9,2.5-2.1,3.3-3.4s1.3-2.7,1.6-4.2c.3-1.5.3-3,0-4.4-.5-3.2-2-5.9-4.3-8l-.2-.2c.4,1,.7,2,.9,3.2.3,1.3.2,2.8,0,4.3Z"/>
  <path class="cls-11" d="M322,359.4v-.5l-3.6-5.1-.6,10.7c1.4-1.9,2.8-3.5,4.2-5.1Z"/>
  <path class="cls-11" d="M247.6,443.1c-1.8,2.4-3.6,4.3-5.5,5.7-1.9,1.5-3.8,2.5-5.7,3.2s-3.7,1.2-5.5,1.5c-4.9.8-9.4-.1-13.3-2.6-.6-.4-1.2-.8-1.7-1.3,1.3,2.8,3,4.9,5.3,6.4,3.9,2.5,8.3,3.4,13.3,2.6,1.7-.3,3.6-.8,5.5-1.5s3.8-1.8,5.7-3.2c1.9-1.5,3.8-3.3,5.5-5.7,1.5-2,3-4.5,4.3-7.5-1.2-1.8-2.2-4.1-2.9-6.7-1.6,3.6-3.2,6.7-5,9.1Z"/>
  <path class="cls-11" d="M338.2,432.2c-2.5,1.5-4.4,3.7-5.9,6.5s-2.5,6.3-2.9,10.6c-.4,4.3-.1,9.6.9,15.7.4,2.2.7,4,1.2,5.4.4,1.4.8,2.5,1.2,3.4s.7,1.6,1.1,2.1.7.9,1,1.4c-5.9.9-10.4.5-13.7-1.5-1.5-.9-2.8-2.2-3.8-4h0c0,.1,4.3,6.1,4.3,6.1.9,1.2,1.9,2.2,3.1,2.9,3.3,2,7.8,2.4,13.7,1.5-.3-.4-.7-.9-1-1.4-.4-.5-.7-1.2-1.1-2.1s-.7-2-1.2-3.4c-.4-1.4-.8-3.2-1.2-5.4-1-6.2-1.3-11.5-.9-15.7.4-4.3,1.4-7.8,2.9-10.6,1.5-2.8,3.5-4.9,5.9-6.5,1.3-.8,2.7-1.5,4.1-2l.3-6.2c-2.9.6-5.5,1.7-8,3.2Z"/>
  <path class="cls-11" d="M404,384.8c3-3.6,5.1-7.5,6.6-11.9,1.4-4.4,1.7-8.8.9-13.6-.4-2.1-.9-4-1.7-5.8-.2-.5-.5-1-.9-1.5l-.7,4.1h-.1c.4,4.1,0,7.9-1.2,11.7-1.4,4.4-3.6,8.3-6.6,11.9s-6.6,6.7-10.8,9.2c-4.2,2.5-8.8,4.4-13.6,5.5.1.9.1,1.7.1,2.6.1.8.2,1.7.4,2.5.3,1.7.7,3.3,1.2,4.8s1.3,2.9,2.2,4.1c.4.6,1,1,1.5,1.5-.1-.1-.1-.3-.2-.5-.5-1.5-.9-3.1-1.2-4.8-.1-.9-.3-1.7-.4-2.5s-.1-1.7-.1-2.6c4.9-1.2,9.4-3,13.6-5.5,4.4-2.6,7.9-5.6,11-9.2Z"/>
  <path class="cls-11" d="M380.8,379.4c.8-4.1,1.7-8,3-11.4,1.2-3.4,2.7-6.3,4.3-8.7,1.7-2.3,3.5-3.7,5.6-4,.5-.1.9-.1,1.4,0-.4-1.6-.9-2.9-1.5-3.8-.8-1.1-2-1.5-3.5-1.2-2.1.4-3.9,1.7-5.6,4s-3,5.2-4.3,8.7c-1.2,3.5-2.2,7.3-3,11.4s-1.3,8.2-1.5,12.2c1.5-.3,2.9-.7,4.3-1.3.1-2.1.4-4,.8-5.9Z"/>
  <path class="cls-11" d="M367.5,474.7l-3.1,63.9-23.6,3.9,3.6,5.1,23.6-3.9,3.1-63.9,23.9-3.9.7-12.6-3.6-5.1-.7,12.6-23.9,3.9Z"/>
  <path class="cls-11" d="M399.3,420.4c-2.2,2.2-4.8,4.1-7.7,5.3-2.9,1.3-6,2.2-9.4,2.8-4.3.7-8.1.7-11.7,0-.3,0-.6.1-.9,0l-1.5,33.6,3.9-.7,1.2-27.9h.9c3.6.7,7.4.7,11.7,0,3.3-.5,6.4-1.5,9.4-2.8,2.9-1.3,5.5-3,7.7-5.3,2.2-2.2,4-5.1,5.2-8.6,1.3-3.4,2-7.5,2.1-12.4l-1.8-2.4-1.8-2.7c-.1,4.9-.8,9-2.1,12.4-1.3,3.6-3.1,6.5-5.2,8.7Z"/>
  <path class="cls-11" d="M461.2,506.9c-1.9,2.8-4,5.5-6.3,8-3.3,3.5-7,6.5-11.2,8.9-4.2,2.5-9,4.2-14.5,5.1-7.8,1.3-14.4.3-19.7-3-1.2-.7-2.2-1.6-3.2-2.5,1.7,3.4,4.1,5.9,6.8,7.6,5.4,3.3,11.9,4.3,19.7,3,5.4-.9,10.3-2.6,14.5-5.1s7.9-5.4,11.2-8.9c2.2-2.4,4.2-4.9,6-7.5-.7-.9-1.5-1.8-2-2.8s-1-2-1.3-2.8Z"/>
  <path class="cls-11" d="M427.4,479.5c.7-4.1,1.7-7.9,2.9-11.3,1.2-3.4,2.7-6.2,4.4-8.5,1.7-2.2,3.5-3.6,5.6-3.9.5-.1.9-.1,1.4,0-.4-1.6-.9-2.9-1.5-3.8-.8-1.1-2-1.5-3.5-1.2-2.1.4-3.9,1.7-5.6,3.9-1.7,2.2-3.1,5.1-4.4,8.5-1.2,3.4-2.2,7.2-2.9,11.3-.7,4.1-1.2,8.3-1.4,12.5,1.5-.4,2.8-.8,4.1-1.5.3-2.1.6-4.1.9-6Z"/>
  <path class="cls-11" d="M555.2,505.2c-1.4,1.4-2.8,2.4-4.2,3-1.5.6-2.9,1-4.4,1.2-5.8.9-10.3-.1-13.4-3.3h0c1,1.9,2.2,3.6,3.7,5,3.2,3.1,7.6,4.2,13.4,3.3,1.5-.2,2.9-.7,4.4-1.2,1.5-.6,2.9-1.6,4.2-3s2.5-3.3,3.6-5.7c1.1-2.4,1.9-5.4,2.5-9.1l-3.6-5.1c-.7,3.7-1.5,6.7-2.5,9.1-1.1,2.5-2.3,4.4-3.6,5.8Z"/>
  <path class="cls-11" d="M484.7,462.2c-.8-3.2-1.7-6.8-2.7-11-.7,5.7-1.8,11.2-3.3,16.5-1.4,5.4-3,10.9-4.9,16.7,1.2.4,2.2.9,3,1.7.4.4.8.9,1.1,1.6,1.6-5.1,3.1-10.1,4.4-14.9,1.1-3.5,1.8-7,2.4-10.6Z"/>
  <path class="cls-11" d="M526.7,489.7c-1.5,1.9-3,3.6-4.5,5.2-3.8,4-7.4,7.4-10.9,10.2-1.5,2.2-3.1,4-5,5.5s-3.9,2.9-6.1,4.1c-2.2,1.2-4.4,2.2-6.6,2.8-2.2.7-4.4,1.2-6.5,1.6-4.1.7-7.8.7-11,0-3.2-.7-5.9-2-8.3-3.6-.9-.7-1.7-1.3-2.4-2,.2.4.4.7.6,1.1,1.4,2.4,3.2,4.4,5.4,6,2.3,1.7,5.1,2.8,8.3,3.6,3.2.7,6.9.8,11,0,2.1-.4,4.2-.9,6.5-1.6,2.2-.7,4.4-1.7,6.6-2.8,2.2-1.2,4.2-2.5,6.1-4.1,1.9-1.5,3.6-3.4,5-5.5,3.5-2.8,7.1-6.2,10.9-10.2.7-.8,1.5-1.6,2.2-2.5-.4-1.2-.7-2.5-.9-3.9-.2-1.3-.3-2.6-.4-3.9Z"/>
  <path class="cls-11" d="M473.7,503.8c.9.1,1.7.1,2.6,0,2.2-.4,3.8-1.5,4.9-3.4,1-1.9,1.4-3.8,1.1-5.8-.2-1.5-.8-2.5-1.7-3.3-.6-.5-1.2-.9-2-1.3.2,1.8-.1,3.6-1.1,5.4-1,1.9-2.6,3-4.9,3.4-.9.1-1.7.1-2.6,0s-1.6-.6-2.2-1.4c.7,3.8,1.9,6.6,3.7,8.2.3.2.6.4.9.7-.4-1.1-.7-2.4-.9-3.8.6.7,1.3,1.2,2.2,1.3Z"/>
  <path class="cls-11" d="M553.3,412.5c0,3.3-.3,6.8-.4,10.7l3.8-.7c0-1.7,0-3.4.2-5,0-3.3.3-6.1.4-8.5,0-2.8.2-5.4.4-7.7l-3.6-5.1c-.2,2.2-.3,4.9-.4,7.7-.1,2.5-.3,5.3-.4,8.6Z"/>
  <path class="cls-11" d="M511.2,467.7c1,4.1,1.8,7.3,2.5,9.9.7,2.5,1.2,5.1,1.7,7.9.4,2.4.5,4.5.4,6.3,1-.9,2-1.7,3-2.6-.4-2.2-.9-4.5-1.4-6.6-.7-2.5-1.5-5.8-2.5-9.9s-2.2-9.3-3.8-15.8c-1.5-6.5-3.4-15-5.6-25.5l-3.6-5.1c2.2,10.5,4.1,19.1,5.6,25.5,1.5,6.6,2.7,11.9,3.7,15.9Z"/>
  <path class="cls-11" d="M453.6,468.2c-1.4,4.4-3.6,8.3-6.6,12-3,3.6-6.6,6.7-10.8,9.2-4.2,2.5-8.8,4.4-13.6,5.5.1,1.2.2,2.4.3,3.5.1,1.1.3,2.2.4,3.1.9,5.6,2.5,9.1,4.8,10.6q.1,0,.3,0c-.6-1.6-1-3.4-1.4-5.7-.1-1-.3-2-.4-3.1s-.2-2.2-.3-3.5c4.9-1.2,9.4-3,13.6-5.5s7.8-5.6,10.8-9.2,5.1-7.5,6.6-12c1.4-4.4,1.7-8.8.9-13.5-.4-2.1-.9-4-1.7-5.8-.7-1.7-1.9-3-3.3-4.3.7,1.5,1.1,3.2,1.4,4.9.6,4.8.3,9.3-1,13.7Z"/>
  <path class="cls-11" d="M523.6,434.7l3.6,5.1,1.5-.3.3-5.7-5.4.9Z"/>
  <path class="cls-11" d="M556.3,435l9.9-1.6.2-6.7-3.6-5.1-.2,6.7-9.9,1.6-2.4,50.9c-.2,2.2,0,4.2,0,5.9.3,1.7.9,3.1,2,4.1.4.4,1,.7,1.7.9-.2-1.6-.3-3.6,0-5.7l2.3-51Z"/>
  <path class="cls-11" d="M406.4,349.4c.9.8,1.8,1.7,2.5,2.7l-4.2-5.9c.6.7,1.1,1.5,1.5,2.4.1.2.2.5.2.8Z"/>
  <path class="cls-11" d="M406.4,349.4c.7,1.5,1.1,3.2,1.4,4.9.1.7.2,1.2.2,1.9h.1l.7-4.1c-.6-1.1-1.4-1.9-2.4-2.7Z"/>
  <path class="cls-5" d="M488.4,408.9c-.6-35.1-10.6-68.7-28.8-97.8-7.6-12.2-16.7-23.6-27-34-36-36-84-55.9-134.9-55.9s-98.9,19.9-134.9,55.9-24.9,28.9-33.9,45.7l-.3.6h0c0,.1,12-1.8,12-1.8h.1c32.4-56.1,92.7-90.9,157.1-90.9s106.3,25.7,139.7,66c25.7,31,41.3,70.6,41.8,113.7v.4l5.7-.9,3.8-.6-.4-.4Z"/>
  <path class="cls-5" d="M132.3,487.1h0Z"/>
  <path class="cls-5" d="M437.5,541.9l-15.9,2.5h-.1c-33.8,31.7-77.8,49.2-123.9,49.2s-117.6-31-151-80.9c-5.3-8-10.1-16.4-14.1-25.2v-.2c-.1,0-.1-.1-.1-.1l-9.7,1.5.2.4c7.4,16.7,17,32.1,28.9,46.1,3.5,4.1,7.1,8,10.9,11.9,36,36,84,55.9,134.9,55.9s98.9-19.9,134.9-55.9,2.6-2.7,4.3-4.4l.7-.8Z"/>
  <path class="cls-11" d="M32.2,433.4l3.6,5c-.6-.8-.9-1.7-1.3-2.8-.9-.6-1.7-1.3-2.3-2.2Z"/>
  <path class="cls-5" d="M36.2,439c0-.1-.1-.1,0,0Z"/>
  <path class="cls-11" d="M34.7,435.7c0,0,0-.1,0-.1.3,1.1.7,2,1.3,2.8l.4.6.2-2.5c-.7-.3-1.3-.5-1.8-.8Z"/>
  <path class="cls-11" d="M450.4,454.5l5.2-2-4-5.6h-1.2v7.6Z"/>
  <path class="cls-11" d="M481.3,492l-4.1.8v-4.5l.9-.6,3.2,4.3Z"/>
  <path class="cls-11" d="M407.9,526.1l-4-5.7-2.3-4.6h12l-5.7,10.3Z"/>
  <path class="cls-11" d="M344.3,358l3.6,1.1,3.1,1.2-3.9-5.5-2.8,3.2Z"/>
  <path class="cls-11" d="M538.8,509.6l-3.8-.4-4.4-6.1,5,1.7,3.2,4.8Z"/>
  <path class="cls-5" d="M124.8,344.2l6.9.7c-2.1-.5-4.4-.8-6.9-.7Z"/>
  <path class="cls-5" d="M202.2,433.5c-.2-.2-.4-.4-.7-.5l1.5,1.5c-.3-.4-.5-.7-.8-1Z"/>
  <path class="cls-5" d="M295.1,438.1c-.4.5-.7,1-1,1.5h.9v-1.5Z"/>
  <path class="cls-5" d="M332.5,370.6c.5,1,1.2,2,2.1,2.8.2.2.4.4.7.5-.3-.7-.7-1.4-.9-2-.3-.8-1-1.3-1.9-1.3Z"/>
  <g>
    <path class="cls-5" d="M124.7,344.2h0c-2.4.1-4.4.2-5.9.5-4.9.8-9.7,2.9-14.3,6.3-4.6,3.4-9,7.7-13.2,12.9-4.2,5.2-8.1,11.2-11.8,17.8-3.7,6.6-7,13.5-10.2,20.7-3.6.2-6.5.6-8.9.9-4.7.8-9,2-12.8,3.7s-7.1,3.8-9.8,6.1c-2.6,2.3-4.6,4.9-5.9,7.6-1.3,2.8-1.7,5.5-1.2,8.2.3,1.7.9,3.2,1.7,4.4.6.9,1.4,1.6,2.3,2.2,0,0,0,.1,0,.1.6.3,1.2.6,1.7.8,1.8.6,3.7.7,5.9.4,2.5-.4,4.6-1.4,6.2-2.8,1.6-1.5,2.2-3.1,2-5.1-.2-1.2-.7-2.3-1.3-3.3-.7-1-1.2-1.5-1.7-1.4.7-3,2.5-5.4,5.6-7.2,3-1.8,7.2-3.3,12.3-4.4-.9,2.2-1.7,4.5-2.5,6.8-1.6,4.6-3,9.2-4.3,13.8-1.9,6.9-3.4,13.4-4.6,19.7s-1.9,11.9-2.2,17.1,0,9.7.4,13.4c.6,3.6,1.6,6.5,3,8.6,0,.1,0,.1,0,.1h0c.2.4.4.7.7.9,1.9,2.1,4,3.6,6.4,4.3,2.4.7,4.9,1,7.5.8s5-.5,7.2-.9c-.7-.7-1.4-1.6-2.1-2.8-.7-1.2-1.3-3.4-1.9-6.6-.7-4.1-.9-9.2-.8-15.1s.6-12.3,1.4-19.2c.8-6.9,1.9-14.1,3.3-21.5,1.5-7.5,3.2-14.8,5.1-22,3.7-.3,7.3-.2,10.9.1,3.6.3,7.6,1,12.1,2.2l-.2,4.1-2.6,57.4,23.6-3.9,5.8-124.9-7-.8ZM84.3,402.2c3-9.9,6.6-18.8,10.5-26.7,3.9-7.9,8.1-13.5,12.6-17l-.4,8.8-1.7,37.2c-3.4-.8-6.9-1.4-10.4-1.7-1.8-.2-3.6-.4-5.4-.4-1.7-.2-3.4-.2-5.2-.2Z"/>
    <path class="cls-5" d="M203.3,434.7v-.2c-.1-.1-.2-.1-.2-.1l-1.5-1.5c-1.3-.9-3-1.2-5.1-.8-3,.5-5.2,1.7-6.5,3.6-1.3,1.8-1.7,3.6-1.5,5.1.1.9.5,1.6,1.1,2.2s1.5.8,2.5.7v.6c-.2,1.1-.9,1.9-2,2.5-1.4.7-3.1,1.2-5.1,1.5-2.2.4-4.5.6-6.9.7h-.1c-2.4.1-4.3.2-5.7.4l28.6-76.1-42.1,7c-3,.5-5.5,1.5-7.7,3s-3.9,3.2-5.3,5.1c-1.4,1.9-2.3,3.9-2.9,6-.6,2.1-.7,4-.4,5.7.2,1.5.7,2.6,1.5,3.6.5.6,1.1,1.1,1.8,1.5,1.8.9,3.6,1.2,5.4.9,2.2-.4,4.1-1.4,5.7-3s2.2-4.1,1.7-7.1c-.1-1-.4-1.7-.6-2-.2-.4-.5-.6-.8-.7s-.5-.2-.7-.2-.3-.1-.3-.4c-.2-1.2.6-2.1,2.2-2.7,1.7-.6,3.8-1.1,6.3-1.5l9.2-1.5-2.2,6-27.5,74,43.4-7.2c3.2-.5,5.9-1.5,8.2-3,2.2-1.5,4.1-3.3,5.6-5.3s2.5-4.1,3-6.4c.5-2.2.7-4.3.4-6.1-.2-1.8-.8-3.1-1.5-4.3Z"/>
    <path class="cls-5" d="M349.4,360.5c-.2-1.2-.5-2.2-.9-3.2-.7-1.8-1.9-3.5-3.4-4.9-2.3-2.2-5.4-3-9.1-2.4-3.3.5-6.5,2.2-9.6,4.9-1.5,1.4-3,2.8-4.4,4.4-1.5,1.6-2.8,3.3-4.2,5.1l.6-10.7-23.6,3.9-2.5,54.6c-.5,4.3-1.7,8-3.4,11.1-1.8,3.1-4.3,4.9-7.5,5.4-1.7.3-3,.3-4.1,0-.4-.1-.8-.3-1.2-.4-1.2-.7-2-2.2-2.4-4.5-.3-1.7-.4-3.4-.2-5.4l2.6-57.7-23.6,3.9-2.5,54.5c-.5,4.4-1.7,8-3.4,11.2s-4.2,4.9-7.3,5.4c-.9.1-1.6.1-2.2-.1-.8-.2-1.5-.7-2-1.3-.9-1.2-1.5-2.8-1.9-4.6-.2-1.5-.3-3-.3-4.6l2.6-57.7-23.6,3.9-2.5,54.5c-.2,4.3-.1,7.9.4,10.9.9,5.9,3,10.2,5.9,12.8.5.5,1.1.9,1.7,1.3,3.9,2.5,8.3,3.4,13.3,2.6,1.7-.3,3.6-.8,5.5-1.5s3.8-1.8,5.7-3.2c1.9-1.5,3.8-3.3,5.5-5.7,1.8-2.4,3.5-5.4,5-9.1.7,2.6,1.7,4.9,2.9,6.7.7,1,1.5,2,2.3,2.8s1.1.9,1.7,1.4c3.2,2.2,7.2,2.8,11.9,2.1,2.2-.4,4.6-1.1,7.4-2.2s5.4-3,8-5.7c1.6-1.6,3.2-3.6,4.6-5.9l-.4,9.5,23.6-3.9,2.8-64.5c1.9-2.3,3.6-4.3,5.3-5.7,1.7-1.5,3.6-2.5,5.6-2.8,1.2-.2,2,.2,2.5,1.3.4,1,.9,2.2,1.5,3.4.1.1.1.3.2.4.9,0,1.6.4,2,1.3.3.7.6,1.4.9,2,1,.5,2.4.7,4.2.4,2-.3,3.6-.9,5-1.9,1.4-.9,2.5-2.1,3.3-3.4s1.3-2.7,1.6-4.2c.3-1.7.4-3.2.1-4.5Z"/>
  </g>
  <path class="cls-5" d="M400.3,379.8c3-3.6,5.1-7.5,6.6-11.9,1.2-3.8,1.6-7.6,1.2-11.7-.1-.7-.1-1.2-.2-1.9-.3-1.7-.7-3.4-1.4-4.9-.1-.3-.2-.6-.4-.8-.4-.9-.9-1.7-1.5-2.4-.6-.8-1.3-1.5-2.2-2.2-1.6-1.2-3.7-2.1-6.2-2.6s-5.5-.4-9.1.1c-5.6.9-10.4,2.8-14.4,5.4-4.1,2.7-7.5,5.9-10.2,9.8-2.8,3.8-4.9,8-6.5,12.5s-2.8,9-3.4,13.5c-.7,4.5-1,8.8-.9,13,0,4.1.3,7.8.8,11,.4,2.8,1.1,5.3,1.9,7.5-6.3,1.5-11.8,3.6-16.5,6.2-6.3,3.6-11.4,7.6-15.1,12.3-1.7,2.1-3.1,4.3-4.3,6.5-.9,1.6-1.6,3.3-2.2,5-.4,1.2-.8,2.4-1.1,3.6-1.3,5.4-1.5,10.7-.6,16,.6,3.4,1.5,6.1,2.7,8.3,1,1.8,2.2,3.1,3.8,4,3.3,2,7.8,2.4,13.7,1.5-.3-.4-.7-.9-1-1.4s-.7-1.2-1.1-2.1-.7-2-1.2-3.4c-.4-1.4-.8-3.2-1.2-5.4-1-6.2-1.3-11.5-.9-15.7.4-4.3,1.4-7.8,2.9-10.6,1.5-2.8,3.5-4.9,5.9-6.5,2.5-1.5,5.1-2.6,8-3.2l-.3,6.2-5.4,107.2,23.6-3.9,3.1-63.9,23.9-4,.7-12.5-20.1,3.3-3.9.7,1.5-33.6h.9c3.6.7,7.4.7,11.7,0,3.3-.5,6.4-1.5,9.4-2.8,2.9-1.3,5.5-3,7.7-5.3,2.2-2.2,4-5.1,5.2-8.6,1.3-3.4,2-7.5,2.1-12.4-2.2,2.8-4.9,5.3-8.2,7.6s-6.5,3.8-9.6,4.3c-2,.4-3.8.2-5.2-.3-.7-.3-1.5-.7-2.1-1.2-.6-.4-1.1-.9-1.5-1.5-.9-1.2-1.7-2.5-2.2-4.1-.5-1.5-.9-3.1-1.2-4.8-.1-.9-.3-1.7-.4-2.5s-.1-1.7-.1-2.6c4.9-1.2,9.4-3,13.6-5.5,4.3-2.7,7.9-5.8,10.9-9.3ZM384.3,382.5c-1.4,1.1-2.9,2-4.4,2.6-1.4.6-2.8,1-4.3,1.3.2-4,.7-8,1.5-12.2.8-4.1,1.7-8,3-11.4,1.2-3.4,2.7-6.3,4.3-8.7,1.7-2.3,3.5-3.7,5.6-4,1.5-.2,2.7.1,3.5,1.2.7.9,1.2,2.2,1.5,3.8.1.3.1.7.2.9.6,3.4.4,6.7-.4,10s-2.1,6.4-3.9,9.1c-1.7,3-4,5.4-6.6,7.4Z"/>
  <path class="cls-5" d="M552.7,429.9l9.9-1.6.2-6.7-6,1-3.8.7c0-3.8.3-7.4.4-10.7s.3-6.1.4-8.5c0-2.8.2-5.4.4-7.7l-23.7,7.3-1.2,23.4-5.4.9-.2,6.7,5.4-.9-.3,5.7-2,42h-.7c-2,2.6-4.5,5.1-7.5,7.6-.9.9-2,1.7-3,2.6,0-1.8,0-3.9-.4-6.3-.4-2.8-1-5.4-1.7-7.9s-1.5-5.8-2.5-9.9-2.2-9.3-3.8-15.8c-1.5-6.5-3.4-15-5.6-25.5l-23.7,7.3c-1.2,8.5-2.7,17-4.5,25.6s-4.4,17.3-7.6,26.2c-2.1,1.5-3.8,3.7-5.1,6.6-.8,1.8-1.2,3.8-1.3,6-.4.4-.7.9-1,1.4-1.7,2.4-3.6,4.5-5.7,6.3-2,1.9-4.4,3.4-6.8,4.7-2.5,1.3-5.4,2.2-8.6,2.8-3.8.7-6.8.3-9.1-1.1q-.1,0-.3,0c-2.2-1.5-3.8-5-4.8-10.6-.1-1-.3-2-.4-3.1s-.2-2.2-.3-3.5c4.9-1.2,9.4-3,13.6-5.5s7.8-5.6,10.8-9.2,5.1-7.5,6.6-12c1.4-4.4,1.7-8.8.9-13.5-.3-1.7-.7-3.4-1.4-4.9-.1-.3-.2-.6-.4-.8-.8-1.7-2-3.3-3.6-4.6-1.6-1.2-3.7-2.1-6.2-2.6s-5.5-.4-9.1.1c-5.6.9-10.4,2.8-14.4,5.4-4.1,2.7-7.5,5.9-10.2,9.8-2.8,3.8-4.9,8-6.5,12.5s-2.8,9-3.4,13.5c-.7,4.5-1,8.8-.9,13,0,4.1.3,7.8.8,11,1.2,7.3,3.6,12.7,7.1,16.2s2,1.9,3.2,2.5c5.4,3.3,11.9,4.3,19.7,3,5.4-.9,10.3-2.6,14.5-5.1s7.9-5.4,11.2-8.9c2.3-2.5,4.4-5.1,6.3-8,.4.9.8,1.8,1.3,2.7.6,1,1.2,2,2,2.8.4.4.7.7,1,1.1.7.7,1.5,1.5,2.4,2,2.3,1.7,5.1,2.8,8.3,3.6,3.2.7,6.9.8,11,0,2.1-.4,4.2-.9,6.5-1.6,2.2-.7,4.4-1.7,6.6-2.8,2.2-1.2,4.2-2.5,6.1-4.1,1.9-1.5,3.6-3.4,5-5.5,3.5-2.8,7.1-6.2,10.9-10.2,1.5-1.6,3-3.3,4.5-5.2,0,1.3.2,2.6.4,3.9.2,1.4.5,2.7.9,3.9,1.1,3.4,2.8,6.2,5,8.6h0c3.2,3.2,7.6,4.3,13.4,3.4,1.5-.2,2.9-.7,4.4-1.2,1.5-.6,2.9-1.6,4.2-3s2.5-3.3,3.6-5.7c1.1-2.4,1.9-5.4,2.5-9.1-.7.4-1.3.6-2.2.8-.8.2-1.5.4-2,.4-1.2.2-2.2.2-3.1,0-.7-.1-1.2-.4-1.7-.9-1-.9-1.7-2.3-2-4.1-.3-1.7-.3-3.6,0-5.9l2.7-50.8ZM423.8,474.4c.7-4.1,1.7-7.9,2.9-11.3,1.2-3.4,2.7-6.2,4.4-8.5,1.7-2.2,3.5-3.6,5.6-3.9,1.5-.2,2.7.1,3.5,1.2.7.9,1.2,2.2,1.5,3.8.1.3.1.7.2.9.5,3.3.4,6.5-.3,9.9-.7,3.3-2,6.3-3.8,9.1-1.8,2.8-4,5.1-6.7,7.1-1.5,1.1-2.9,2-4.5,2.7-1.3.6-2.8,1.1-4.1,1.5.1-4.2.6-8.4,1.3-12.5ZM491.6,496.9c-.5,2.1-1.3,3.8-2.4,5.3s-2.5,2.5-4.2,3.3-3.4,1.3-5.1,1.6c-3.1.5-5.5.2-7.3-.9-.3-.2-.6-.4-.9-.7-1.8-1.7-3.1-4.4-3.7-8.2.6.8,1.3,1.3,2.2,1.4.9.1,1.7.1,2.6,0,2.2-.4,3.8-1.5,4.9-3.4.9-1.7,1.3-3.6,1.1-5.4,0-.1,0-.3-.1-.4-.1-.7-.3-1.2-.5-1.8-.3-.6-.7-1.2-1.1-1.6-.9-.8-1.9-1.4-3-1.7,1.9-5.7,3.5-11.2,4.9-16.7,1.4-5.4,2.5-10.9,3.3-16.5,1,4.2,1.9,7.8,2.7,11,.4,1.6.8,3,1.1,4.4,1,4,2,7.3,2.7,10s1.3,5,1.8,7,.9,3.9,1.2,6c.3,2.8.3,5.2-.2,7.3Z"/>
  <g>
    <path class="cls-10" d="M233.8,657.4c.4,0,.9-.2,1.1-.6.3-.5,0-1.1-.4-1.3,0,0,0,0-.1,0h0l-53.2-23.8,51-28c.5-.2.7-.8.5-1.3,0,0,0,0,0-.1-.4-.5-1.1-.7-1.6-.4h0s-52.8,29-52.8,29c-.4.2-.6.5-.5.9,0,.4.3.8.7.9l55,24.7c.2,0,.4.1.5.1Z"/>
    <g id="Laag_3" data-name="Laag 3">
      <path class="cls-5" d="M50.3,624.7l-.8,11.6c0,.7.6,1.4,1.3,1.4,0,0,0,0,0,0,13.6,1.1,121.8,9.2,129.3-5.4l-129.8-7.6Z"/>
      <path class="cls-8" d="M50.3,624.8l.9-11.8c.1-.6.7-1.1,1.3-1.1,12.9.5,122.3,4.9,127.6,20.4l-129.8-7.6Z"/>
      <g>
        <path class="cls-2" d="M55.9,625l-5.6-.4-.9,12c0,.5.4,1,.9,1,0,0,0,0,0,0h0c.9,0,2.5.2,4.5.3l1-12.9Z"/>
        <path class="cls-9" d="M56.8,612.1c-2,0-3.6-.1-4.5-.2-.6,0-1.1.4-1.2.9l-.9,12,5.6.3.9-13Z"/>
      </g>
      <g>
        <path class="cls-7" d="M34.5,623.8c.1,1.8,5.3,4.2,6.7,4.9,1.7.9,5.4,2.8,6.7.5.5-1.5.7-3,.6-4.5l-14.1-.8Z"/>
        <path class="cls-2" d="M34.5,623.8c.1,1.8,5.3,4.2,6.7,4.9,1.7.9,5.4,2.8,6.7.5.5-1.5.7-3,.6-4.5l-14.1-.8Z"/>
        <path class="cls-9" d="M34.5,623.9c.4-1.8,5.9-3.5,7.4-4.1,1.8-.7,5.8-2.1,6.7.3.3,1.5.3,3.1,0,4.6l-14.1-.8Z"/>
      </g>
      <path class="cls-6" d="M107.7,618.8c5.8.3,10.2,4.8,9.8,9.9s-5.4,9-11.2,8.7c-5.8-.3-10.2-4.8-9.8-9.9.4-5.1,5.4-9,11.1-8.7h0Z"/>
      <g>
        <path class="cls-2" d="M44.7,628.7l-.2,34.2c0,.8-.7,1.4-1.5,1.4,0,0,0,0,0,0h-2.4c-2.2-.3-3.8-1.9-3.6-3.8v-.2l4.6-31.8c.2-.8.9-1.3,1.7-1.2h0c.8,0,1.5.7,1.5,1.5Z"/>
        <path class="cls-9" d="M45.1,622.1l5-35.2c0-1.1-.8-2.1-1.9-2.2,0,0,0,0,0,0h-3.1c-1.3-.3-2.5.6-2.7,1.9v.2l-.2,35.2,3,.2Z"/>
      </g>
      <path class="cls-2" d="M101.6,559.8c3.5.2,6.2,2.9,6,6h0l-9.3,124c-.2,3.1-3.3,5.5-6.8,5.3h0l-15.4-.9c-3.5-.2-6.2-2.9-6-6h0l9.3-124c.2-3.1,3.3-5.5,6.8-5.3h0l15.4.9Z"/>
      <g>
        <polygon class="cls-2" points="95.4 590.7 97.1 568.8 107.3 569.4 105.7 591.3 95.4 590.7"/>
        <polygon class="cls-2" points="88.3 685.6 90 663.7 100.2 664.3 98.6 686.2 88.3 685.6"/>
      </g>
      <g>
        <path class="cls-9" d="M164.7,603.4c3,.2,5.3,2.5,5.1,5.2h0l-3.5,46.1c-.2,2.7-2.8,4.7-5.8,4.5h0l-11.3-.7c-3-.2-5.3-2.5-5.1-5.2h0l3.5-46.1c.2-2.7,2.8-4.7,5.8-4.5h0l11.3.7Z"/>
        <path class="cls-2" d="M148.2,630.4h0c0,.8,2.7,1.6,6.2,1.8l24,1.4c3.5.2,6.4-.3,6.5-1.1h0c0-.8-2.7-1.6-6.2-1.8l-24-1.4c-3.5-.2-6.4.3-6.5,1.1Z"/>
      </g>
    </g>
    <path class="cls-3" d="M229,600.4v60s80.7-21.9,172.5,8.3c91.8,30.2,164.8-8,164.8-8l-27.1-16,24.5-37.9s-70.2,21.8-127.4,6.5c-41.9-11.3-144.3-46.1-207.3-12.9Z"/>
    <g>
      <path class="cls-10" d="M269.8,603.6c-.1,1-.4,1.9-1,2.7-.4.6-1,1-1.7,1.1-.3,0-.6,0-.8-.1-.2-.1-.4-.3-.6-.6.4-.4.7-.8,1-1.3.3-.6.4-1.1.5-1.7,0-.5,0-.9,0-1.4,0-.4-.2-.9-.5-1.2-.2-.3-.5-.6-.9-.8-.5-.2-1-.2-1.5-.1-.6,0-1.2.3-1.7.7-.5.4-1,.8-1.4,1.3-.4.5-.7,1.1-1,1.8-.3.7-.4,1.3-.5,2-.2,1.1-.1,2.2.3,3.1.4.7,1,1.3,1.8,1.7.8.5,1.6.9,2.5,1.2.9.4,1.7.9,2.4,1.5.8.7,1.3,1.6,1.6,2.6.4,1.5.4,3,.1,4.5-.2,1.5-.7,3-1.4,4.4-.6,1.2-1.4,2.2-2.3,3.1-.9.8-1.8,1.5-2.9,2-1,.5-2.1.8-3.2,1-.9.1-1.8.2-2.7,0-.8,0-1.6-.3-2.3-.7-.7-.4-1.2-1.1-1.4-1.8-.3-1-.4-2-.2-3,.1-.8.3-1.5.6-2.2.3-.8.6-1.5,1-2.2.4-.6.9-1.2,1.5-1.7.5-.5,1.1-.8,1.8-.9.4-.1.9,0,1.3.3.4.5.7,1.1.7,1.8-.5.1-1,.3-1.5.7-.4.3-.7.7-1,1.1-.3.4-.5.8-.6,1.3-.1.4-.2.8-.3,1.2-.1.6,0,1.3.1,1.9.2.5.5.9.9,1.2.4.3.8.5,1.3.6.5,0,1,0,1.4,0,1.2-.2,2.3-.9,3-1.9.9-1.3,1.5-2.8,1.7-4.4.3-1.2.2-2.5-.2-3.7-.3-.8-.9-1.5-1.6-2-.7-.5-1.5-.9-2.3-1.2-.8-.3-1.6-.7-2.3-1.2-.7-.5-1.3-1.2-1.6-2-.4-1.2-.4-2.5-.2-3.8.2-1.3.6-2.6,1.2-3.9.5-1.1,1.2-2.1,2-3,.7-.8,1.6-1.5,2.5-2,.9-.5,1.8-.8,2.8-1,.5,0,1.1,0,1.6,0,.7,0,1.3.2,2,.5.6.3,1.2.9,1.5,1.6.4,1,.5,2,.2,3.1Z"/>
      <path class="cls-10" d="M282.8,612.7c-.3,2-1.3,3.8-2.8,5.1-1.7,1.5-3.8,2.4-6,2.8,0,.9,0,1.8,0,2.7,0,.6.3,1.1.6,1.6.3.4.7.6,1.1.8.5.1.9.2,1.4.2,1.2,0,2.3-.5,3.3-1.2,1.3-.9,2.3-2.2,3-3.6h1.1c-.5,1.1-1,2.1-1.7,3-.7.9-1.4,1.8-2.3,2.6-.8.7-1.7,1.3-2.6,1.8-.8.4-1.8.7-2.7.7-.8,0-1.6,0-2.3-.4-.7-.3-1.4-.8-1.8-1.5-.5-.9-.9-1.9-1-2.9-.2-1.5-.1-3.1.1-4.6.2-1.3.5-2.6.9-3.9.4-1.4,1-2.7,1.7-4,.7-1.2,1.5-2.2,2.5-3.2.9-.8,2.1-1.3,3.4-1.4.6,0,1.1,0,1.6.1.5.1,1,.4,1.4.8.4.5.7,1,.8,1.6.2.9.2,1.9,0,2.8ZM274.2,618.8c3.4-.8,6-3.4,6.4-6.5.2-.8.1-1.6-.1-2.3-.2-.5-.7-.7-1.2-.6-.7,0-1.3.4-1.7.9-.6.7-1.1,1.4-1.5,2.3-.5,1-.8,2-1.1,3-.3,1.1-.5,2.1-.7,3.2Z"/>
      <path class="cls-10" d="M289.3,605.7l-.5,3.3c.5-.6,1.1-1,1.8-1.4.7-.3,1.4-.5,2.2-.5.8,0,1.5.3,2.2.7.7.5,1.2,1.2,1.5,2,.4,1.1.7,2.2.7,3.3,0,1.6,0,3.2-.3,4.7-.5,3.5-1.5,6.3-2.9,8.2-1.4,1.9-3,2.8-4.8,2.8-.7,0-1.3-.2-1.9-.6-.5-.4-.9-.9-1.2-1.5l-1.7,11.3c-1.5.4-2.2.6-3.7,1.1l5.1-33.6c1.4,0,2.1,0,3.5,0ZM291,609.9c-.5,0-1.1.2-1.5.5-.5.4-.9.9-1.3,1.5l-1.9,12.8c.2.5.5.8.9,1.1.3.2.7.3,1.2.4.6,0,1.2-.2,1.6-.7.6-.5,1-1.1,1.4-1.8.5-.9.8-1.8,1.1-2.7.3-1.1.6-2.2.7-3.4.2-1.2.3-2.5.2-3.7,0-.8-.2-1.6-.5-2.4-.2-.5-.5-.9-1-1.3-.3-.2-.7-.4-1.1-.4h0Z"/>
      <path class="cls-10" d="M304.7,601.4l-1,6.5c1.1,0,1.6.1,2.7.2l-.2,1.5c-1.1-.1-1.6-.1-2.7-.2l-2,13.1c0,.3,0,.7-.1,1.2,0,.4,0,.8,0,1.3,0,.4.1.7.3,1,.2.3.5.5.9.5.8,0,1.5-.4,1.9-1,.8-1,1.5-2.1,1.8-3.4h1.3c-.5,1.6-1.1,2.9-1.9,4.2-.5.8-1.1,1.6-1.8,2.2-.4.4-1,.7-1.6.9-.4.1-.9.1-1.3.1-.7,0-1.4-.3-1.9-.7-.5-.4-.8-1-1-1.6-.2-.7-.3-1.3-.3-2,0-.7,0-1.4.2-2.2l2.1-13.9h-1.2c0,0,.2-1.6.2-1.6h1.2c0,0,.9-5.8.9-5.8,1.4-.1,2.1-.2,3.5-.3Z"/>
      <path class="cls-10" d="M318.3,615.1c-.2,1.9-1.2,3.6-2.7,4.7-1.7,1.2-3.8,1.8-5.8,1.8,0,.9,0,1.9,0,2.8,0,.6.3,1.2.6,1.8.2.4.6.8,1.1,1,.4.2.9.4,1.3.4,1.1.1,2.3,0,3.2-.6,1.3-.8,2.2-1.9,2.9-3.2l1.1.2c-.5,1-1,1.9-1.7,2.8-.6.8-1.4,1.6-2.2,2.2-.8.6-1.6,1.1-2.6,1.4-.8.3-1.7.4-2.6.3-.8-.1-1.5-.4-2.2-.8-.7-.5-1.3-1.1-1.7-1.9-.5-1-.8-2.1-.9-3.2-.2-1.6-.1-3.1.2-4.7.2-1.3.5-2.6.9-3.8.4-1.3,1-2.6,1.7-3.8.6-1.1,1.5-2,2.5-2.8.9-.7,2.1-1,3.3-.8.6,0,1.1.2,1.6.5.5.2,1,.6,1.3,1.1.4.5.7,1.2.8,1.8.2.9.1,1.9,0,2.8ZM309.9,619.8c1.5,0,3-.6,4.2-1.6,1.1-1,1.8-2.4,2-3.9.2-.8.1-1.6,0-2.4-.2-.5-.6-.8-1.2-.9-.6,0-1.3.2-1.7.7-.6.6-1.1,1.3-1.5,2.1-.5.9-.8,1.9-1.1,2.9-.3,1-.6,2.1-.7,3.2h0Z"/>
      <path class="cls-10" d="M324.3,610.6l-.4,3c.8-1.3,1.6-2,2.3-2.3.6-.2,1.3-.3,2-.2.5,0,1,.3,1.5.6.4.3.7.6,1,1,.3.4.5.9.6,1.4.1.5.2,1.1.3,1.6.4-.7.8-1.3,1.3-1.8.4-.4.8-.7,1.2-.9.3-.2.7-.3,1.1-.3.3,0,.6,0,.9,0,.9.2,1.7.6,2.3,1.3.5.6.9,1.4,1.1,2.2.2.9.3,1.7.2,2.6,0,.9-.1,1.7-.2,2.6,0,.5-.2,1.1-.3,1.7l-.3,1.9-.4,1.9c-.1.6-.2,1.2-.3,1.8,0,.2,0,.5-.1,1,0,.4,0,.8,0,1.2,0,.4.1.8.3,1.1.1.3.5.6.8.7.6,0,1.2-.2,1.5-.8.7-1,1.2-2.1,1.6-3.3l1.2.3c-.4,1.4-.9,2.7-1.6,4-.4.8-.9,1.5-1.6,2.1-.4.4-.9.6-1.4.7-.4,0-.8,0-1.2,0-.7-.1-1.3-.5-1.7-1-.5-.5-.8-1.1-1-1.7-.2-.7-.4-1.5-.4-2.2,0-.8,0-1.7.2-2.5,0-.3.1-.7.2-1.4l.4-2.2c.1-.8.3-1.5.4-2.2.1-.7.2-1.2.2-1.5.1-.8.2-1.5.2-2.3,0-.5,0-1-.3-1.5-.1-.3-.3-.6-.6-.9-.2-.2-.5-.3-.8-.4-.7-.1-1.4.1-1.9.7-.7,1-1.2,2.2-1.5,3.4l-2.1,13.6c-1.4-.3-2-.4-3.4-.7l2.2-14.2c0-.5.1-1,.2-1.5,0-.5,0-.9,0-1.4,0-.4-.2-.7-.4-1-.2-.3-.6-.5-1-.5-.7-.1-1.5.2-1.8.8-.7,1-1.2,2.2-1.6,3.3l-2.1,13.7c-1.4-.2-2-.3-3.4-.6l3.2-21.3c1.4,0,2.1.2,3.5.4Z"/>
      <path class="cls-10" d="M345.7,606.8c1.4,0,2.1.1,3.5.2l-1.5,10.1c.4-.4,1-.7,1.5-.9.6-.2,1.3-.2,1.9,0,.7.2,1.3.5,1.8.9.7.5,1.2,1.2,1.6,1.9.5,1,.8,2.1,1,3.2.2,1.6.1,3.2-.2,4.7-.2,1.6-.6,3.1-1.2,4.6-.5,1.3-1.1,2.5-2,3.6-.7.9-1.7,1.7-2.7,2.2-1.1.4-2.3.5-3.4.2-1.4-.3-2.6-1.3-3.2-2.6-.4-.8-.6-1.7-.6-2.7,0-1.3,0-2.6.2-3.8l3.3-21.6ZM352.1,627.1c.2-1,.2-2.1.2-3.2,0-.9-.1-1.8-.3-2.7-.2-.7-.4-1.4-.9-2-.3-.5-.8-.8-1.4-1-.4-.1-.9,0-1.3.1-.4.2-.8.5-1.2.8l-1.7,11.2c-.4,2.6,0,4,1.4,4.4.6.2,1.2,0,1.8-.3.6-.4,1.1-1,1.5-1.6.5-.8.9-1.7,1.1-2.5.3-1,.6-2.1.7-3.2h0Z"/>
      <path class="cls-10" d="M368.2,626.6c-.2,1.8-1.2,3.4-2.7,4.4-1.7,1-3.8,1.4-5.7,1,0,1,0,1.9,0,2.9,0,.7.3,1.3.6,1.9.2.5.6.9,1,1.2.4.3.9.5,1.3.6,1.1.3,2.2.2,3.2-.2,1.2-.6,2.2-1.7,2.8-3l1.1.3c-.4,1-1,1.8-1.6,2.7-.6.8-1.4,1.4-2.2,2-.8.5-1.6.9-2.5,1.1-.8.2-1.7.2-2.6,0-1.7-.5-3.1-1.7-3.9-3.4-.5-1.1-.8-2.2-.9-3.4-.1-1.6,0-3.2.2-4.7.2-1.3.5-2.6.9-3.8.4-1.3.9-2.5,1.6-3.6.6-1,1.5-1.8,2.4-2.4,1-.6,2.1-.7,3.2-.4.6.2,1.1.4,1.6.7.5.3,1,.7,1.3,1.2.4.6.6,1.3.7,2,.2,1,.2,1.9,0,2.9ZM360,630.3c1.5.2,2.9-.2,4.1-1.1,1.1-.9,1.9-2.2,2-3.7.2-.8.2-1.7,0-2.4-.2-.5-.6-.9-1.1-1.1-.6-.2-1.2,0-1.6.4-.6.5-1.1,1.2-1.4,1.9-.5.9-.8,1.8-1.1,2.8-.3,1-.6,2.1-.7,3.1h0Z"/>
      <path class="cls-10" d="M374.1,622.7l-.5,3.6c.3-.4.7-.8,1-1.2.3-.4.6-.7,1-1,.4-.2.7-.4,1.2-.5.4-.1.9,0,1.3,0,.7.2,1.2.6,1.6,1.2.3.6.4,1.3.3,2,0,.4-.2.7-.3,1-.1.2-.3.4-.5.6-.2.1-.3.2-.5.2-.2,0-.3,0-.5,0-.2,0-.3-.2-.5-.3-.1-.1-.2-.3-.3-.5-.1-.2-.2-.3-.4-.5-.2-.2-.4-.3-.6-.3-.5-.1-1.1,0-1.6.3-.5.3-1,.7-1.5,1.1l-2.4,15.7-3.3-1,3.2-21.3,3.3.9Z"/>
      <path class="cls-10" d="M392.2,650.3l-3.6-1.1,4-26.4-3.7-1.1.4-2.2c.5.1.9.2,1.4.3.6,0,1.2,0,1.7,0,.7,0,1.4-.2,2.1-.4.9-.3,1.7-.6,2.5-1.1l-4.8,31.9Z"/>
      <path class="cls-10" d="M402.5,653.3l-3.6-1.1,4-26.4-3.7-1.1.4-2.2c.5.1.9.2,1.4.3.6,0,1.2,0,1.7,0,.7,0,1.4-.2,2.1-.4.9-.3,1.7-.7,2.5-1.1l-4.8,32Z"/>
      <path class="cls-10" d="M414.2,627.6l-1,6.5,2.6.7-.2,1.5-2.6-.7-2,13c0,.3,0,.7-.1,1.2,0,.4,0,.9,0,1.3,0,.4.1.8.3,1.1.2.3.5.6.8.6.7.1,1.4-.1,1.9-.7.8-.9,1.5-2,1.8-3.2l1.2.3c-.5,1.4-1.1,2.7-1.9,3.9-.5.8-1,1.4-1.7,2-.4.4-1,.6-1.6.7-.4,0-.9,0-1.3-.1-.7-.2-1.4-.6-1.9-1.1-.5-.5-.8-1.1-1-1.8-.2-.7-.3-1.4-.3-2.2,0-.7,0-1.5.2-2.2l2.1-13.9-1.1-.3.2-1.5,1.1.3.9-5.9,3.4.4Z"/>
      <path class="cls-10" d="M422.4,627.6l-1.8,11.8c.4-.6.8-1.1,1.3-1.6.4-.3.8-.6,1.2-.8.4-.1.7-.2,1.1-.2.3,0,.6,0,.9.1.9.2,1.7.6,2.3,1.3.5.6.9,1.4,1.1,2.2.2.9.3,1.8.2,2.6,0,.9-.1,1.8-.3,2.7-.1.9-.3,2.1-.6,3.4s-.5,2.6-.7,3.9c0,.3,0,.6-.1,1,0,.4,0,.8,0,1.2,0,.4.2.7.4,1.1.2.3.5.6.9.6.2,0,.4,0,.6,0,.2,0,.4,0,.5-.2v.3c-.1.6-.3,1.2-.6,1.7-.2.3-.4.6-.7.9-.2.2-.5.3-.8.3-.2,0-.5,0-.7,0-.7-.1-1.2-.5-1.7-1-.5-.5-.8-1.1-1-1.7-.2-.7-.4-1.5-.4-2.2,0-.9,0-1.7.2-2.6,0-.3.1-.7.2-1.4l.4-2.2c.1-.8.3-1.5.4-2.2.1-.7.2-1.2.2-1.5.1-.8.2-1.5.2-2.3,0-.5,0-1-.3-1.5-.1-.3-.3-.6-.6-.9-.2-.2-.5-.3-.8-.4-.7-.2-1.5,0-2,.6-.8.9-1.4,2.1-1.8,3.3l-2.1,13.6-3.4-.9,4.4-29.2,3.5.2Z"/>
      <path class="cls-10" d="M430.9,657.6c0-.3.2-.7.4-1,.2-.3.4-.5.6-.7.2-.2.5-.3.8-.4.3,0,.5,0,.8,0,.8.1,1.4.6,1.7,1.4.3.8.3,1.7.2,2.5-.1.7-.3,1.4-.6,2.1-.3.7-.6,1.4-1,2-.4.6-.8,1.2-1.3,1.7-.4.4-.9.8-1.4,1-.2-.2-.3-.4-.3-.6,0-.2,0-.4,0-.6,0-.3.1-.6.3-.9.1-.3.3-.6.4-.8s.3-.5.4-.8c.1-.2.2-.5.2-.8,0-.3,0-.6,0-1,0-.2-.1-.3-.3-.5-.1-.1-.2-.2-.4-.3-.2,0-.3-.2-.4-.4-.1-.2-.2-.5-.2-.7,0-.5,0-.9.1-1.4Z"/>
      <path class="cls-10" d="M449.3,659.9c1.1.2,2.1.5,3.1.9,1.1.4,2.2.7,3.3.9.5,0,1.1,0,1.6,0,.4,0,.8-.2,1.2-.4.4-.2.7-.5.9-.8.3-.3.6-.8.9-1.2,0,.5.1,1,.2,1.5,0,.5,0,1,0,1.5,0,.6-.3,1.2-.5,1.7-.2.4-.6.8-.9,1-.4.3-.8.4-1.2.5-.5,0-1,0-1.5,0-.7,0-1.4-.3-2.1-.5-.7-.2-1.4-.5-2-.7l-1.8-.7c-.5-.2-1-.4-1.5-.4-.6,0-1.1-.1-1.7,0-.6,0-1.2.3-1.8.5,0-.3-.1-.6-.2-.8,0-.6,0-1.2,0-1.8.2-1.3.6-2.6,1.3-3.7.7-1.1,1.5-2.1,2.3-3.1.9-1,1.8-1.9,2.8-2.9,1-.9,2-2,2.9-3,.9-1.1,1.7-2.3,2.4-3.5.7-1.4,1.2-2.8,1.4-4.4.3-1.3.2-2.7-.2-3.9-.3-1-1.2-1.7-2.3-1.8-.9-.2-1.9,0-2.6.8-.7.7-1.1,1.6-1.2,2.5,0,.6,0,1.1,0,1.7,0,.6.3,1.2.7,1.7-.3.3-.6.6-1,.7-.3.1-.6.1-.9,0-.4,0-.7-.2-1-.5-.3-.3-.5-.7-.6-1.1-.1-.5-.2-1-.2-1.5,0-.5,0-1,0-1.6.2-1.6,1.1-3.1,2.4-4,1.5-.9,3.3-1.2,5-.8,1.2.1,2.4.5,3.4,1.2.8.6,1.4,1.3,1.9,2.2.4.8.7,1.8.7,2.7,0,1,0,1.9-.1,2.9-.2,1.6-.7,3.1-1.5,4.6-.7,1.3-1.6,2.4-2.6,3.5-1,1-2,1.9-3.1,2.8-1.1.8-2.1,1.6-3.1,2.4-.9.7-1.8,1.5-2.6,2.4-.7.8-1.2,1.8-1.5,2.8.4,0,.8,0,1.2,0Z"/>
      <path class="cls-10" d="M476.3,634.5c1.4,0,2.7.5,3.7,1.5,1,1,1.7,2.2,2,3.5.5,1.6.7,3.3.6,4.9,0,1.9-.2,3.8-.5,5.7-.3,2.1-.8,4.1-1.4,6.1-.6,1.9-1.3,3.7-2.3,5.4-.8,1.5-1.9,2.8-3.3,3.8-1.2.9-2.8,1.4-4.3,1.3-1.2,0-2.3-.5-3.2-1.2-1-.8-1.8-1.9-2.2-3.1-.6-1.6-1-3.3-1-5-.1-2.3,0-4.7.4-7,.3-2.3.9-4.5,1.6-6.7.6-1.8,1.4-3.5,2.5-5.1.8-1.3,2-2.4,3.3-3.2,1.2-.7,2.6-1,4.1-.9ZM469.2,650.7c-.2,1.5-.4,3-.5,4.5,0,1.4,0,2.7.1,4.1.1,1.1.4,2.1,1,3,.4.7,1.1,1.2,2,1.2.9,0,1.8-.4,2.4-1.1.8-.9,1.5-2,1.9-3.1.6-1.5,1.1-3,1.5-4.5.4-1.7.8-3.5,1.1-5.4.3-2.1.5-4.1.5-6.2,0-1.3-.1-2.6-.4-3.9-.2-.8-.5-1.5-1.1-2-.4-.4-.9-.6-1.4-.6-.9,0-1.8.4-2.3,1.1-.8.9-1.5,2-2,3.1-.7,1.5-1.2,3-1.6,4.5-.5,1.8-.8,3.5-1.1,5.3h0Z"/>
      <path class="cls-10" d="M487.1,662.6c1.1,0,2.1,0,3.2.3,1.1.2,2.3.3,3.4.2.6,0,1.1-.1,1.6-.3.4-.1.9-.4,1.2-.6.4-.3.7-.6,1-1,.3-.4.6-.9.9-1.4,0,.5.1,1,.2,1.5,0,.5,0,1,0,1.5,0,.6-.3,1.2-.5,1.8-.2.5-.6.9-1,1.2-.4.3-.8.6-1.3.7-.5.2-1,.2-1.5.3-.7,0-1.4,0-2.1,0-.7,0-1.4-.2-2.1-.3l-1.9-.4c-.5-.1-1-.2-1.5-.2-.6,0-1.2.1-1.8.3-.7.2-1.3.5-1.9.9,0-.3-.1-.5-.2-.8,0-.6,0-1.2,0-1.8.2-1.4.7-2.7,1.3-3.8.7-1.2,1.5-2.3,2.4-3.4.9-1.1,1.9-2.2,2.9-3.3,1-1.1,2-2.3,3-3.5.9-1.2,1.8-2.5,2.5-3.9.7-1.4,1.2-3,1.4-4.6.3-1.3.2-2.6-.2-3.8-.4-.9-1.4-1.5-2.4-1.3-1,0-2,.5-2.7,1.2-.7.8-1.1,1.7-1.2,2.7,0,.5,0,1.1,0,1.6,0,.6.3,1.1.7,1.5-.3.4-.6.6-1,.9-.3.2-.6.2-.9.3-.4,0-.7-.1-1-.3-.3-.3-.5-.6-.6-1-.1-.4-.2-.9-.2-1.4,0-.5,0-1,0-1.5.2-1.7,1.1-3.3,2.4-4.4,1.5-1.1,3.3-1.7,5.2-1.7,1.2-.1,2.4,0,3.5.5.8.4,1.5,1,1.9,1.7.4.8.7,1.6.7,2.5,0,.9,0,1.9-.1,2.8-.3,1.7-.8,3.3-1.7,4.7-.7,1.4-1.6,2.7-2.6,3.9-1,1.2-2,2.3-3.2,3.3-1.1,1-2.2,2-3.2,2.9-.9.9-1.8,1.8-2.6,2.8-.7.9-1.2,1.9-1.5,3,.4-.1.8-.2,1.3-.2Z"/>
      <path class="cls-10" d="M517,631.9l-2.6,17.1c1.2-.2,1.8-.3,3-.6l-.5,2.5c-1.2.2-1.8.4-2.9.6l-1.9,12.3c-1.6.3-2.3.4-3.9.7l1.9-12.4c-3.7.6-5.5.9-9.2,1.2.3-1.1.7-2.2,1.2-3.3.6-1.1,1.2-2.3,1.8-3.5.6-1.2,1.2-2.5,1.7-3.8.6-1.4,1-2.8,1.2-4.2,0-.4.1-.9.2-1.4,0-.5,0-1,0-1.5v-1.3c0-.3,0-.6-.1-1,1-.2,2,.3,2.4,1.2.5,1.2.6,2.6.3,3.9-.2,1.2-.5,2.3-1,3.4-.5,1-1,2-1.6,3-.6,1-1.2,1.9-1.7,2.8-.6.9-1.1,1.8-1.5,2.7,2.6-.3,3.9-.5,6.5-.9l2.5-16.4c1.6-.6,2.4-.8,4-1.4Z"/>
    </g>
    <path class="cls-4" d="M401.4,663.9c78.4,25.8,143.1,1.7,160.3-5.9l4.5,2.7s-73,38.2-164.8,8-172.5-8.3-172.5-8.3v-4.7s80.7-21.9,172.5,8.3Z"/>
  </g>
</svg>