<?xml version="1.0" encoding="utf-8"?>
<!-- Generator: Adobe Illustrator 23.0.2, SVG Export Plug-In . SVG Version: 6.00 Build 0)  -->
<svg version="1.1" id="Laag_1_1_" xmlns="http://www.w3.org/2000/svg" xmlns:xlink="http://www.w3.org/1999/xlink" x="0px" y="0px"
	 viewBox="0 0 843.5 843.5" style="enable-background:new 0 0 843.5 843.5;" xml:space="preserve">
<style type="text/css">
	.st0{fill:none;}
	.st1{fill:#F1C411;}
	.st2{fill:#ECF0F1;}
</style>
<g>
	<path class="st0" d="M661.7,575.3c2.4-0.4,4.8-1.1,7.1-2.2c2.3-1.1,4.2-2.6,5.8-4.6c1.5-2,2.6-4.4,3.3-7.3
		c0.7-2.9,0.7-6.3,0.1-10.2c-0.5-2.9-1-5.6-1.7-8.3c-0.7-2.7-1.5-5.9-2.5-9.6c-1-3.7-2.2-8.3-3.7-13.8c-0.5-1.8-1-3.8-1.5-6
		c-0.9,4.9-1.9,9.8-3.2,14.6c-1.7,6.7-3.8,13.5-6,20.6c0.3,0.7,0.6,1.5,0.7,2.5c0,0.2,0,0.4,0.1,0.6c1,0.5,1.9,1.1,2.7,1.8
		c1.2,1.1,2,2.7,2.3,4.6c0.4,2.7,0,5.4-1.5,8c-1.4,2.6-3.6,4.2-6.7,4.7c-1.2,0.2-2.4,0.2-3.6,0c-1.2-0.2-2.2-0.8-3-1.9
		c0.3,1.9,0.8,3.7,1.3,5.2C654.1,575.6,657.5,576,661.7,575.3z"/>
	<path class="st0" d="M542.8,365.8c-2.9,0.5-5.4,2.3-7.7,5.5c-2.3,3.2-4.2,7.2-5.9,12c-1.7,4.8-3.1,10-4.1,15.7
		c-0.5,2.7-0.9,5.3-1.2,7.9c2.1-0.9,4.2-2.1,6.1-3.6c3.6-2.8,6.7-6,9.2-9.8c2.5-3.8,4.3-8,5.4-12.6c1.1-4.6,1.3-9.2,0.5-13.8
		c-0.1-0.5-0.2-0.9-0.3-1.3C544.1,365.7,543.5,365.7,542.8,365.8z"/>
	<path class="st0" d="M145.2,433.8l2.4-51.3c-4.1,4.6-8.1,10.6-11.8,18.2c-4.5,9.1-8.6,19.1-12.3,30.1c2.5,0.2,4.9,0.4,7.4,0.6
		C135.8,431.9,140.6,432.7,145.2,433.8z"/>
	<path class="st0" d="M607.1,504.3c-2.9,0.5-5.4,2.3-7.7,5.4c-2.3,3.1-4.3,7.1-6,11.7c-1.7,4.7-3.1,9.9-4,15.6
		c-0.5,2.7-0.9,5.5-1.2,8.2c2.2-1,4.2-2.2,6.2-3.7c3.6-2.8,6.7-6,9.2-9.8c2.5-3.8,4.2-8,5.2-12.5c1-4.6,1.2-9.1,0.4-13.6
		c-0.1-0.5-0.2-0.9-0.3-1.3C608.5,504.2,607.8,504.2,607.1,504.3z"/>
	<path class="st1" d="M190.7,327.1l7.7-1.2c43.4-74.9,124.5-125.5,217.1-125.5c74.5,0,141.6,32.7,187.5,84.5
		c-46-55.5-115.4-91-192.6-91c-88.9,0-172,48-216.7,125.2l-0.1,0.2l-16.5,2.6l0-0.1c0,0.1-0.1,0.1-0.1,0.2l6.1,6.3L190.7,327.1z"/>
	<polygon class="st1" points="182.5,547.6 182.5,547.6 182.5,547.6 	"/>
	<path class="st1" d="M202.1,582.8c-5.5-8.9-10.4-18.1-14.8-27.6l-4.8-7.5l0.1,0.3C188.3,560.2,194.8,571.9,202.1,582.8z"/>
	<path class="st1" d="M602.3,624.3c-2.2,2.3-4.1,4.3-5.9,6.1c-49.7,49.7-115.8,77.1-186.1,77.1S273.9,680,224.2,630.3
		c-5.3-5.3-10.3-10.7-15-16.4c6.3,8,13.2,15.7,20.5,23c49.6,49.6,115.6,77,185.8,77s136.2-27.3,185.8-77c2-2,3.9-4,5.8-6.1l-3.7-7.7
		L602.3,624.3z"/>
	<polygon class="st1" points="603.3,623.2 603.3,623.2 603.3,623.2 	"/>
	<path class="st1" d="M633.8,304.9c25.1,40.2,39,86.5,39.7,134.9l0,0.4l-5.2,0.8l-2.4,0.4l-5.4,0.9l0,0l0,0l5.6,6.4l6-0.9l6-0.9
		C677.3,395.5,661.9,346.6,633.8,304.9z"/>
	<path class="st1" d="M76.1,554.3l0.1,0.2C76.2,554.4,76.2,554.4,76.1,554.3L76.1,554.3z"/>
	<path class="st1" d="M171.9,350.5L171.9,350.5c0.1,0,0.1,0,0.2,0L171.9,350.5z"/>
	<path class="st1" d="M147.6,382.5l0.6-12.2c-6.2,4.7-12,12.5-17.4,23.4c-5.4,10.9-10.2,23.1-14.5,36.8c2.4,0.1,4.8,0.2,7.2,0.3
		c3.7-11,7.8-21.1,12.3-30.1C139.6,393.1,143.5,387.1,147.6,382.5z"/>
	<path class="st1" d="M73,451.1c-4.2,2.5-6.8,5.8-7.7,9.9c0.6-0.1,1.4,0.5,2.3,1.9c0.9,1.4,1.5,2.9,1.8,4.5c0.4,2.7-0.4,5-2.7,7
		c-2.2,2-5.1,3.3-8.5,3.8c-2.9,0.5-5.6,0.3-8.1-0.5l-0.3,3.5c0.8,1,1.8,1.8,2.9,2.4c3.1,1.7,6.6,2.3,10.5,1.6
		c3.5-0.6,6.3-1.9,8.5-3.8c2.2-2,3.1-4.3,2.7-7c-0.3-1.6-0.9-3.2-1.8-4.5c-0.9-1.4-1.7-2-2.3-1.9c0.9-4.1,3.4-7.4,7.7-9.9
		c2.4-1.4,5.2-2.6,8.5-3.8c1.1-3.1,2.2-6.2,3.4-9.4C82.9,446.6,77.3,448.6,73,451.1z"/>
	<path class="st1" d="M186.6,358.6L186.6,358.6L186.6,358.6L186.6,358.6C186.6,358.5,186.5,358.5,186.6,358.6l-5-7.1l-8,172.3
		l-32.6,5.4l5,7l32.6-5.4L186.6,358.6z"/>
	<path class="st1" d="M128.2,441.2c-4.9-0.4-9.9-0.4-15-0.1c-2.7,9.9-5.1,20-7.1,30.3c-2,10.3-3.6,20.2-4.6,29.7
		c-1.1,9.5-1.7,18.3-1.9,26.5c-0.2,8.2,0.2,15.1,1.1,20.8c0.7,4.4,1.6,7.4,2.6,9.1c1,1.7,1.9,3,2.9,3.9c-3,0.5-6.3,0.9-9.9,1.2
		c-3.6,0.3-7-0.1-10.3-1.1c-3.3-1-6.2-3-8.8-5.9c-0.3-0.4-0.6-0.7-0.9-1.1l4.8,6.7c0.1,0.2,0.3,0.4,0.4,0.5l0.2,0.3l0,0
		c0.2,0.2,0.3,0.5,0.5,0.7c2.6,2.9,5.5,4.9,8.8,5.9c3.3,1,6.7,1.4,10.3,1.1c3.6-0.3,6.9-0.7,9.9-1.2c-0.9-0.9-1.9-2.2-2.9-3.9
		c-1-1.7-1.8-4.7-2.6-9.1c-0.9-5.7-1.3-12.7-1.1-20.8c0.2-8.2,0.8-17,1.9-26.5c1.1-9.5,2.6-19.4,4.6-29.7c2-10.3,4.4-20.4,7.1-30.3
		c5.1-0.4,10-0.3,15,0.1c3.5,0.3,7.3,0.9,11.4,1.8l0.3-5.7C138.7,442.6,133.2,441.6,128.2,441.2z"/>
	<path class="st1" d="M227.3,411.4c-3.5,0.6-6.4,1.3-8.7,2c-2.4,0.8-3.4,2-3.1,3.7c0.1,0.3,0.2,0.5,0.4,0.5c0.2,0,0.6,0.1,1,0.3
		c0.4,0.2,0.8,0.5,1.1,1c0.3,0.5,0.6,1.4,0.8,2.8c0.7,4.2-0.1,7.5-2.3,9.8c-2.3,2.3-4.9,3.7-7.9,4.2c-2.6,0.4-5.1,0-7.5-1.3
		c-1-0.5-1.8-1.2-2.5-2.1l0,0l4.8,6.8l0,0c0.7,0.9,1.6,1.7,2.6,2.2c2.5,1.3,5,1.7,7.5,1.3c3-0.5,5.6-1.9,7.9-4.2
		c2.3-2.3,3-5.6,2.3-9.8c-0.2-1.4-0.5-2.3-0.8-2.8c-0.3-0.5-0.7-0.8-1.1-1c-0.4-0.2-0.7-0.3-1-0.3c-0.2,0-0.4-0.2-0.4-0.5
		c-0.3-1.7,0.8-2.9,3.1-3.7c2.3-0.8,5.3-1.5,8.7-2l4.6-0.8l3.1-8.3L227.3,411.4z"/>
	<path class="st1" d="M282,489.4c-0.7,3.1-2.1,6-4.1,8.8c-2,2.8-4.6,5.3-7.7,7.3c-3.1,2.1-6.9,3.5-11.3,4.2l-59.9,9.9l5,7l59.9-9.9
		c4.4-0.7,8.1-2.1,11.3-4.2c3.1-2.1,5.7-4.5,7.7-7.3c2-2.8,3.4-5.7,4.1-8.8c0.7-3.1,0.9-5.9,0.5-8.4c-0.3-2.1-1.1-3.9-2.1-5.5l0,0
		l-0.2-0.3c0,0-0.1-0.1-0.1-0.1l-4.8-6.8c1.1,1.6,1.8,3.4,2.2,5.6C282.9,483.6,282.7,486.4,282,489.4z"/>
	<path class="st1" d="M245.3,494.9l36.8-97.3l-5-7l-39.6,104.8C239.4,495.2,242,495.1,245.3,494.9z"/>
	<path class="st1" d="M280,475L280,475c0,0,0,0.1,0.1,0.1L280,475z"/>
	<path class="st1" d="M277.8,472.9L277.8,472.9C277.8,472.9,277.9,472.9,277.8,472.9L277.8,472.9z"/>
	<path class="st1" d="M442.8,398.9c2.6-3.2,5-5.9,7.3-7.9c2.3-2.1,4.9-3.4,7.7-3.8c0.3,0,0.5-0.1,0.7-0.1c-0.1-0.2-0.2-0.3-0.3-0.5
		c-0.7-1.7-1.4-3.2-2-4.7c-0.6-1.4-1.8-2-3.4-1.8c-2.9,0.5-5.4,1.8-7.7,3.8c-2.3,2.1-4.7,4.7-7.3,7.9l-3.9,88.9l-32.6,5.4l0.6-13.1
		c-2,3.2-4.2,5.9-6.4,8.1c-3.7,3.6-7.4,6.2-11.1,7.8c-3.8,1.6-7.2,2.6-10.2,3.1c-6.5,1.1-11.9,0.1-16.4-2.9
		c-0.8-0.5-1.6-1.2-2.3-1.9c1.9,3.9,4.3,6.8,7.3,8.9c4.4,3,9.9,3.9,16.4,2.9c3-0.5,6.4-1.5,10.2-3.1c3.8-1.6,7.5-4.1,11.1-7.8
		c0.4-0.4,0.9-0.9,1.3-1.4l4.5,6.3l29.8-4.9c0.8-2.4,1.8-4.6,3-6.9L442.8,398.9z"/>
	<path class="st1" d="M321.8,468.7c0.4,2.6,1.3,4.7,2.6,6.3c0.7,0.9,1.6,1.5,2.7,1.8c-0.1-0.4-0.2-0.7-0.2-1.1
		c-0.3-2-0.4-4.1-0.4-6.4l3.6-79.6l-5-7l-3.6,79.6C321.3,464.6,321.5,466.7,321.8,468.7z"/>
	<path class="st1" d="M377.6,460.4c0.5,3.2,1.6,5.2,3.3,6.2c0.5,0.3,1,0.5,1.6,0.6c-0.3-2.2-0.4-4.6-0.3-7.2l3.6-79.6l-5-7
		l-3.6,79.6C377.1,455.7,377.2,458.1,377.6,460.4z"/>
	<path class="st1" d="M481.8,379c-0.4,2.1-1.1,4-2.2,5.8s-2.6,3.4-4.5,4.7c-1.9,1.3-4.2,2.2-6.9,2.6c-2.5,0.4-4.4,0.2-5.8-0.5
		c0.3,0.6,0.5,1.2,0.8,1.8c0.7,1.7,1.8,3.2,3.2,4.5c1.4,1.3,3.7,1.7,6.8,1.2c2.7-0.4,5-1.3,6.9-2.6c1.9-1.3,3.4-2.9,4.5-4.7
		s1.8-3.7,2.2-5.8c0.4-2.1,0.4-4.1,0-6.1c-0.7-4.4-2.7-8.1-5.9-11.1c-0.1-0.1-0.2-0.2-0.3-0.3c0.6,1.4,1,2.8,1.2,4.4
		C482.2,374.9,482.1,376.9,481.8,379z"/>
	<path class="st1" d="M444.1,371.5l0-0.7l-5-7l-0.8,14.8C440.2,376,442.1,373.7,444.1,371.5z"/>
	<path class="st1" d="M341.4,486.9c-2.5,3.3-5,5.9-7.6,7.9c-2.6,2-5.2,3.5-7.9,4.4c-2.6,1-5.1,1.7-7.6,2.1
		c-6.8,1.1-12.9-0.1-18.3-3.6c-0.8-0.5-1.6-1.1-2.3-1.8c1.8,3.9,4.2,6.8,7.3,8.8c5.4,3.5,11.5,4.7,18.3,3.6c2.4-0.4,4.9-1.1,7.6-2.1
		c2.6-1,5.2-2.5,7.9-4.4c2.6-2,5.2-4.6,7.6-7.9c2.1-2.8,4.1-6.2,5.9-10.4c-1.7-2.5-3-5.6-4-9.2C346.2,479.4,343.9,483.6,341.4,486.9
		z"/>
	<path class="st1" d="M466.4,471.9c-3.4,2.1-6.1,5.1-8.2,8.9c-2.1,3.8-3.4,8.7-4,14.6c-0.6,5.9-0.1,13.2,1.3,21.7
		c0.5,3,1,5.5,1.6,7.4c0.6,1.9,1.1,3.5,1.6,4.7c0.5,1.2,1,2.2,1.5,2.9c0.5,0.7,1,1.3,1.4,1.9c-8.1,1.3-14.4,0.7-18.9-2
		c-2.1-1.2-3.8-3.1-5.2-5.5l0,0.2l5.9,8.3l0,0c1.2,1.7,2.6,3.1,4.3,4c4.5,2.7,10.8,3.3,18.9,2c-0.4-0.6-0.9-1.2-1.4-1.9
		c-0.5-0.7-1-1.7-1.5-2.9c-0.5-1.2-1-2.8-1.6-4.7c-0.5-1.9-1.1-4.4-1.6-7.4c-1.4-8.6-1.8-15.8-1.3-21.7c0.6-5.9,1.9-10.8,4-14.6
		c2.1-3.8,4.8-6.8,8.2-8.9c1.8-1.1,3.7-2.1,5.7-2.8l0.4-8.6C473.5,468.3,469.8,469.8,466.4,471.9z"/>
	<path class="st1" d="M557.1,406.6c4.1-4.9,7.1-10.4,9.1-16.4c1.9-6,2.4-12.2,1.3-18.7c-0.5-2.9-1.3-5.5-2.4-8
		c-0.3-0.7-0.7-1.4-1.2-2.1l-0.9,5.7h-0.2c0.6,5.6,0,10.9-1.7,16.1c-1.9,6-5,11.4-9.1,16.4c-4.1,4.9-9.1,9.2-14.9,12.7
		c-5.8,3.5-12.1,6.1-18.7,7.6c0.1,1.2,0.1,2.4,0.2,3.6c0.1,1.1,0.3,2.3,0.5,3.5c0.4,2.3,0.9,4.5,1.7,6.6c0.7,2.1,1.8,4,3.1,5.6
		c0.6,0.8,1.4,1.4,2.1,2c-0.1-0.2-0.2-0.4-0.3-0.7c-0.7-2.1-1.3-4.3-1.7-6.6c-0.2-1.2-0.4-2.4-0.5-3.5c-0.1-1.1-0.2-2.3-0.2-3.6
		c6.7-1.6,12.9-4.1,18.7-7.6C548,415.7,552.9,411.5,557.1,406.6z"/>
	<path class="st1" d="M525.1,399.1c1.1-5.7,2.4-11,4.1-15.7c1.7-4.7,3.7-8.7,5.9-12c2.3-3.2,4.8-5.1,7.7-5.5c0.7-0.1,1.3-0.1,1.9,0
		c-0.5-2.2-1.2-4-2.1-5.2c-1.1-1.5-2.7-2.1-4.8-1.7c-2.9,0.5-5.4,2.3-7.7,5.5c-2.3,3.2-4.2,7.2-5.9,12c-1.7,4.8-3.1,10-4.1,15.7
		c-1.1,5.7-1.8,11.3-2.1,16.8c2-0.4,4-1,5.9-1.8C524.2,404.4,524.6,401.7,525.1,399.1z"/>
	<polygon class="st1" points="506.8,530.5 502.5,618.6 470,624 475,631 507.5,625.6 511.8,537.5 544.8,532.1 545.7,514.7 
		540.7,507.7 539.8,525.1 	"/>
	<path class="st1" d="M550.6,455.7c-3,3.1-6.6,5.6-10.6,7.3c-4,1.8-8.3,3-12.9,3.8c-5.9,1-11.2,1-16.1,0c-0.4,0-0.8,0.1-1.2,0
		l-2.1,46.4l5.4-0.9l1.7-38.5c0.4,0,0.8,0,1.2,0c4.9,1,10.2,1,16.1,0c4.5-0.7,8.8-2,12.9-3.8c4-1.8,7.6-4.2,10.6-7.3
		c3-3.1,5.5-7.1,7.2-11.8c1.8-4.7,2.7-10.4,2.9-17.1l-2.5-3.3l-2.5-3.7c-0.1,6.7-1.1,12.4-2.9,17.1
		C556,448.6,553.6,452.6,550.6,455.7z"/>
	<path class="st1" d="M636,574.9c-2.6,3.9-5.5,7.6-8.7,11c-4.5,4.8-9.6,8.9-15.4,12.3c-5.8,3.4-12.4,5.8-20,7
		c-10.8,1.8-19.8,0.4-27.2-4.1c-1.6-1-3.1-2.2-4.4-3.5c2.4,4.7,5.6,8.2,9.4,10.5c7.4,4.5,16.4,5.9,27.2,4.1c7.5-1.2,14.2-3.6,20-7
		c5.8-3.4,10.9-7.5,15.4-12.3c3.1-3.3,5.8-6.7,8.3-10.4c-1-1.2-2-2.5-2.8-3.9C637.1,577.4,636.5,576.1,636,574.9z"/>
	<path class="st1" d="M589.4,537.1c1-5.7,2.3-10.9,4-15.6c1.7-4.7,3.7-8.6,6-11.7c2.3-3.1,4.8-5,7.7-5.4c0.7-0.1,1.3-0.1,1.9,0
		c-0.5-2.2-1.2-4-2.1-5.2c-1.1-1.5-2.7-2.1-4.8-1.7c-2.9,0.5-5.4,2.3-7.7,5.4c-2.3,3.1-4.3,7.1-6,11.7c-1.7,4.7-3.1,9.9-4,15.6
		c-1,5.7-1.6,11.4-1.9,17.2c2-0.5,3.9-1.1,5.7-2C588.6,542.6,589,539.8,589.4,537.1z"/>
	<path class="st1" d="M765.6,572.6c-1.9,1.9-3.8,3.3-5.8,4.1c-2,0.8-4,1.4-6,1.7c-8,1.3-14.2-0.2-18.5-4.5c0,0-0.1-0.1-0.1-0.1
		c1.4,2.7,3,5.1,5.1,7.1c4.4,4.3,10.5,5.8,18.5,4.5c2-0.3,4-0.9,6-1.7c2-0.8,4-2.2,5.8-4.1c1.8-1.9,3.5-4.5,5-7.8
		c1.5-3.3,2.6-7.4,3.5-12.5l-5-7c-0.9,5.1-2,9.3-3.5,12.5C769.1,568.1,767.5,570.7,765.6,572.6z"/>
	<path class="st1" d="M668.5,513.3c-1.1-4.4-2.3-9.4-3.7-15.2c-1,7.8-2.5,15.4-4.5,22.8c-1.9,7.4-4.2,15.1-6.8,23
		c1.6,0.5,3,1.3,4.2,2.4c0.6,0.6,1.1,1.3,1.5,2.2c2.2-7,4.3-13.9,6-20.6C666.6,523.1,667.6,518.3,668.5,513.3z"/>
	<path class="st1" d="M726.4,551.2c-2,2.6-4.1,5-6.2,7.2c-5.2,5.5-10.2,10.2-15,14.1c-2,3-4.3,5.5-6.9,7.6c-2.6,2.1-5.4,4-8.4,5.7
		c-3,1.7-6,3-9.1,3.9c-3.1,1-6.1,1.7-8.9,2.2c-5.7,0.9-10.8,0.9-15.2-0.2c-4.4-1-8.2-2.7-11.4-5c-1.2-0.9-2.3-1.8-3.3-2.8
		c0.3,0.5,0.5,1,0.8,1.5c1.9,3.3,4.4,6,7.5,8.3c3.2,2.3,7,3.9,11.4,5c4.4,1,9.5,1.1,15.2,0.2c2.9-0.5,5.8-1.2,8.9-2.2
		c3.1-1,6.1-2.3,9.1-3.9c3-1.7,5.8-3.5,8.4-5.7c2.6-2.1,4.9-4.7,6.9-7.6c4.8-3.9,9.8-8.6,15-14.1c1-1.1,2.1-2.2,3.1-3.4
		c-0.5-1.7-1-3.5-1.3-5.4C726.7,554.8,726.5,553,726.4,551.2z"/>
	<path class="st1" d="M653.3,570.7c1.2,0.2,2.4,0.2,3.6,0c3-0.5,5.2-2.1,6.7-4.7c1.4-2.6,1.9-5.3,1.5-8c-0.3-2-1.1-3.5-2.3-4.6
		c-0.8-0.7-1.7-1.3-2.7-1.8c0.3,2.5-0.2,5-1.5,7.4c-1.4,2.6-3.6,4.2-6.7,4.7c-1.2,0.2-2.4,0.2-3.6,0c-1.2-0.2-2.2-0.8-3-1.9
		c0.9,5.3,2.6,9.1,5.1,11.3c0.4,0.3,0.8,0.6,1.2,0.9c-0.5-1.5-1-3.3-1.3-5.2C651.1,569.9,652.1,570.5,653.3,570.7z"/>
	<path class="st1" d="M763.1,444.7c-0.2,4.5-0.4,9.4-0.6,14.7l5.3-0.9c0.1-2.4,0.2-4.7,0.3-6.9c0.2-4.5,0.4-8.4,0.6-11.7
		c0.1-3.9,0.3-7.4,0.6-10.6l-5-7c-0.3,3.1-0.4,6.7-0.6,10.6C763.4,436.3,763.2,440.2,763.1,444.7z"/>
	<path class="st1" d="M705,520.9c1.4,5.6,2.5,10.1,3.4,13.6c0.9,3.5,1.6,7.1,2.3,10.9c0.5,3.3,0.7,6.2,0.5,8.7
		c1.4-1.2,2.8-2.4,4.1-3.6c-0.6-3.1-1.2-6.2-1.9-9.1c-0.9-3.5-2-8-3.4-13.6c-1.4-5.6-3.1-12.8-5.2-21.8c-2.1-8.9-4.7-20.7-7.7-35.2
		l-5-7c3,14.5,5.6,26.3,7.7,35.2C701.9,508,703.6,515.3,705,520.9z"/>
	<path class="st1" d="M625.5,521.6c-1.9,6.1-5,11.5-9.1,16.5c-4.1,4.9-9.1,9.2-14.9,12.7c-5.8,3.5-12.1,6.1-18.7,7.6
		c0.1,1.7,0.3,3.3,0.4,4.8c0.2,1.5,0.4,3,0.6,4.3c1.3,7.7,3.5,12.6,6.6,14.6c0.1,0.1,0.2,0.1,0.4,0.2c-0.8-2.2-1.4-4.7-1.9-7.8
		c-0.2-1.4-0.4-2.8-0.6-4.3c-0.2-1.5-0.3-3.1-0.4-4.8c6.7-1.6,12.9-4.1,18.7-7.6c5.8-3.5,10.8-7.7,14.9-12.7
		c4.1-4.9,7.1-10.4,9.1-16.5c1.9-6,2.4-12.2,1.3-18.6c-0.5-2.9-1.3-5.5-2.4-8c-1-2.3-2.6-4.2-4.5-5.9c0.9,2.1,1.5,4.4,1.9,6.8
		C627.8,509.3,627.4,515.5,625.5,521.6z"/>
	<polygon class="st1" points="722.1,475.4 727.1,482.4 729.2,482 729.6,474.2 	"/>
	<path class="st1" d="M767.2,475.8l13.6-2.2l0.3-9.3l-5-7l-0.3,9.3l-13.6,2.2l-3.3,70.2c-0.3,3.1-0.2,5.8,0.2,8.1
		c0.4,2.4,1.3,4.3,2.7,5.6c0.6,0.6,1.4,1,2.3,1.2c-0.3-2.2-0.4-4.9-0.2-7.9L767.2,475.8z"/>
	<path class="st1" d="M560.5,357.7c1.3,1.1,2.5,2.4,3.4,3.7l0,0l-5.8-8.1l0,0c0.8,1,1.5,2.1,2,3.3
		C560.3,356.9,560.4,357.3,560.5,357.7z"/>
	<path class="st1" d="M560.5,357.7c0.9,2.1,1.5,4.4,1.9,6.8c0.1,0.9,0.3,1.7,0.3,2.6h0.2l0.9-5.7C563,360,561.9,358.8,560.5,357.7z"
		/>
	<path class="st2" d="M673.5,439.8c-0.8-48.4-14.6-94.7-39.7-134.9c-10.5-16.8-23-32.5-37.3-46.9c-49.7-49.7-115.8-77.1-186.1-77.1
		c-70.3,0-136.4,27.4-186.1,77.1c-18.7,18.7-34.4,39.9-46.7,63l-0.4,0.8l0,0.1l16.5-2.6l0.1-0.2c44.7-77.2,127.8-125.2,216.7-125.2
		c77.2,0,146.6,35.5,192.6,91c35.4,42.7,57,97.3,57.6,156.8l0,0.6l0,0l5.4-0.9l2.4-0.4l5.2-0.8L673.5,439.8z"/>
	<polygon class="st2" points="182.5,547.6 182.5,547.6 182.6,547.7 	"/>
	<polygon class="st2" points="603.3,623.2 603.3,623.2 603.3,623.2 	"/>
	<path class="st2" d="M603.3,623.2L603.3,623.2l-21.9,3.5l-0.1,0.1c-46.6,43.6-107.3,67.7-170.9,67.7
		c-84.2,0-162.2-42.8-208.2-111.6c-7.3-11-13.9-22.6-19.5-34.8l-0.1-0.3l0-0.1l0,0l-13.4,2.1l0.3,0.6c10.2,23,23.5,44.3,39.8,63.6
		c4.8,5.6,9.8,11.1,15,16.4c49.7,49.7,115.8,77.1,186.1,77.1s136.4-27.4,186.1-77.1c1.8-1.8,3.6-3.7,5.9-6.1L603.3,623.2
		L603.3,623.2z"/>
	<path class="st1" d="M44.4,473.6L44.4,473.6l4.9,6.9c-0.8-1.1-1.3-2.4-1.8-3.9C46.3,475.8,45.2,474.8,44.4,473.6z"/>
	<path class="st2" d="M49.9,481.3L49.9,481.3C49.9,481.2,49.8,481.2,49.9,481.3L49.9,481.3z"/>
	<path class="st1" d="M47.8,476.7c-0.1,0-0.2-0.1-0.2-0.2c0.4,1.5,1,2.8,1.8,3.9l0.5,0.8c0,0,0,0,0,0l0.3-3.5
		C49.4,477.5,48.5,477.1,47.8,476.7z"/>
	<polygon class="st1" points="621.1,502.7 628.3,500 622.8,492.3 621.1,492.3 	"/>
	<polygon class="st1" points="663.7,554.4 658.1,555.5 658.1,549.3 659.3,548.5 	"/>
	<polygon class="st1" points="562.5,601.4 557,593.6 553.8,587.2 570.4,587.2 	"/>
	<polygon class="st1" points="474.8,369.6 479.8,371.1 484.1,372.7 478.7,365.1 	"/>
	<polygon class="st1" points="743,578.6 737.8,578.1 731.8,569.7 738.7,572 	"/>
	<path class="st2" d="M172.1,350.5C172.1,350.5,172.1,350.5,172.1,350.5l9.5,1C178.7,350.8,175.5,350.4,172.1,350.5z"/>
	<path class="st2" d="M278.8,473.7c-0.3-0.3-0.6-0.5-0.9-0.7l2,2C279.6,474.5,279.2,474.1,278.8,473.7z"/>
	<path class="st2" d="M406.9,480.1c-0.5,0.7-0.9,1.4-1.4,2.1h1.3L406.9,480.1z"/>
	<path class="st2" d="M458.5,387c0.7,1.4,1.7,2.8,2.9,3.9c0.3,0.3,0.6,0.5,1,0.7c-0.4-1-0.9-1.9-1.2-2.8
		C460.7,387.6,459.8,387,458.5,387z"/>
	<g>
		<path class="st2" d="M172,350.5c-0.1,0-0.1,0-0.2,0c-3.3,0.1-6,0.3-8.2,0.7c-6.8,1.1-13.4,4-19.7,8.7
			c-6.4,4.7-12.4,10.6-18.2,17.8c-5.8,7.2-11.2,15.4-16.3,24.5c-5.1,9.1-9.7,18.6-14,28.6c-4.9,0.3-9,0.8-12.3,1.3
			c-6.5,1.1-12.4,2.8-17.7,5.1c-5.3,2.4-9.8,5.2-13.5,8.4c-3.6,3.2-6.4,6.7-8.1,10.5c-1.8,3.8-2.4,7.6-1.7,11.3
			c0.4,2.4,1.2,4.4,2.3,6c0.8,1.2,1.9,2.2,3.2,3c0.1,0,0.2,0.1,0.2,0.2c0.8,0.4,1.6,0.8,2.4,1.1c2.5,0.8,5.1,1,8.1,0.5
			c3.5-0.6,6.3-1.9,8.5-3.8c2.2-2,3.1-4.3,2.7-7c-0.3-1.6-0.9-3.2-1.8-4.5c-0.9-1.4-1.7-2-2.3-1.9c0.9-4.1,3.4-7.4,7.7-9.9
			c4.2-2.5,9.9-4.5,16.9-6.1c-1.2,3.1-2.3,6.2-3.4,9.4c-2.2,6.3-4.1,12.7-5.9,19c-2.6,9.5-4.7,18.5-6.3,27.1
			c-1.6,8.6-2.6,16.4-3.1,23.6c-0.4,7.2-0.2,13.4,0.6,18.5c0.8,5,2.2,8.9,4.2,11.8c0,0.1,0.1,0.1,0.1,0.2l0,0.1
			c0.3,0.4,0.6,0.8,0.9,1.1c2.6,2.9,5.5,4.9,8.8,5.9c3.3,1,6.7,1.4,10.3,1.1c3.6-0.3,6.9-0.7,9.9-1.2c-0.9-0.9-1.9-2.2-2.9-3.9
			c-1-1.7-1.8-4.7-2.6-9.1c-0.9-5.7-1.3-12.7-1.1-20.8c0.2-8.2,0.8-17,1.9-26.5c1.1-9.5,2.6-19.4,4.6-29.7c2-10.3,4.4-20.4,7.1-30.3
			c5.1-0.4,10-0.3,15,0.1c4.9,0.4,10.5,1.4,16.7,3.1l-0.3,5.7l-3.6,79.2l32.6-5.4l8-172.3L172,350.5z M116.3,430.5
			c4.2-13.7,9.1-25.9,14.5-36.8c5.4-10.9,11.2-18.6,17.4-23.4l-0.6,12.2l-2.4,51.3c-4.7-1.1-9.5-1.9-14.3-2.4
			c-2.5-0.3-4.9-0.5-7.4-0.6C121.1,430.6,118.7,430.5,116.3,430.5z"/>
		<path class="st2" d="M280.3,475.4l-0.2-0.3c0-0.1-0.1-0.1-0.1-0.1l-2-2c0,0,0,0,0,0c-1.8-1.2-4.2-1.6-7.1-1.1
			c-4.2,0.7-7.2,2.3-9,4.9c-1.8,2.5-2.4,4.9-2.1,7c0.2,1.2,0.7,2.2,1.5,3c0.8,0.8,2,1.1,3.5,1c0,0.2,0,0.3,0,0.5c0,0.1,0,0.2,0,0.3
			c-0.3,1.5-1.2,2.6-2.8,3.4c-1.9,0.9-4.3,1.6-7,2.1c-3,0.5-6.2,0.8-9.5,1c0,0-0.1,0-0.1,0c-3.3,0.2-5.9,0.3-7.8,0.5L277,390.6
			l-58.1,9.6c-4.1,0.7-7.6,2-10.6,4.1c-3,2-5.4,4.4-7.3,7c-1.9,2.6-3.2,5.4-4,8.3c-0.8,2.9-0.9,5.5-0.6,7.8c0.3,2,1,3.6,2,4.9
			c0.7,0.8,1.5,1.5,2.5,2.1c2.5,1.3,5,1.7,7.5,1.3c3-0.5,5.6-1.9,7.9-4.2c2.3-2.3,3-5.6,2.3-9.8c-0.2-1.4-0.5-2.3-0.8-2.8
			c-0.3-0.5-0.7-0.8-1.1-1c-0.4-0.2-0.7-0.3-1-0.3c-0.2,0-0.4-0.2-0.4-0.5c-0.3-1.7,0.8-2.9,3.1-3.7c2.3-0.8,5.3-1.5,8.7-2l12.7-2.1
			l-3.1,8.3l-37.9,102.1l59.9-9.9c4.4-0.7,8.1-2.1,11.3-4.2c3.1-2.1,5.7-4.5,7.7-7.3c2-2.8,3.4-5.7,4.1-8.8c0.7-3.1,0.9-5.9,0.5-8.4
			C282.1,478.8,281.4,477,280.3,475.4z"/>
		<path class="st2" d="M481.8,373c-0.3-1.6-0.7-3-1.2-4.4c-1-2.5-2.6-4.8-4.7-6.7c-3.2-3-7.4-4.1-12.5-3.3c-4.5,0.7-8.9,3-13.2,6.8
			c-2.1,1.9-4.1,3.9-6.1,6.1c-2,2.2-3.9,4.5-5.8,7l0.8-14.8l-32.6,5.4l-3.4,75.3c-0.7,5.9-2.3,11-4.7,15.3
			c-2.5,4.3-5.9,6.8-10.3,7.5c-2.3,0.4-4.2,0.4-5.7,0c-0.6-0.2-1.1-0.4-1.6-0.6c-1.7-1-2.8-3-3.3-6.2c-0.4-2.3-0.5-4.7-0.3-7.4
			l3.6-79.6l-32.6,5.4l-3.4,75.1c-0.7,6-2.3,11.1-4.7,15.4c-2.4,4.3-5.8,6.8-10.1,7.5c-1.2,0.2-2.2,0.2-3.1-0.1
			c-1.1-0.3-2-0.9-2.7-1.8c-1.3-1.6-2.1-3.8-2.6-6.3c-0.3-2-0.4-4.1-0.4-6.4l3.6-79.6l-32.6,5.4l-3.4,75.1c-0.3,5.9-0.1,10.9,0.6,15
			c1.3,8.1,4.1,14,8.2,17.7c0.7,0.7,1.5,1.3,2.3,1.8c5.4,3.5,11.5,4.7,18.3,3.6c2.4-0.4,4.9-1.1,7.6-2.1c2.6-1,5.2-2.5,7.9-4.4
			c2.6-2,5.2-4.6,7.6-7.9c2.5-3.3,4.8-7.5,6.9-12.6c1,3.6,2.4,6.7,4,9.2c1,1.4,2,2.7,3.2,3.8c0.7,0.7,1.5,1.3,2.3,1.9
			c4.4,3,9.9,3.9,16.4,2.9c3-0.5,6.4-1.5,10.2-3.1c3.8-1.6,7.5-4.1,11.1-7.8c2.2-2.2,4.4-4.9,6.4-8.1l-0.6,13.1l32.6-5.4l3.9-88.9
			c2.6-3.2,5-5.9,7.3-7.9c2.3-2.1,4.9-3.4,7.7-3.8c1.7-0.3,2.8,0.3,3.4,1.8c0.6,1.4,1.3,3,2,4.7c0.1,0.2,0.2,0.4,0.3,0.5
			c1.3,0,2.2,0.6,2.7,1.8c0.4,0.9,0.8,1.9,1.2,2.8c1.4,0.7,3.3,0.9,5.8,0.5c2.7-0.4,5-1.3,6.9-2.6c1.9-1.3,3.4-2.9,4.5-4.7
			s1.8-3.7,2.2-5.8C482.1,376.9,482.2,374.9,481.8,373z"/>
	</g>
	<path class="st2" d="M552.1,399.6c4.1-4.9,7.1-10.4,9.1-16.4c1.7-5.2,2.2-10.5,1.7-16.1c-0.1-0.9-0.2-1.7-0.3-2.6
		c-0.4-2.4-1-4.7-1.9-6.8c-0.2-0.4-0.3-0.8-0.5-1.1c-0.5-1.2-1.2-2.3-2-3.3c-0.8-1.1-1.8-2.1-3-3c-2.2-1.7-5.1-2.9-8.5-3.6
		c-3.4-0.7-7.6-0.6-12.6,0.2c-7.7,1.3-14.3,3.8-19.9,7.5c-5.6,3.7-10.3,8.2-14,13.5c-3.8,5.3-6.8,11-9,17.2
		c-2.2,6.2-3.8,12.4-4.7,18.6c-0.9,6.2-1.4,12.2-1.3,17.9c0,5.7,0.4,10.8,1.1,15.2c0.6,3.8,1.5,7.3,2.6,10.3
		c-8.7,2.1-16.3,4.9-22.8,8.5c-8.7,4.9-15.7,10.5-20.8,16.9c-2.3,2.9-4.3,5.9-5.9,8.9c-1.2,2.2-2.2,4.5-3,6.9
		c-0.6,1.6-1.1,3.3-1.5,4.9c-1.8,7.4-2,14.7-0.8,22c0.8,4.7,2,8.4,3.7,11.4c1.4,2.5,3.1,4.3,5.2,5.5c4.5,2.7,10.8,3.3,18.9,2
		c-0.4-0.6-0.9-1.2-1.4-1.9c-0.5-0.7-1-1.7-1.5-2.9c-0.5-1.2-1-2.8-1.6-4.7c-0.5-1.9-1.1-4.4-1.6-7.4c-1.4-8.6-1.8-15.8-1.3-21.7
		c0.6-5.9,1.9-10.8,4-14.6c2.1-3.8,4.8-6.8,8.2-8.9c3.4-2.1,7.1-3.6,11.1-4.4l-0.4,8.6L470,624l32.5-5.4l4.3-88.1l33-5.5l0.9-17.3
		l-27.7,4.6l-5.4,0.9l2.1-46.4c0.4,0,0.8,0,1.2,0c4.9,1,10.2,1,16.1,0c4.5-0.7,8.8-2,12.9-3.8c4-1.8,7.6-4.2,10.6-7.3
		c3-3.1,5.5-7.1,7.2-11.8c1.8-4.7,2.7-10.4,2.9-17.1c-3.1,3.8-6.8,7.3-11.3,10.5c-4.5,3.2-8.9,5.2-13.2,5.9
		c-2.8,0.5-5.3,0.3-7.2-0.4c-1-0.4-2-0.9-2.9-1.6c-0.8-0.6-1.5-1.2-2.1-2c-1.3-1.6-2.4-3.5-3.1-5.6c-0.7-2.1-1.3-4.3-1.7-6.6
		c-0.2-1.2-0.4-2.4-0.5-3.5c-0.1-1.1-0.2-2.3-0.2-3.6c6.7-1.6,12.9-4.1,18.7-7.6C543,408.7,547.9,404.5,552.1,399.6z M530,403.4
		c-1.9,1.5-4,2.7-6.1,3.6c-1.9,0.8-3.8,1.4-5.9,1.8c0.3-5.5,1-11,2.1-16.8c1.1-5.7,2.4-11,4.1-15.7c1.7-4.7,3.7-8.7,5.9-12
		c2.3-3.2,4.8-5.1,7.7-5.5c2.1-0.3,3.7,0.2,4.8,1.7c0.9,1.3,1.6,3,2.1,5.2c0.1,0.4,0.2,0.9,0.3,1.3c0.8,4.7,0.6,9.3-0.5,13.8
		c-1.1,4.6-2.9,8.8-5.4,12.6C536.7,397.3,533.6,400.6,530,403.4z"/>
	<path class="st2" d="M762.2,468.8l13.6-2.2l0.3-9.3l-8.3,1.4l-5.3,0.9c0.2-5.3,0.4-10.2,0.6-14.7c0.2-4.5,0.4-8.4,0.6-11.7
		c0.1-3.9,0.3-7.4,0.6-10.6l-32.7,10.1l-1.6,32.3l-7.5,1.2l-0.3,9.3l7.5-1.2l-0.4,7.9l-2.7,57.9l-0.9,0.2
		c-2.8,3.4-6.2,6.9-10.3,10.4c-1.3,1.2-2.7,2.4-4.1,3.6c0.2-2.5,0-5.4-0.5-8.7c-0.6-3.8-1.4-7.4-2.3-10.9c-0.9-3.5-2-8-3.4-13.6
		c-1.4-5.6-3.1-12.8-5.2-21.8c-2.1-8.9-4.7-20.7-7.7-35.2l-32.7,10.1c-1.6,11.7-3.7,23.5-6.2,35.3c-2.5,11.8-6,23.9-10.5,36.2
		c-2.9,2-5.3,5.1-7.1,9.1c-1.1,2.5-1.7,5.3-1.8,8.3c-0.5,0.6-0.9,1.3-1.4,1.9c-2.4,3.3-5,6.2-7.8,8.7c-2.8,2.6-6,4.7-9.4,6.5
		c-3.4,1.8-7.4,3.1-11.9,3.8c-5.2,0.9-9.4,0.4-12.5-1.5c-0.1-0.1-0.2-0.1-0.4-0.2c-3.1-2-5.3-6.9-6.6-14.6c-0.2-1.4-0.4-2.8-0.6-4.3
		c-0.2-1.5-0.3-3.1-0.4-4.8c6.7-1.6,12.9-4.1,18.7-7.6c5.8-3.5,10.8-7.7,14.9-12.7c4.1-4.9,7.1-10.4,9.1-16.5
		c1.9-6,2.4-12.2,1.3-18.6c-0.4-2.4-1-4.7-1.9-6.8c-0.2-0.4-0.3-0.8-0.5-1.1c-1.1-2.4-2.8-4.5-5-6.3c-2.2-1.7-5.1-2.9-8.5-3.6
		c-3.4-0.7-7.6-0.6-12.6,0.2c-7.7,1.3-14.3,3.8-19.9,7.5c-5.6,3.7-10.3,8.2-14,13.5c-3.8,5.3-6.8,11-9,17.2
		c-2.2,6.2-3.8,12.4-4.7,18.6c-0.9,6.2-1.4,12.2-1.3,17.9c0,5.7,0.4,10.8,1.1,15.2c1.7,10,4.9,17.5,9.8,22.4
		c1.4,1.4,2.8,2.6,4.4,3.5c7.4,4.5,16.4,5.9,27.2,4.1c7.5-1.2,14.2-3.6,20-7c5.8-3.4,10.9-7.5,15.4-12.3c3.2-3.4,6.1-7.1,8.7-11
		c0.5,1.2,1.1,2.5,1.8,3.7c0.8,1.4,1.7,2.7,2.8,3.9c0.5,0.5,0.9,1,1.4,1.5c1,1,2.1,2,3.3,2.8c3.2,2.3,7,3.9,11.4,5
		c4.4,1,9.5,1.1,15.2,0.2c2.9-0.5,5.8-1.2,8.9-2.2c3.1-1,6.1-2.3,9.1-3.9c3-1.7,5.8-3.5,8.4-5.7c2.6-2.1,4.9-4.7,6.9-7.6
		c4.8-3.9,9.8-8.6,15-14.1c2.1-2.2,4.2-4.6,6.2-7.2c0.1,1.8,0.3,3.6,0.6,5.4c0.3,1.9,0.7,3.7,1.3,5.4c1.5,4.7,3.8,8.6,6.9,11.8
		c0,0,0.1,0.1,0.1,0.1c4.4,4.3,10.5,5.8,18.5,4.5c2-0.3,4-0.9,6-1.7c2-0.8,4-2.2,5.8-4.1c1.8-1.9,3.5-4.5,5-7.8
		c1.5-3.3,2.6-7.4,3.5-12.5c-0.9,0.5-1.8,0.8-3,1.1c-1.1,0.3-2.1,0.5-2.8,0.6c-1.7,0.3-3.1,0.3-4.3,0c-0.9-0.2-1.7-0.6-2.3-1.2
		c-1.4-1.3-2.3-3.2-2.7-5.6c-0.4-2.3-0.4-5-0.2-8.1L762.2,468.8z M584.4,530.1c1-5.7,2.3-10.9,4-15.6c1.7-4.7,3.7-8.6,6-11.7
		c2.3-3.1,4.8-5,7.7-5.4c2.1-0.3,3.7,0.2,4.8,1.7c0.9,1.3,1.6,3,2.1,5.2c0.1,0.4,0.2,0.9,0.3,1.3c0.7,4.5,0.6,9-0.4,13.6
		c-1,4.6-2.8,8.7-5.2,12.5c-2.5,3.8-5.5,7.1-9.2,9.8c-2,1.5-4,2.7-6.2,3.7c-1.8,0.8-3.8,1.5-5.7,2
		C582.8,541.5,583.5,535.8,584.4,530.1z M677.9,561.2c-0.7,2.9-1.8,5.3-3.3,7.3c-1.5,2-3.5,3.5-5.8,4.6c-2.3,1.1-4.7,1.8-7.1,2.2
		c-4.3,0.7-7.6,0.3-10.1-1.3c-0.4-0.3-0.8-0.6-1.2-0.9c-2.5-2.3-4.3-6.1-5.1-11.3c0.8,1.1,1.8,1.8,3,1.9c1.2,0.2,2.4,0.2,3.6,0
		c3-0.5,5.2-2.1,6.7-4.7c1.3-2.4,1.8-4.9,1.5-7.4c0-0.2,0-0.4-0.1-0.6c-0.2-0.9-0.4-1.7-0.7-2.5c-0.4-0.8-0.9-1.6-1.5-2.2
		c-1.2-1.1-2.6-1.9-4.2-2.4c2.6-7.9,4.8-15.5,6.8-23c1.9-7.4,3.4-15,4.5-22.8c1.4,5.8,2.6,10.8,3.7,15.2c0.5,2.2,1.1,4.2,1.5,6
		c1.4,5.5,2.7,10.1,3.7,13.8c1,3.7,1.8,6.9,2.5,9.6c0.7,2.7,1.2,5.4,1.7,8.3C678.6,554.9,678.6,558.3,677.9,561.2z"/>
</g>
</svg>
