<?xml version="1.0" encoding="UTF-8" standalone="no"?>
<!DOCTYPE svg PUBLIC "-//W3C//DTD SVG 1.1//EN" "http://www.w3.org/Graphics/SVG/1.1/DTD/svg11.dtd">
<svg width="100%" height="100%" viewBox="0 0 750 226" version="1.1" xmlns="http://www.w3.org/2000/svg" xmlns:xlink="http://www.w3.org/1999/xlink" xml:space="preserve" xmlns:serif="http://www.serif.com/" style="fill-rule:evenodd;clip-rule:evenodd;stroke-linejoin:round;stroke-miterlimit:2;">
    <g id="Laag_2">
        <g id="Laag_3">
            <circle cx="353.8" cy="173" r="173" style="fill:rgb(254,242,238);fill-opacity:0.15;"/>
        </g>
        <g>
            <circle cx="353.8" cy="171.2" r="145.4" style="fill:rgb(254,242,238);fill-opacity:0.1;"/>
            <circle cx="353.8" cy="171.2" r="112.3" style="fill:rgb(254,242,238);fill-opacity:0.1;"/>
            <circle cx="353.8" cy="171.2" r="79.8" style="fill:rgb(254,242,238);fill-opacity:0.1;"/>
            <circle cx="353.8" cy="173" r="40.5" style="fill:rgb(254,242,238);"/>
        </g>
    </g>
    <g transform="matrix(1,0,0,1,0,5)">
        <g id="Laag_1">
            <g>
                <path d="M749.6,224.6L749.6,83.9C738,77.5 724.7,73.8 710.5,73.8C675.3,73.8 645.5,96.3 634.5,127.8C631.7,127.4 628.9,127.2 626.1,127.2C613.4,127.2 601.5,131 591.5,137.4C587.2,106.4 560.6,82.6 528.4,82.6C500.4,82.6 476.6,100.7 468.1,125.8C462.3,123.4 456,122.1 449.4,122.1C426.3,122.1 407,138.1 401.8,159.5C399.1,159 396.3,158.8 393.5,158.8C377.8,158.8 363.9,166.2 354.9,177.6C348.2,169.1 337.8,163.6 326.2,163.6C322.7,163.6 319.3,164.1 316.1,165C308.3,148.3 291.3,136.7 271.7,136.7C244.6,136.7 222.7,158.6 222.7,185.7C222.7,202.4 231,217.1 243.7,225.9L299.7,225.9C299.8,225.8 299.9,225.7 300.1,225.7C300.2,225.8 300.3,225.9 300.4,225.9L439.2,225.9C440,223.8 440.8,221.6 441.3,219.3C444,219.8 446.8,220 449.6,220C466.9,220 482.1,211 490.8,197.5C501.4,205.3 514.4,209.9 528.5,209.9C541.2,209.9 553.1,206.1 563.1,199.7C564.4,209.3 567.9,218.2 573,225.9L747.1,225.9C747.9,225.5 748.7,225.1 749.6,224.6Z" style="fill:rgb(235,241,248);fill-rule:nonzero;"/>
                <path d="M750,55C730.2,61.7 715.4,79.2 712.7,100.5C672.6,107.5 642.1,142.5 642.1,184.6C642.1,187.4 642.2,190.1 642.5,192.8C640,192.5 637.5,192.3 634.9,192.3C618.3,192.3 603.4,199.6 593.2,211.1C581.5,178 549.9,154.2 512.7,154.2C486.7,154.2 463.4,165.9 447.7,184.2C446.4,184.1 445.1,184.1 443.8,184.1C428.3,184.1 414.3,190.4 404.3,200.6C395.8,195.3 385.7,192.2 375,192.2C364.2,192.2 354.2,195.3 345.7,200.6C335.6,190.4 321.6,184.1 306.2,184.1C304.9,184.1 303.6,184.2 302.3,184.2C286.6,165.8 263.3,154.2 237.3,154.2C200.1,154.2 168.5,177.9 156.8,211.1C146.6,199.5 131.7,192.3 115.1,192.3C112.5,192.3 110,192.5 107.5,192.8C107.8,190.1 107.9,187.4 107.9,184.6C107.9,142.5 77.4,107.5 37.3,100.5C34.6,79.2 19.8,61.7 0,55L0,226L750,226L750,55Z" style="fill:white;fill-rule:nonzero;"/>
            </g>
        </g>
    </g>
</svg>
