<?xml version="1.0" encoding="utf-8"?>
<!-- Generator: Adobe Illustrator 19.2.1, SVG Export Plug-In . SVG Version: 6.00 Build 0)  -->
<svg version="1.1" id="Laag_1" xmlns:serif="http://www.serif.com/"
	 xmlns="http://www.w3.org/2000/svg" xmlns:xlink="http://www.w3.org/1999/xlink" x="0px" y="0px" viewBox="0 0 612 792"
	 style="enable-background:new 0 0 612 792;" xml:space="preserve">
<style type="text/css">
	.st0{fill:none;}
	.st1{fill:#F1C411;}
	.st2{fill:#ECF0F1;}
	.st3{fill:#FFFFFF;}
	.st4{fill:#BDC3C7;}
	.st5{fill:#E74C3C;}
	.st6{fill:#C0392B;}
	.st7{fill:#C38200;}
	.st8{fill:#2C3E50;}
	.st9{fill:#3498DB;}
	.st10{fill:#2980B9;}
</style>
<g>
	<path class="st0" d="M479.8,507.2c1.7-0.3,3.5-0.8,5.1-1.6c1.7-0.8,3-1.9,4.2-3.3c1.1-1.5,1.9-3.2,2.4-5.3c0.5-2.1,0.5-4.6,0.1-7.4
		c-0.4-2.1-0.7-4.1-1.2-6c-0.5-2-1.1-4.3-1.8-7c-0.7-2.7-1.6-6-2.7-10c-0.4-1.3-0.7-2.8-1.1-4.4c-0.7,3.6-1.4,7.1-2.3,10.6
		c-1.2,4.9-2.8,9.8-4.4,14.9c0.2,0.5,0.4,1.1,0.5,1.8c0,0.1,0,0.3,0.1,0.4c0.7,0.4,1.4,0.8,2,1.3c0.9,0.8,1.5,2,1.7,3.3
		c0.3,2,0,3.9-1.1,5.8c-1,1.9-2.6,3-4.9,3.4c-0.9,0.1-1.7,0.1-2.6,0c-0.9-0.1-1.6-0.6-2.2-1.4c0.2,1.4,0.6,2.7,0.9,3.8
		C474.3,507.4,476.8,507.7,479.8,507.2z"/>
	<path class="st0" d="M393.6,355.2c-2.1,0.4-3.9,1.7-5.6,4c-1.7,2.3-3,5.2-4.3,8.7c-1.2,3.5-2.2,7.3-3,11.4c-0.4,2-0.7,3.8-0.9,5.7
		c1.5-0.7,3-1.5,4.4-2.6c2.6-2,4.9-4.4,6.7-7.1c1.8-2.8,3.1-5.8,3.9-9.1c0.8-3.3,0.9-6.7,0.4-10c-0.1-0.4-0.1-0.7-0.2-0.9
		C394.5,355.2,394.1,355.2,393.6,355.2z"/>
	<path class="st0" d="M105.3,404.6l1.7-37.2c-3,3.3-5.9,7.7-8.6,13.2c-3.3,6.6-6.2,13.8-8.9,21.8c1.8,0.1,3.6,0.3,5.4,0.4
		C98.5,403.2,102,403.8,105.3,404.6z"/>
	<path class="st0" d="M440.2,455.7c-2.1,0.4-3.9,1.7-5.6,3.9c-1.7,2.2-3.1,5.1-4.4,8.5c-1.2,3.4-2.2,7.2-2.9,11.3
		c-0.4,2-0.7,4-0.9,5.9c1.6-0.7,3-1.6,4.5-2.7c2.6-2,4.9-4.4,6.7-7.1c1.8-2.8,3-5.8,3.8-9.1c0.7-3.3,0.9-6.6,0.3-9.9
		c-0.1-0.4-0.1-0.7-0.2-0.9C441.2,455.6,440.7,455.6,440.2,455.7z"/>
	<path class="st1" d="M138.3,327.2l5.6-0.9c31.5-54.3,90.3-91,157.4-91c54,0,102.7,23.7,136,61.3c-33.4-40.2-83.7-66-139.7-66
		c-64.5,0-124.7,34.8-157.1,90.8l-0.1,0.1l-12,1.9v-0.1c0,0.1-0.1,0.1-0.1,0.1l4.4,4.6L138.3,327.2z"/>
	<path class="st1" d="M146.5,512.6c-4-6.5-7.5-13.1-10.7-20l-3.5-5.4l0.1,0.2C136.5,496.2,141.3,504.7,146.5,512.6z"/>
	<path class="st1" d="M436.7,542.7c-1.6,1.7-3,3.1-4.3,4.4c-36,36-84,55.9-134.9,55.9c-51,0-98.9-19.9-134.9-56
		c-3.8-3.8-7.5-7.8-10.9-11.9c4.6,5.8,9.6,11.4,14.9,16.7c36,36,83.8,55.8,134.7,55.8S400,587.9,436,551.8c1.5-1.5,2.8-2.9,4.2-4.4
		l-2.7-5.6L436.7,542.7z"/>
	<path class="st1" d="M459.6,311.1c18.2,29.1,28.3,62.7,28.8,97.8v0.3l-3.8,0.6l-5.7,0.9l4.1,4.6l8.7-1.3
		C491.1,376.8,480,341.3,459.6,311.1z"/>
	<path class="st1" d="M55.2,491.9l0.1,0.1C55.3,492,55.3,492,55.2,491.9z"/>
	<path class="st1" d="M124.6,344.2h0.1H124.6z"/>
	<path class="st1" d="M107,367.4l0.4-8.8c-4.5,3.4-8.7,9.1-12.6,17c-3.9,7.9-7.4,16.8-10.5,26.7c1.7,0.1,3.5,0.1,5.2,0.2
		c2.7-8,5.7-15.3,8.9-21.8C101.2,375,104.1,370.7,107,367.4z"/>
	<path class="st1" d="M52.9,417.1c-3,1.8-4.9,4.2-5.6,7.2c0.4-0.1,1,0.4,1.7,1.4c0.7,1,1.1,2.1,1.3,3.3c0.3,2-0.3,3.6-2,5.1
		c-1.6,1.5-3.7,2.4-6.2,2.8c-2.1,0.4-4.1,0.2-5.9-0.4l-0.2,2.5c0.6,0.7,1.3,1.3,2.1,1.7c2.2,1.2,4.8,1.7,7.6,1.2
		c2.5-0.4,4.6-1.4,6.2-2.8c1.6-1.5,2.2-3.1,2-5.1c-0.2-1.2-0.7-2.3-1.3-3.3c-0.7-1-1.2-1.5-1.7-1.4c0.7-3,2.5-5.4,5.6-7.2
		c1.7-1,3.8-1.9,6.2-2.8c0.8-2.2,1.6-4.5,2.5-6.8C60.1,413.8,56.1,415.3,52.9,417.1z"/>
	<path class="st1" d="M135.3,350C135.3,350,135.2,350,135.3,350l-3.6-5.1l-5.8,124.9l-23.6,3.9l3.6,5.1l23.6-3.9L135.3,350z"/>
	<path class="st1" d="M93,409.9c-3.6-0.3-7.2-0.3-10.9-0.1c-2,7.2-3.7,14.5-5.1,22c-1.5,7.5-2.6,14.6-3.3,21.5
		c-0.8,6.9-1.2,13.3-1.4,19.2c-0.1,5.9,0.1,10.9,0.8,15.1c0.5,3.2,1.2,5.4,1.9,6.6s1.4,2.2,2.1,2.8c-2.2,0.4-4.6,0.7-7.2,0.9
		c-2.6,0.2-5.1-0.1-7.5-0.8c-2.4-0.7-4.5-2.2-6.4-4.3c-0.2-0.3-0.4-0.5-0.7-0.8l3.5,4.9c0.1,0.1,0.2,0.3,0.3,0.4l0.1,0.2
		c0.1,0.1,0.2,0.4,0.4,0.5c1.9,2.1,4,3.6,6.4,4.3s4.9,1,7.5,0.8s5-0.5,7.2-0.9c-0.7-0.7-1.4-1.6-2.1-2.8c-0.7-1.2-1.3-3.4-1.9-6.6
		c-0.7-4.1-0.9-9.2-0.8-15.1c0.1-5.9,0.6-12.3,1.4-19.2c0.8-6.9,1.9-14.1,3.3-21.5c1.5-7.5,3.2-14.8,5.1-22
		c3.7-0.3,7.3-0.2,10.9,0.1c2.5,0.2,5.3,0.7,8.3,1.3l0.2-4.1C100.6,410.9,96.6,410.2,93,409.9z"/>
	<path class="st1" d="M164.8,388.3c-2.5,0.4-4.6,0.9-6.3,1.5c-1.7,0.6-2.5,1.5-2.2,2.7c0.1,0.2,0.1,0.4,0.3,0.4
		c0.1,0,0.4,0.1,0.7,0.2c0.3,0.1,0.6,0.4,0.8,0.7c0.2,0.4,0.4,1,0.6,2c0.5,3-0.1,5.4-1.7,7.1c-1.7,1.7-3.6,2.7-5.7,3
		c-1.9,0.3-3.7,0-5.4-0.9c-0.7-0.4-1.3-0.9-1.8-1.5l3.5,4.9c0.5,0.7,1.2,1.2,1.9,1.6c1.8,0.9,3.6,1.2,5.4,0.9c2.2-0.4,4.1-1.4,5.7-3
		s2.2-4.1,1.7-7.1c-0.1-1-0.4-1.7-0.6-2s-0.5-0.6-0.8-0.7c-0.3-0.1-0.5-0.2-0.7-0.2c-0.1,0-0.3-0.1-0.3-0.4
		c-0.2-1.2,0.6-2.1,2.2-2.7c1.7-0.6,3.8-1.1,6.3-1.5l3.3-0.6l2.2-6L164.8,388.3z"/>
	<path class="st1" d="M204.5,444.9c-0.5,2.2-1.5,4.4-3,6.4c-1.5,2-3.3,3.8-5.6,5.3c-2.2,1.5-5,2.5-8.2,3l-43.4,7.2l3.6,5.1l43.4-7.2
		c3.2-0.5,5.9-1.5,8.2-3c2.2-1.5,4.1-3.3,5.6-5.3c1.5-2,2.5-4.1,3-6.4c0.5-2.2,0.7-4.3,0.4-6.1c-0.2-1.5-0.8-2.8-1.5-4l-0.1-0.2
		l-0.1-0.1l-3.5-4.9c0.8,1.2,1.3,2.5,1.6,4.1C205.1,440.7,205,442.7,204.5,444.9z"/>
	<path class="st1" d="M177.9,448.9l26.7-70.6l-3.6-5.1l-28.7,76C173.6,449.1,175.5,449,177.9,448.9z"/>
	<path class="st1" d="M203,434.4C203,434.4,203,434.5,203,434.4L203,434.4z"/>
	<path class="st1" d="M201.4,432.9C201.4,432.9,201.5,432.9,201.4,432.9z"/>
	<path class="st1" d="M321.1,379.2c1.9-2.3,3.6-4.3,5.3-5.7c1.7-1.5,3.6-2.5,5.6-2.8c0.2,0,0.4-0.1,0.5-0.1
		c-0.1-0.1-0.1-0.2-0.2-0.4c-0.5-1.2-1-2.3-1.5-3.4c-0.4-1-1.3-1.5-2.5-1.3c-2.1,0.4-3.9,1.3-5.6,2.8c-1.7,1.5-3.4,3.4-5.3,5.7
		l-2.8,64.5l-23.6,3.9l0.4-9.5c-1.5,2.3-3,4.3-4.6,5.9c-2.7,2.6-5.4,4.5-8,5.7c-2.8,1.2-5.2,1.9-7.4,2.2c-4.7,0.8-8.6,0.1-11.9-2.1
		c-0.6-0.4-1.2-0.9-1.7-1.4c1.4,2.8,3.1,4.9,5.3,6.5c3.2,2.2,7.2,2.8,11.9,2.1c2.2-0.4,4.6-1.1,7.4-2.2c2.8-1.2,5.4-3,8-5.7
		c0.3-0.3,0.7-0.7,0.9-1l3.3,4.6l21.6-3.6c0.6-1.7,1.3-3.3,2.2-5L321.1,379.2z"/>
	<path class="st1" d="M233.3,429.9c0.3,1.9,0.9,3.4,1.9,4.6c0.5,0.7,1.2,1.1,2,1.3c-0.1-0.3-0.1-0.5-0.1-0.8c-0.2-1.5-0.3-3-0.3-4.6
		l2.6-57.7l-3.6-5.1l-2.6,57.7C233,426.9,233.1,428.4,233.3,429.9z"/>
	<path class="st1" d="M273.8,423.8c0.4,2.3,1.2,3.8,2.4,4.5c0.4,0.2,0.7,0.4,1.2,0.4c-0.2-1.6-0.3-3.3-0.2-5.2l2.6-57.7l-3.6-5.1
		l-2.6,57.7C273.4,420.4,273.5,422.2,273.8,423.8z"/>
	<path class="st1" d="M349.4,364.8c-0.3,1.5-0.8,2.9-1.6,4.2c-0.8,1.3-1.9,2.5-3.3,3.4c-1.4,0.9-3,1.6-5,1.9
		c-1.8,0.3-3.2,0.1-4.2-0.4c0.2,0.4,0.4,0.9,0.6,1.3c0.5,1.2,1.3,2.3,2.3,3.3s2.7,1.2,4.9,0.9c2-0.3,3.6-0.9,5-1.9
		c1.4-0.9,2.5-2.1,3.3-3.4c0.8-1.3,1.3-2.7,1.6-4.2c0.3-1.5,0.3-3,0-4.4c-0.5-3.2-2-5.9-4.3-8c-0.1-0.1-0.1-0.1-0.2-0.2
		c0.4,1,0.7,2,0.9,3.2C349.7,361.8,349.6,363.3,349.4,364.8z"/>
	<path class="st1" d="M322,359.4v-0.5l-3.6-5.1l-0.6,10.7C319.2,362.6,320.6,361,322,359.4z"/>
	<path class="st1" d="M247.6,443.1c-1.8,2.4-3.6,4.3-5.5,5.7c-1.9,1.5-3.8,2.5-5.7,3.2c-1.9,0.7-3.7,1.2-5.5,1.5
		c-4.9,0.8-9.4-0.1-13.3-2.6c-0.6-0.4-1.2-0.8-1.7-1.3c1.3,2.8,3,4.9,5.3,6.4c3.9,2.5,8.3,3.4,13.3,2.6c1.7-0.3,3.6-0.8,5.5-1.5
		c1.9-0.7,3.8-1.8,5.7-3.2c1.9-1.5,3.8-3.3,5.5-5.7c1.5-2,3-4.5,4.3-7.5c-1.2-1.8-2.2-4.1-2.9-6.7
		C251,437.6,249.4,440.7,247.6,443.1z"/>
	<path class="st1" d="M338.2,432.2c-2.5,1.5-4.4,3.7-5.9,6.5c-1.5,2.8-2.5,6.3-2.9,10.6c-0.4,4.3-0.1,9.6,0.9,15.7
		c0.4,2.2,0.7,4,1.2,5.4c0.4,1.4,0.8,2.5,1.2,3.4s0.7,1.6,1.1,2.1c0.4,0.5,0.7,0.9,1,1.4c-5.9,0.9-10.4,0.5-13.7-1.5
		c-1.5-0.9-2.8-2.2-3.8-4v0.1l4.3,6c0.9,1.2,1.9,2.2,3.1,2.9c3.3,2,7.8,2.4,13.7,1.5c-0.3-0.4-0.7-0.9-1-1.4
		c-0.4-0.5-0.7-1.2-1.1-2.1c-0.4-0.9-0.7-2-1.2-3.4c-0.4-1.4-0.8-3.2-1.2-5.4c-1-6.2-1.3-11.5-0.9-15.7c0.4-4.3,1.4-7.8,2.9-10.6
		c1.5-2.8,3.5-4.9,5.9-6.5c1.3-0.8,2.7-1.5,4.1-2l0.3-6.2C343.3,429.6,340.7,430.7,338.2,432.2z"/>
	<path class="st1" d="M404,384.8c3-3.6,5.1-7.5,6.6-11.9c1.4-4.4,1.7-8.8,0.9-13.6c-0.4-2.1-0.9-4-1.7-5.8c-0.2-0.5-0.5-1-0.9-1.5
		l-0.7,4.1h-0.1c0.4,4.1,0,7.9-1.2,11.7c-1.4,4.4-3.6,8.3-6.6,11.9c-3,3.6-6.6,6.7-10.8,9.2c-4.2,2.5-8.8,4.4-13.6,5.5
		c0.1,0.9,0.1,1.7,0.1,2.6c0.1,0.8,0.2,1.7,0.4,2.5c0.3,1.7,0.7,3.3,1.2,4.8c0.5,1.5,1.3,2.9,2.2,4.1c0.4,0.6,1,1,1.5,1.5
		c-0.1-0.1-0.1-0.3-0.2-0.5c-0.5-1.5-0.9-3.1-1.2-4.8c-0.1-0.9-0.3-1.7-0.4-2.5c-0.1-0.8-0.1-1.7-0.1-2.6c4.9-1.2,9.4-3,13.6-5.5
		C397.4,391.4,400.9,388.4,404,384.8z"/>
	<path class="st1" d="M380.8,379.4c0.8-4.1,1.7-8,3-11.4c1.2-3.4,2.7-6.3,4.3-8.7c1.7-2.3,3.5-3.7,5.6-4c0.5-0.1,0.9-0.1,1.4,0
		c-0.4-1.6-0.9-2.9-1.5-3.8c-0.8-1.1-2-1.5-3.5-1.2c-2.1,0.4-3.9,1.7-5.6,4c-1.7,2.3-3,5.2-4.3,8.7c-1.2,3.5-2.2,7.3-3,11.4
		c-0.8,4.1-1.3,8.2-1.5,12.2c1.5-0.3,2.9-0.7,4.3-1.3C380.1,383.2,380.4,381.3,380.8,379.4z"/>
	<path class="st1" d="M367.5,474.7l-3.1,63.9l-23.6,3.9l3.6,5.1l23.6-3.9l3.1-63.9l23.9-3.9l0.7-12.6l-3.6-5.1l-0.7,12.6
		L367.5,474.7z"/>
	<path class="st1" d="M399.3,420.4c-2.2,2.2-4.8,4.1-7.7,5.3c-2.9,1.3-6,2.2-9.4,2.8c-4.3,0.7-8.1,0.7-11.7,0c-0.3,0-0.6,0.1-0.9,0
		l-1.5,33.6l3.9-0.7l1.2-27.9h0.9c3.6,0.7,7.4,0.7,11.7,0c3.3-0.5,6.4-1.5,9.4-2.8c2.9-1.3,5.5-3,7.7-5.3c2.2-2.2,4-5.1,5.2-8.6
		c1.3-3.4,2-7.5,2.1-12.4l-1.8-2.4l-1.8-2.7c-0.1,4.9-0.8,9-2.1,12.4C403.2,415.3,401.4,418.2,399.3,420.4z"/>
	<path class="st1" d="M461.2,506.9c-1.9,2.8-4,5.5-6.3,8c-3.3,3.5-7,6.5-11.2,8.9c-4.2,2.5-9,4.2-14.5,5.1c-7.8,1.3-14.4,0.3-19.7-3
		c-1.2-0.7-2.2-1.6-3.2-2.5c1.7,3.4,4.1,5.9,6.8,7.6c5.4,3.3,11.9,4.3,19.7,3c5.4-0.9,10.3-2.6,14.5-5.1c4.2-2.5,7.9-5.4,11.2-8.9
		c2.2-2.4,4.2-4.9,6-7.5c-0.7-0.9-1.5-1.8-2-2.8C462,508.7,461.5,507.7,461.2,506.9z"/>
	<path class="st1" d="M427.4,479.5c0.7-4.1,1.7-7.9,2.9-11.3c1.2-3.4,2.7-6.2,4.4-8.5c1.7-2.2,3.5-3.6,5.6-3.9
		c0.5-0.1,0.9-0.1,1.4,0c-0.4-1.6-0.9-2.9-1.5-3.8c-0.8-1.1-2-1.5-3.5-1.2c-2.1,0.4-3.9,1.7-5.6,3.9c-1.7,2.2-3.1,5.1-4.4,8.5
		c-1.2,3.4-2.2,7.2-2.9,11.3c-0.7,4.1-1.2,8.3-1.4,12.5c1.5-0.4,2.8-0.8,4.1-1.5C426.8,483.4,427.1,481.4,427.4,479.5z"/>
	<path class="st1" d="M555.2,505.2c-1.4,1.4-2.8,2.4-4.2,3c-1.5,0.6-2.9,1-4.4,1.2c-5.8,0.9-10.3-0.1-13.4-3.3l-0.1-0.1
		c1,2,2.2,3.7,3.7,5.1c3.2,3.1,7.6,4.2,13.4,3.3c1.5-0.2,2.9-0.7,4.4-1.2c1.5-0.6,2.9-1.6,4.2-3c1.3-1.4,2.5-3.3,3.6-5.7
		c1.1-2.4,1.9-5.4,2.5-9.1l-3.6-5.1c-0.7,3.7-1.5,6.7-2.5,9.1C557.7,501.9,556.5,503.8,555.2,505.2z"/>
	<path class="st1" d="M484.7,462.2c-0.8-3.2-1.7-6.8-2.7-11c-0.7,5.7-1.8,11.2-3.3,16.5c-1.4,5.4-3,10.9-4.9,16.7
		c1.2,0.4,2.2,0.9,3,1.7c0.4,0.4,0.8,0.9,1.1,1.6c1.6-5.1,3.1-10.1,4.4-14.9C483.4,469.3,484.1,465.8,484.7,462.2z"/>
	<path class="st1" d="M526.7,489.7c-1.5,1.9-3,3.6-4.5,5.2c-3.8,4-7.4,7.4-10.9,10.2c-1.5,2.2-3.1,4-5,5.5c-1.9,1.5-3.9,2.9-6.1,4.1
		c-2.2,1.2-4.4,2.2-6.6,2.8c-2.2,0.7-4.4,1.2-6.5,1.6c-4.1,0.7-7.8,0.7-11-0.1c-3.2-0.7-5.9-2-8.3-3.6c-0.9-0.7-1.7-1.3-2.4-2
		c0.2,0.4,0.4,0.7,0.6,1.1c1.4,2.4,3.2,4.4,5.4,6c2.3,1.7,5.1,2.8,8.3,3.6c3.2,0.7,6.9,0.8,11,0.1c2.1-0.4,4.2-0.9,6.5-1.6
		c2.2-0.7,4.4-1.7,6.6-2.8c2.2-1.2,4.2-2.5,6.1-4.1c1.9-1.5,3.6-3.4,5-5.5c3.5-2.8,7.1-6.2,10.9-10.2c0.7-0.8,1.5-1.6,2.2-2.5
		c-0.4-1.2-0.7-2.5-0.9-3.9C526.9,492.3,526.8,491,526.7,489.7z"/>
	<path class="st1" d="M473.7,503.8c0.9,0.1,1.7,0.1,2.6,0c2.2-0.4,3.8-1.5,4.9-3.4c1-1.9,1.4-3.8,1.1-5.8c-0.2-1.5-0.8-2.5-1.7-3.3
		c-0.6-0.5-1.2-0.9-2-1.3c0.2,1.8-0.1,3.6-1.1,5.4c-1,1.9-2.6,3-4.9,3.4c-0.9,0.1-1.7,0.1-2.6,0c-0.9-0.1-1.6-0.6-2.2-1.4
		c0.7,3.8,1.9,6.6,3.7,8.2c0.3,0.2,0.6,0.4,0.9,0.7c-0.4-1.1-0.7-2.4-0.9-3.8C472.1,503.2,472.8,503.7,473.7,503.8z"/>
	<path class="st1" d="M553.3,412.5c-0.1,3.3-0.3,6.8-0.4,10.7l3.8-0.7c0.1-1.7,0.1-3.4,0.2-5c0.1-3.3,0.3-6.1,0.4-8.5
		c0.1-2.8,0.2-5.4,0.4-7.7l-3.6-5.1c-0.2,2.2-0.3,4.9-0.4,7.7C553.6,406.4,553.4,409.2,553.3,412.5z"/>
	<path class="st1" d="M511.2,467.7c1,4.1,1.8,7.3,2.5,9.9c0.7,2.5,1.2,5.1,1.7,7.9c0.4,2.4,0.5,4.5,0.4,6.3c1-0.9,2-1.7,3-2.6
		c-0.4-2.2-0.9-4.5-1.4-6.6c-0.7-2.5-1.5-5.8-2.5-9.9c-1-4.1-2.2-9.3-3.8-15.8c-1.5-6.5-3.4-15-5.6-25.5l-3.6-5.1
		c2.2,10.5,4.1,19.1,5.6,25.5C509,458.4,510.2,463.7,511.2,467.7z"/>
	<path class="st1" d="M453.6,468.2c-1.4,4.4-3.6,8.3-6.6,12c-3,3.6-6.6,6.7-10.8,9.2c-4.2,2.5-8.8,4.4-13.6,5.5
		c0.1,1.2,0.2,2.4,0.3,3.5c0.1,1.1,0.3,2.2,0.4,3.1c0.9,5.6,2.5,9.1,4.8,10.6c0.1,0.1,0.1,0.1,0.3,0.1c-0.6-1.6-1-3.4-1.4-5.7
		c-0.1-1-0.3-2-0.4-3.1c-0.1-1.1-0.2-2.2-0.3-3.5c4.9-1.2,9.4-3,13.6-5.5c4.2-2.5,7.8-5.6,10.8-9.2c3-3.6,5.1-7.5,6.6-12
		c1.4-4.4,1.7-8.8,0.9-13.5c-0.4-2.1-0.9-4-1.7-5.8c-0.7-1.7-1.9-3-3.3-4.3c0.7,1.5,1.1,3.2,1.4,4.9
		C455.2,459.3,454.9,463.8,453.6,468.2z"/>
	<path class="st1" d="M523.6,434.7l3.6,5.1l1.5-0.3l0.3-5.7L523.6,434.7z"/>
	<path class="st1" d="M556.3,435l9.9-1.6l0.2-6.7l-3.6-5.1l-0.2,6.7l-9.9,1.6l-2.4,50.9c-0.2,2.2-0.1,4.2,0.1,5.9
		c0.3,1.7,0.9,3.1,2,4.1c0.4,0.4,1,0.7,1.7,0.9c-0.2-1.6-0.3-3.6-0.1-5.7L556.3,435z"/>
	<path class="st1" d="M406.4,349.4c0.9,0.8,1.8,1.7,2.5,2.7l-4.2-5.9c0.6,0.7,1.1,1.5,1.5,2.4C406.3,348.8,406.4,349.1,406.4,349.4z
		"/>
	<path class="st1" d="M406.4,349.4c0.7,1.5,1.1,3.2,1.4,4.9c0.1,0.7,0.2,1.2,0.2,1.9h0.1l0.7-4.1C408.2,351,407.4,350.2,406.4,349.4
		z"/>
	<path class="st2" d="M488.4,408.9c-0.6-35.1-10.6-68.7-28.8-97.8c-7.6-12.2-16.7-23.6-27-34c-36-36-84-55.9-134.9-55.9
		s-98.9,19.9-134.9,55.9c-13.6,13.6-24.9,28.9-33.9,45.7l-0.3,0.6v0.1l12-1.9l0.1-0.1c32.4-56,92.7-90.8,157.1-90.8
		c56,0,106.3,25.7,139.7,66c25.7,31,41.3,70.6,41.8,113.7v0.4l5.7-0.9l3.8-0.6L488.4,408.9z"/>
	<path class="st2" d="M132.3,487.1L132.3,487.1L132.3,487.1z"/>
	<path class="st2" d="M437.5,541.9l-15.9,2.5l-0.1,0.1c-33.8,31.6-77.8,49.1-123.9,49.1c-61.1,0-117.6-31-151-80.9
		c-5.3-8-10.1-16.4-14.1-25.2l-0.1-0.2v-0.1l-9.7,1.5l0.2,0.4c7.4,16.7,17,32.1,28.9,46.1c3.5,4.1,7.1,8,10.9,11.9
		c36,36,84,55.9,134.9,55.9s98.9-19.9,134.9-55.9c1.3-1.3,2.6-2.7,4.3-4.4L437.5,541.9z"/>
	<path class="st1" d="M32.2,433.4l3.6,5c-0.6-0.8-0.9-1.7-1.3-2.8C33.6,435,32.8,434.3,32.2,433.4z"/>
	<path class="st2" d="M36.2,439C36.2,438.9,36.1,438.9,36.2,439z"/>
	<path class="st1" d="M34.7,435.7c-0.1,0-0.1-0.1-0.1-0.1c0.3,1.1,0.7,2,1.3,2.8l0.4,0.6l0.2-2.5C35.8,436.2,35.2,436,34.7,435.7z"
		/>
	<path class="st1" d="M450.4,454.5l5.2-2l-4-5.6h-1.2V454.5z"/>
	<path class="st1" d="M481.3,492l-4.1,0.8v-4.5l0.9-0.6L481.3,492z"/>
	<path class="st1" d="M407.9,526.1l-4-5.7l-2.3-4.6h12L407.9,526.1z"/>
	<path class="st1" d="M344.3,358l3.6,1.1l3.1,1.2l-3.9-5.5L344.3,358z"/>
	<path class="st1" d="M538.8,509.6l-3.8-0.4l-4.4-6.1l5,1.7L538.8,509.6z"/>
	<path class="st2" d="M124.8,344.2l6.9,0.7C129.6,344.4,127.3,344.1,124.8,344.2z"/>
	<path class="st2" d="M202.2,433.5c-0.2-0.2-0.4-0.4-0.7-0.5l1.5,1.5C202.7,434.1,202.5,433.8,202.2,433.5z"/>
	<path class="st2" d="M295.1,438.1c-0.4,0.5-0.7,1-1,1.5h0.9L295.1,438.1z"/>
	<path class="st2" d="M332.5,370.6c0.5,1,1.2,2,2.1,2.8c0.2,0.2,0.4,0.4,0.7,0.5c-0.3-0.7-0.7-1.4-0.9-2
		C334.1,371.1,333.4,370.6,332.5,370.6z"/>
	<g>
		<path class="st2" d="M124.7,344.2h-0.1c-2.4,0.1-4.4,0.2-5.9,0.5c-4.9,0.8-9.7,2.9-14.3,6.3c-4.6,3.4-9,7.7-13.2,12.9
			c-4.2,5.2-8.1,11.2-11.8,17.8c-3.7,6.6-7,13.5-10.2,20.7c-3.6,0.2-6.5,0.6-8.9,0.9c-4.7,0.8-9,2-12.8,3.7
			c-3.8,1.7-7.1,3.8-9.8,6.1c-2.6,2.3-4.6,4.9-5.9,7.6c-1.3,2.8-1.7,5.5-1.2,8.2c0.3,1.7,0.9,3.2,1.7,4.4c0.6,0.9,1.4,1.6,2.3,2.2
			c0.1,0,0.1,0.1,0.1,0.1c0.6,0.3,1.2,0.6,1.7,0.8c1.8,0.6,3.7,0.7,5.9,0.4c2.5-0.4,4.6-1.4,6.2-2.8c1.6-1.5,2.2-3.1,2-5.1
			c-0.2-1.2-0.7-2.3-1.3-3.3c-0.7-1-1.2-1.5-1.7-1.4c0.7-3,2.5-5.4,5.6-7.2c3-1.8,7.2-3.3,12.3-4.4c-0.9,2.2-1.7,4.5-2.5,6.8
			c-1.6,4.6-3,9.2-4.3,13.8c-1.9,6.9-3.4,13.4-4.6,19.7s-1.9,11.9-2.2,17.1c-0.3,5.2-0.1,9.7,0.4,13.4c0.6,3.6,1.6,6.5,3,8.6
			c0,0.1,0.1,0.1,0.1,0.1v0.1c0.2,0.3,0.4,0.6,0.7,0.8c1.9,2.1,4,3.6,6.4,4.3c2.4,0.7,4.9,1,7.5,0.8s5-0.5,7.2-0.9
			c-0.7-0.7-1.4-1.6-2.1-2.8c-0.7-1.2-1.3-3.4-1.9-6.6c-0.7-4.1-0.9-9.2-0.8-15.1c0.1-5.9,0.6-12.3,1.4-19.2
			c0.8-6.9,1.9-14.1,3.3-21.5c1.5-7.5,3.2-14.8,5.1-22c3.7-0.3,7.3-0.2,10.9,0.1c3.6,0.3,7.6,1,12.1,2.2l-0.2,4.1l-2.6,57.4
			l23.6-3.9l5.8-124.9L124.7,344.2z M84.3,402.2c3-9.9,6.6-18.8,10.5-26.7c3.9-7.9,8.1-13.5,12.6-17l-0.4,8.8l-1.7,37.2
			c-3.4-0.8-6.9-1.4-10.4-1.7c-1.8-0.2-3.6-0.4-5.4-0.4C87.8,402.2,86.1,402.2,84.3,402.2z"/>
		<path class="st2" d="M203.3,434.7l-0.1-0.2c0-0.1-0.1-0.1-0.1-0.1l-1.5-1.5c-1.3-0.9-3-1.2-5.1-0.8c-3,0.5-5.2,1.7-6.5,3.6
			c-1.3,1.8-1.7,3.6-1.5,5.1c0.1,0.9,0.5,1.6,1.1,2.2c0.6,0.6,1.5,0.8,2.5,0.7v0.6c-0.2,1.1-0.9,1.9-2,2.5c-1.4,0.7-3.1,1.2-5.1,1.5
			c-2.2,0.4-4.5,0.6-6.9,0.7h-0.1c-2.4,0.1-4.3,0.2-5.7,0.4l28.6-76.1l-42.1,7c-3,0.5-5.5,1.5-7.7,3c-2.2,1.5-3.9,3.2-5.3,5.1
			c-1.4,1.9-2.3,3.9-2.9,6c-0.6,2.1-0.7,4-0.4,5.7c0.2,1.5,0.7,2.6,1.5,3.6c0.5,0.6,1.1,1.1,1.8,1.5c1.8,0.9,3.6,1.2,5.4,0.9
			c2.2-0.4,4.1-1.4,5.7-3s2.2-4.1,1.7-7.1c-0.1-1-0.4-1.7-0.6-2c-0.2-0.4-0.5-0.6-0.8-0.7c-0.3-0.1-0.5-0.2-0.7-0.2
			c-0.1,0-0.3-0.1-0.3-0.4c-0.2-1.2,0.6-2.1,2.2-2.7c1.7-0.6,3.8-1.1,6.3-1.5l9.2-1.5l-2.2,6l-27.5,74l43.4-7.2
			c3.2-0.5,5.9-1.5,8.2-3c2.2-1.5,4.1-3.3,5.6-5.3c1.5-2,2.5-4.1,3-6.4c0.5-2.2,0.7-4.3,0.4-6.1C204.6,437.2,204,435.9,203.3,434.7z
			"/>
		<path class="st2" d="M349.4,360.5c-0.2-1.2-0.5-2.2-0.9-3.2c-0.7-1.8-1.9-3.5-3.4-4.9c-2.3-2.2-5.4-3-9.1-2.4
			c-3.3,0.5-6.5,2.2-9.6,4.9c-1.5,1.4-3,2.8-4.4,4.4c-1.5,1.6-2.8,3.3-4.2,5.1l0.6-10.7l-23.6,3.9l-2.5,54.6
			c-0.5,4.3-1.7,8-3.4,11.1c-1.8,3.1-4.3,4.9-7.5,5.4c-1.7,0.3-3,0.3-4.1,0c-0.4-0.1-0.8-0.3-1.2-0.4c-1.2-0.7-2-2.2-2.4-4.5
			c-0.3-1.7-0.4-3.4-0.2-5.4l2.6-57.7l-23.6,3.9l-2.5,54.5c-0.5,4.4-1.7,8-3.4,11.2s-4.2,4.9-7.3,5.4c-0.9,0.1-1.6,0.1-2.2-0.1
			c-0.8-0.2-1.5-0.7-2-1.3c-0.9-1.2-1.5-2.8-1.9-4.6c-0.2-1.5-0.3-3-0.3-4.6l2.6-57.7l-23.6,3.9l-2.5,54.5
			c-0.2,4.3-0.1,7.9,0.4,10.9c0.9,5.9,3,10.2,5.9,12.8c0.5,0.5,1.1,0.9,1.7,1.3c3.9,2.5,8.3,3.4,13.3,2.6c1.7-0.3,3.6-0.8,5.5-1.5
			c1.9-0.7,3.8-1.8,5.7-3.2c1.9-1.5,3.8-3.3,5.5-5.7c1.8-2.4,3.5-5.4,5-9.1c0.7,2.6,1.7,4.9,2.9,6.7c0.7,1,1.5,2,2.3,2.8
			c0.5,0.5,1.1,0.9,1.7,1.4c3.2,2.2,7.2,2.8,11.9,2.1c2.2-0.4,4.6-1.1,7.4-2.2s5.4-3,8-5.7c1.6-1.6,3.2-3.6,4.6-5.9l-0.4,9.5
			l23.6-3.9l2.8-64.5c1.9-2.3,3.6-4.3,5.3-5.7c1.7-1.5,3.6-2.5,5.6-2.8c1.2-0.2,2,0.2,2.5,1.3c0.4,1,0.9,2.2,1.5,3.4
			c0.1,0.1,0.1,0.3,0.2,0.4c0.9,0,1.6,0.4,2,1.3c0.3,0.7,0.6,1.4,0.9,2c1,0.5,2.4,0.7,4.2,0.4c2-0.3,3.6-0.9,5-1.9
			c1.4-0.9,2.5-2.1,3.3-3.4c0.8-1.3,1.3-2.7,1.6-4.2C349.6,363.3,349.7,361.8,349.4,360.5z"/>
	</g>
	<path class="st2" d="M400.3,379.8c3-3.6,5.1-7.5,6.6-11.9c1.2-3.8,1.6-7.6,1.2-11.7c-0.1-0.7-0.1-1.2-0.2-1.9
		c-0.3-1.7-0.7-3.4-1.4-4.9c-0.1-0.3-0.2-0.6-0.4-0.8c-0.4-0.9-0.9-1.7-1.5-2.4c-0.6-0.8-1.3-1.5-2.2-2.2c-1.6-1.2-3.7-2.1-6.2-2.6
		c-2.5-0.5-5.5-0.4-9.1,0.1c-5.6,0.9-10.4,2.8-14.4,5.4c-4.1,2.7-7.5,5.9-10.2,9.8c-2.8,3.8-4.9,8-6.5,12.5c-1.6,4.5-2.8,9-3.4,13.5
		c-0.7,4.5-1,8.8-0.9,13c0,4.1,0.3,7.8,0.8,11c0.4,2.8,1.1,5.3,1.9,7.5c-6.3,1.5-11.8,3.6-16.5,6.2c-6.3,3.6-11.4,7.6-15.1,12.3
		c-1.7,2.1-3.1,4.3-4.3,6.5c-0.9,1.6-1.6,3.3-2.2,5c-0.4,1.2-0.8,2.4-1.1,3.6c-1.3,5.4-1.5,10.7-0.6,16c0.6,3.4,1.5,6.1,2.7,8.3
		c1,1.8,2.2,3.1,3.8,4c3.3,2,7.8,2.4,13.7,1.5c-0.3-0.4-0.7-0.9-1-1.4s-0.7-1.2-1.1-2.1c-0.4-0.9-0.7-2-1.2-3.4
		c-0.4-1.4-0.8-3.2-1.2-5.4c-1-6.2-1.3-11.5-0.9-15.7c0.4-4.3,1.4-7.8,2.9-10.6c1.5-2.8,3.5-4.9,5.9-6.5c2.5-1.5,5.1-2.6,8-3.2
		l-0.3,6.2l-5.4,107.2l23.6-3.9l3.1-63.9l23.9-4l0.7-12.5l-20.1,3.3l-3.9,0.7l1.5-33.6h0.9c3.6,0.7,7.4,0.7,11.7,0
		c3.3-0.5,6.4-1.5,9.4-2.8c2.9-1.3,5.5-3,7.7-5.3c2.2-2.2,4-5.1,5.2-8.6c1.3-3.4,2-7.5,2.1-12.4c-2.2,2.8-4.9,5.3-8.2,7.6
		s-6.5,3.8-9.6,4.3c-2,0.4-3.8,0.2-5.2-0.3c-0.7-0.3-1.5-0.7-2.1-1.2c-0.6-0.4-1.1-0.9-1.5-1.5c-0.9-1.2-1.7-2.5-2.2-4.1
		c-0.5-1.5-0.9-3.1-1.2-4.8c-0.1-0.9-0.3-1.7-0.4-2.5c-0.1-0.8-0.1-1.7-0.1-2.6c4.9-1.2,9.4-3,13.6-5.5
		C393.7,386.4,397.3,383.3,400.3,379.8z M384.3,382.5c-1.4,1.1-2.9,2-4.4,2.6c-1.4,0.6-2.8,1-4.3,1.3c0.2-4,0.7-8,1.5-12.2
		c0.8-4.1,1.7-8,3-11.4c1.2-3.4,2.7-6.3,4.3-8.7c1.7-2.3,3.5-3.7,5.6-4c1.5-0.2,2.7,0.1,3.5,1.2c0.7,0.9,1.2,2.2,1.5,3.8
		c0.1,0.3,0.1,0.7,0.2,0.9c0.6,3.4,0.4,6.7-0.4,10c-0.8,3.3-2.1,6.4-3.9,9.1C389.2,378.1,386.9,380.5,384.3,382.5z"/>
	<path class="st2" d="M552.7,429.9l9.9-1.6l0.2-6.7l-6,1l-3.8,0.7c0.1-3.8,0.3-7.4,0.4-10.7s0.3-6.1,0.4-8.5
		c0.1-2.8,0.2-5.4,0.4-7.7l-23.7,7.3l-1.2,23.4l-5.4,0.9l-0.2,6.7l5.4-0.9l-0.3,5.7l-2,42l-0.7,0.1c-2,2.5-4.5,5-7.5,7.5
		c-0.9,0.9-2,1.7-3,2.6c0.1-1.8,0-3.9-0.4-6.3c-0.4-2.8-1-5.4-1.7-7.9c-0.7-2.5-1.5-5.8-2.5-9.9c-1-4.1-2.2-9.3-3.8-15.8
		c-1.5-6.5-3.4-15-5.6-25.5l-23.7,7.3c-1.2,8.5-2.7,17-4.5,25.6c-1.8,8.6-4.4,17.3-7.6,26.2c-2.1,1.5-3.8,3.7-5.1,6.6
		c-0.8,1.8-1.2,3.8-1.3,6c-0.4,0.4-0.7,0.9-1,1.4c-1.7,2.4-3.6,4.5-5.7,6.3c-2,1.9-4.4,3.4-6.8,4.7c-2.5,1.3-5.4,2.2-8.6,2.8
		c-3.8,0.7-6.8,0.3-9.1-1.1c-0.1-0.1-0.1-0.1-0.3-0.1c-2.2-1.5-3.8-5-4.8-10.6c-0.1-1-0.3-2-0.4-3.1c-0.1-1.1-0.2-2.2-0.3-3.5
		c4.9-1.2,9.4-3,13.6-5.5c4.2-2.5,7.8-5.6,10.8-9.2c3-3.6,5.1-7.5,6.6-12c1.4-4.4,1.7-8.8,0.9-13.5c-0.3-1.7-0.7-3.4-1.4-4.9
		c-0.1-0.3-0.2-0.6-0.4-0.8c-0.8-1.7-2-3.3-3.6-4.6c-1.6-1.2-3.7-2.1-6.2-2.6c-2.5-0.5-5.5-0.4-9.1,0.1c-5.6,0.9-10.4,2.8-14.4,5.4
		c-4.1,2.7-7.5,5.9-10.2,9.8c-2.8,3.8-4.9,8-6.5,12.5c-1.6,4.5-2.8,9-3.4,13.5c-0.7,4.5-1,8.8-0.9,13c0,4.1,0.3,7.8,0.8,11
		c1.2,7.3,3.6,12.7,7.1,16.2c1,1,2,1.9,3.2,2.5c5.4,3.3,11.9,4.3,19.7,3c5.4-0.9,10.3-2.6,14.5-5.1c4.2-2.5,7.9-5.4,11.2-8.9
		c2.3-2.5,4.4-5.1,6.3-8c0.4,0.9,0.8,1.8,1.3,2.7c0.6,1,1.2,2,2,2.8c0.4,0.4,0.7,0.7,1,1.1c0.7,0.7,1.5,1.5,2.4,2
		c2.3,1.7,5.1,2.8,8.3,3.6c3.2,0.7,6.9,0.8,11,0.1c2.1-0.4,4.2-0.9,6.5-1.6c2.2-0.7,4.4-1.7,6.6-2.8c2.2-1.2,4.2-2.5,6.1-4.1
		c1.9-1.5,3.6-3.4,5-5.5c3.5-2.8,7.1-6.2,10.9-10.2c1.5-1.6,3-3.3,4.5-5.2c0.1,1.3,0.2,2.6,0.4,3.9c0.2,1.4,0.5,2.7,0.9,3.9
		c1.1,3.4,2.8,6.2,5,8.6l0.1,0.1c3.2,3.1,7.6,4.2,13.4,3.3c1.5-0.2,2.9-0.7,4.4-1.2c1.5-0.6,2.9-1.6,4.2-3c1.3-1.4,2.5-3.3,3.6-5.7
		c1.1-2.4,1.9-5.4,2.5-9.1c-0.7,0.4-1.3,0.6-2.2,0.8c-0.8,0.2-1.5,0.4-2,0.4c-1.2,0.2-2.2,0.2-3.1,0c-0.7-0.1-1.2-0.4-1.7-0.9
		c-1-0.9-1.7-2.3-2-4.1c-0.3-1.7-0.3-3.6-0.1-5.9L552.7,429.9z M423.8,474.4c0.7-4.1,1.7-7.9,2.9-11.3c1.2-3.4,2.7-6.2,4.4-8.5
		c1.7-2.2,3.5-3.6,5.6-3.9c1.5-0.2,2.7,0.1,3.5,1.2c0.7,0.9,1.2,2.2,1.5,3.8c0.1,0.3,0.1,0.7,0.2,0.9c0.5,3.3,0.4,6.5-0.3,9.9
		c-0.7,3.3-2,6.3-3.8,9.1c-1.8,2.8-4,5.1-6.7,7.1c-1.5,1.1-2.9,2-4.5,2.7c-1.3,0.6-2.8,1.1-4.1,1.5
		C422.6,482.7,423.1,478.5,423.8,474.4z M491.6,496.9c-0.5,2.1-1.3,3.8-2.4,5.3c-1.1,1.5-2.5,2.5-4.2,3.3c-1.7,0.8-3.4,1.3-5.1,1.6
		c-3.1,0.5-5.5,0.2-7.3-0.9c-0.3-0.2-0.6-0.4-0.9-0.7c-1.8-1.7-3.1-4.4-3.7-8.2c0.6,0.8,1.3,1.3,2.2,1.4c0.9,0.1,1.7,0.1,2.6,0
		c2.2-0.4,3.8-1.5,4.9-3.4c0.9-1.7,1.3-3.6,1.1-5.4c0-0.1,0-0.3-0.1-0.4c-0.1-0.7-0.3-1.2-0.5-1.8c-0.3-0.6-0.7-1.2-1.1-1.6
		c-0.9-0.8-1.9-1.4-3-1.7c1.9-5.7,3.5-11.2,4.9-16.7c1.4-5.4,2.5-10.9,3.3-16.5c1,4.2,1.9,7.8,2.7,11c0.4,1.6,0.8,3,1.1,4.4
		c1,4,2,7.3,2.7,10c0.7,2.7,1.3,5,1.8,7c0.5,2,0.9,3.9,1.2,6C492.1,492.4,492.1,494.8,491.6,496.9z"/>
	<g>
		<path class="st3" d="M241.8,660.6c0.4,0,0.8-0.2,1.1-0.6c0.3-0.6,0.1-1.3-0.5-1.5l-51.5-26.1l49.4-30.7c0.5-0.3,0.7-1.1,0.4-1.6
			c-0.3-0.5-1.1-0.7-1.6-0.4l-51.1,31.8c-0.4,0.2-0.6,0.6-0.5,1c0,0.4,0.3,0.8,0.6,1l53.3,27.1C241.5,660.6,241.6,660.6,241.8,660.6
			z"/>
		<g id="Laag_3">
			<path class="st2" d="M64,624.7l-0.8,12.7c-0.1,0.7,0.5,1.4,1.3,1.5c13.2,1.2,118.1,10.1,125.3-5.9L64,624.7z"/>
			<path class="st4" d="M64,624.8l0.8-12.9c0.1-0.7,0.6-1.2,1.3-1.2c12.5,0.5,118.5,5.4,123.6,22.4L64,624.8z"/>
			<g>
				<path class="st5" d="M69.5,625l-5.4-0.4l-0.8,13.1c-0.1,0.6,0.4,1.1,1,1.1c0.9,0.1,2.4,0.2,4.4,0.4L69.5,625z"/>
				<path class="st6" d="M70.4,610.9c-2-0.1-3.5-0.2-4.4-0.2c-0.6,0-1.1,0.4-1.1,1L64,624.8l5.4,0.4L70.4,610.9z"/>
			</g>
			<g>
				<path class="st7" d="M48.7,623.7c0.1,2,5.2,4.6,6.5,5.4c1.6,1,5.3,3,6.5,0.5c0.3-0.5,0.7-3,0.6-5L48.7,623.7z"/>
				<path class="st5" d="M48.7,623.7c0.1,2,5.2,4.6,6.5,5.4c1.6,1,5.3,3,6.5,0.5c0.3-0.5,0.7-3,0.6-5L48.7,623.7z"/>
				<path class="st6" d="M48.7,623.8c0.4-2,5.7-3.9,7.2-4.5c1.8-0.7,5.6-2.3,6.5,0.3c0.2,0.5,0.4,3.1-0.1,5L48.7,623.8z"/>
			</g>
			<path class="st8" d="M119.7,618.2c5.6,0.4,9.9,5.2,9.5,10.8s-5.2,9.9-10.8,9.5s-9.9-5.2-9.5-10.8
				C109.2,622.1,114.1,617.8,119.7,618.2z"/>
			<g>
				<path class="st5" d="M58.6,629.1l-0.2,37.5c0,0.9-0.7,1.6-1.6,1.5l-2.2-0.2c-2.2-0.2-3.8-2.1-3.5-4.2l4.5-34.9
					c0.1-0.8,0.8-1.4,1.6-1.3l0,0C58,627.5,58.6,628.2,58.6,629.1z"/>
				<path class="st6" d="M59,621.8l4.9-38.7c0.2-1.2-0.7-2.3-2-2.4l-2.9-0.2c-1.4-0.1-2.7,1-2.7,2.4l-0.2,38.6L59,621.8z"/>
			</g>
			<path class="st5" d="M113.7,553.4c3.5,0.2,6.1,3.2,5.8,6.6l-9,136.1c-0.2,3.5-3.2,6.1-6.6,5.8L89,701c-3.5-0.2-6.1-3.2-5.8-6.6
				l9-136.1c0.2-3.5,3.2-6.1,6.6-5.8L113.7,553.4z"/>
			<g>
				
					<rect x="101.5" y="570.7" transform="matrix(6.570326e-002 -0.9978 0.9978 6.570326e-002 -468.3446 651.1303)" class="st5" width="24.1" height="10"/>
				
					<rect x="94.6" y="674.9" transform="matrix(6.570326e-002 -0.9978 0.9978 6.570326e-002 -578.7235 741.6012)" class="st5" width="24.1" height="10"/>
			</g>
			<g>
				<path class="st6" d="M174.9,601.3c2.9,0.2,5.2,2.7,4.9,5.7l-3.3,50.6c-0.2,2.9-2.7,5.2-5.7,4.9l-11-0.7
					c-2.9-0.2-5.2-2.7-4.9-5.7l3.3-50.6c0.2-2.9,2.7-5.2,5.7-4.9L174.9,601.3z"/>
				<path class="st5" d="M158.9,630.9L158.9,630.9c-0.1,0.9,2.7,1.8,6.1,2l23.2,1.5c3.4,0.2,6.2-0.3,6.3-1.2l0,0
					c0.1-0.9-2.7-1.8-6.1-2l-23.2-1.5C161.8,629.4,158.9,630,158.9,630.9z"/>
			</g>
		</g>
		<path class="st9" d="M237.2,597.9v65.9c0,0,78.2-24.1,167.1,9.1c89,33.1,159.7-8.8,159.7-8.8l-26.3-17.6l23.7-41.6
			c0,0-68,23.9-123.4,7.1C397.4,599.7,298.2,561.5,237.2,597.9z"/>
		<g>
			<g>
				<path class="st3" d="M308,604.8c-0.1,1.1-0.4,1.9-0.8,2.5c-0.4,0.6-0.9,1-1.5,1c-0.3,0-0.5,0-0.7-0.1c-0.2-0.1-0.4-0.3-0.5-0.5
					c0.3-0.3,0.6-0.7,0.8-1.2s0.4-1.1,0.4-1.6c0.1-0.4,0.1-0.9,0-1.3c-0.1-0.4-0.2-0.8-0.4-1.1c-0.2-0.3-0.5-0.6-0.8-0.7
					c-0.3-0.2-0.8-0.2-1.3-0.1c-0.5,0.1-1,0.3-1.5,0.6c-0.5,0.3-0.9,0.7-1.2,1.2c-0.3,0.5-0.6,1-0.8,1.6c-0.2,0.6-0.4,1.2-0.5,1.9
					c-0.2,1.3-0.1,2.2,0.3,2.9c0.4,0.7,0.9,1.2,1.6,1.6c0.7,0.4,1.4,0.8,2.2,1.1c0.8,0.3,1.5,0.8,2.1,1.4c0.6,0.6,1.1,1.4,1.4,2.4
					c0.3,1,0.4,2.4,0.2,4.2c-0.2,1.6-0.6,2.9-1.2,4.1c-0.6,1.2-1.2,2.1-2,2.9c-0.8,0.8-1.6,1.4-2.5,1.8c-0.9,0.4-1.8,0.8-2.7,0.9
					c-0.8,0.1-1.6,0.2-2.3,0.1c-0.8-0.1-1.4-0.3-2-0.7c-0.6-0.4-1-0.9-1.2-1.6c-0.3-0.7-0.3-1.6-0.2-2.8c0.1-0.7,0.3-1.3,0.5-2.1
					c0.2-0.7,0.5-1.4,0.9-2c0.4-0.6,0.8-1.2,1.2-1.6c0.5-0.4,1-0.7,1.5-0.8c0.5-0.1,0.8,0,1.1,0.2c0.3,0.3,0.5,0.8,0.6,1.6
					c-0.5,0.1-0.9,0.3-1.3,0.6c-0.4,0.3-0.6,0.6-0.9,1c-0.2,0.4-0.4,0.8-0.5,1.2c-0.1,0.4-0.2,0.8-0.3,1.1c-0.1,0.7-0.1,1.3,0.1,1.8
					c0.2,0.5,0.4,0.8,0.8,1.1c0.3,0.3,0.7,0.5,1.1,0.5s0.8,0.1,1.3,0c0.9-0.2,1.8-0.8,2.5-1.8c0.7-1,1.2-2.4,1.5-4.1
					c0.2-1.5,0.1-2.6-0.2-3.4c-0.3-0.8-0.8-1.4-1.4-1.9c-0.6-0.5-1.3-0.8-2-1.1c-0.7-0.3-1.4-0.6-2-1.1c-0.6-0.4-1.1-1.1-1.4-1.9
					c-0.3-0.8-0.4-2-0.2-3.5c0.2-1.3,0.5-2.5,1-3.6c0.5-1.1,1.1-2,1.7-2.8c0.7-0.8,1.4-1.4,2.2-1.9c0.8-0.5,1.6-0.8,2.4-0.9
					c0.4-0.1,0.8-0.1,1.4-0.1c0.6,0,1.2,0.2,1.7,0.4c0.5,0.3,1,0.8,1.3,1.4C308.1,602.7,308.2,603.6,308,604.8z"/>
				<path class="st3" d="M319.4,613.3c-0.2,1.8-1,3.4-2.4,4.7s-3,2.1-5.2,2.5c-0.1,1,0,1.9,0.1,2.5c0.1,0.6,0.3,1.1,0.6,1.5
					c0.3,0.4,0.6,0.6,0.9,0.7c0.4,0.1,0.8,0.2,1.2,0.2c1,0,1.9-0.4,2.9-1.1c0.9-0.7,1.8-1.8,2.5-3.3c0.4,0,0.6,0,1,0
					c-0.4,1-0.9,1.9-1.5,2.8c-0.6,0.9-1.2,1.7-1.9,2.3c-0.7,0.7-1.5,1.2-2.2,1.7c-0.8,0.4-1.6,0.7-2.3,0.7c-0.7,0-1.4-0.1-2-0.3
					c-0.6-0.3-1.1-0.7-1.5-1.4c-0.4-0.7-0.7-1.6-0.9-2.7c-0.2-1.1-0.1-2.5,0.1-4.2c0.1-1.1,0.4-2.3,0.8-3.6c0.4-1.3,0.9-2.5,1.5-3.7
					c0.6-1.1,1.3-2.1,2.2-2.9c0.8-0.8,1.8-1.2,2.9-1.3c0.5,0,1,0,1.4,0.2c0.5,0.1,0.9,0.4,1.2,0.7c0.3,0.4,0.6,0.9,0.7,1.5
					C319.5,611.4,319.5,612.2,319.4,613.3z M312,618.9c1.5-0.4,2.7-1.1,3.7-2.2c1-1.1,1.6-2.3,1.8-3.8c0.1-1,0.1-1.7-0.1-2.1
					c-0.2-0.4-0.6-0.6-1-0.6c-0.5,0-1,0.3-1.5,0.9c-0.5,0.5-0.9,1.2-1.3,2.1c-0.4,0.8-0.7,1.8-1,2.8C312.3,617,312.1,618,312,618.9z
					"/>
				<path class="st3" d="M324.9,606.9c-0.2,1.2-0.2,1.8-0.4,3c0.5-0.5,1-0.9,1.5-1.3c0.6-0.3,1.2-0.5,1.9-0.4c0.7,0,1.3,0.3,1.9,0.7
					c0.5,0.4,1,1.1,1.3,1.9c0.3,0.8,0.6,1.9,0.7,3.1c0.1,1.2,0,2.7-0.2,4.4c-0.4,3.3-1.3,5.8-2.4,7.6c-1.2,1.8-2.6,2.6-4.1,2.5
					c-0.7,0-1.2-0.2-1.6-0.6c-0.4-0.3-0.8-0.8-1.1-1.4c-0.6,4.2-0.8,6.3-1.4,10.5c-1.3,0.4-1.9,0.6-3.2,1c1.4-10.3,2.8-20.7,4.2-31
					C323.1,606.8,323.7,606.8,324.9,606.9z M326.5,610.7c-0.4,0-0.9,0.1-1.3,0.5c-0.4,0.3-0.8,0.8-1.1,1.4c-0.6,4.7-1,7.1-1.6,11.8
					c0.2,0.5,0.5,0.8,0.8,1c0.3,0.2,0.7,0.3,1,0.3c0.5,0,1-0.2,1.4-0.6c0.4-0.4,0.8-1,1.2-1.7c0.4-0.7,0.7-1.5,1-2.5
					c0.3-1,0.5-2,0.6-3.1c0.2-1.4,0.2-2.5,0.2-3.4c-0.1-0.9-0.2-1.7-0.4-2.2c-0.2-0.6-0.5-0.9-0.8-1.2
					C327.1,610.9,326.8,610.8,326.5,610.7z"/>
				<path class="st3" d="M338.2,603.1c-0.3,2.4-0.5,3.6-0.8,6c0.9,0.1,1.4,0.2,2.3,0.3c-0.1,0.6-0.1,0.8-0.2,1.4
					c-0.9-0.1-1.4-0.2-2.3-0.3c-0.6,4.8-1,7.2-1.6,12c0,0.3-0.1,0.7-0.1,1.1c0,0.4,0,0.8,0,1.2c0,0.4,0.1,0.7,0.3,1
					c0.2,0.3,0.4,0.4,0.7,0.5c0.5,0.1,1.1-0.2,1.7-0.9c0.6-0.6,1.1-1.7,1.6-3.1c0.4,0.1,0.7,0.1,1.1,0.2c-0.6,1.6-1.1,2.9-1.6,3.8
					s-1,1.6-1.5,2c-0.5,0.4-0.9,0.7-1.4,0.8c-0.4,0.1-0.8,0.1-1.1,0.1c-0.7-0.1-1.3-0.3-1.7-0.7c-0.4-0.4-0.7-0.9-0.9-1.5
					c-0.2-0.6-0.3-1.2-0.3-1.9c0-0.7,0-1.3,0.1-2c0.7-5.1,1-7.7,1.7-12.9c-0.4,0-0.6-0.1-1-0.1c0.1-0.6,0.1-0.8,0.2-1.4
					c0.4,0,0.6,0,1,0.1c0.3-2.2,0.4-3.3,0.7-5.4C336.4,603.3,337,603.2,338.2,603.1z"/>
				<path class="st3" d="M350,616c-0.2,1.8-1,3.3-2.3,4.3c-1.3,1-3,1.5-5,1.5c-0.1,1.1,0,1.9,0.1,2.6c0.1,0.7,0.3,1.2,0.5,1.7
					c0.2,0.4,0.5,0.7,0.9,1c0.4,0.2,0.8,0.3,1.2,0.4c0.9,0.2,1.9,0,2.8-0.5c0.9-0.5,1.7-1.5,2.4-2.9c0.4,0.1,0.6,0.1,0.9,0.2
					c-0.4,0.9-0.9,1.8-1.4,2.6c-0.6,0.8-1.2,1.5-1.9,2c-0.7,0.6-1.4,1-2.2,1.2c-0.8,0.3-1.5,0.3-2.3,0.2c-0.7-0.1-1.3-0.4-1.9-0.8
					c-0.6-0.4-1.1-1-1.5-1.8c-0.4-0.8-0.7-1.8-0.8-3c-0.2-1.2-0.1-2.6,0.1-4.3c0.1-1.1,0.4-2.3,0.8-3.6c0.4-1.3,0.8-2.4,1.4-3.5
					c0.6-1,1.3-1.9,2.1-2.5c0.8-0.6,1.8-0.9,2.8-0.7c0.5,0.1,1,0.2,1.4,0.5c0.4,0.2,0.8,0.6,1.1,1c0.3,0.4,0.6,1,0.7,1.7
					C350.2,614.1,350.2,615,350,616z M342.9,620.3c1.4-0.1,2.6-0.6,3.6-1.4c1-0.9,1.5-2.1,1.7-3.6c0.1-1,0.1-1.7-0.1-2.2
					c-0.2-0.5-0.5-0.8-1-0.8c-0.5-0.1-1,0.1-1.5,0.6c-0.5,0.5-0.9,1.1-1.2,1.9c-0.4,0.8-0.7,1.7-0.9,2.7
					C343.2,618.4,343,619.3,342.9,620.3z"/>
				<path class="st3" d="M355.3,612c-0.1,1.1-0.2,1.6-0.4,2.7c0.7-1.2,1.3-1.8,1.9-2.1c0.6-0.2,1.2-0.3,1.7-0.2
					c0.5,0.1,0.9,0.3,1.3,0.6c0.4,0.3,0.6,0.6,0.9,1c0.2,0.4,0.4,0.8,0.5,1.3c0.1,0.5,0.2,1,0.3,1.5c0.4-0.7,0.7-1.3,1.1-1.7
					c0.4-0.4,0.7-0.7,1-0.8c0.3-0.2,0.6-0.3,0.9-0.3c0.3,0,0.6,0,0.8,0.1c0.9,0.2,1.6,0.6,2,1.2c0.5,0.6,0.8,1.3,1,2
					c0.2,0.8,0.3,1.6,0.2,2.4c0,0.9-0.1,1.7-0.2,2.4c-0.1,0.5-0.1,1-0.2,1.6c-0.1,0.6-0.2,1.1-0.3,1.7c-0.1,0.6-0.2,1.2-0.3,1.8
					c-0.1,0.6-0.2,1.1-0.2,1.6c0,0.2-0.1,0.5-0.1,0.9c0,0.4,0,0.8,0,1.2c0,0.4,0.1,0.7,0.2,1.1c0.1,0.3,0.4,0.5,0.7,0.6
					c0.4,0.1,0.9-0.1,1.3-0.7c0.5-0.6,0.9-1.6,1.3-3c0.4,0.1,0.6,0.2,1.1,0.3c-0.4,1.6-0.9,2.8-1.3,3.7c-0.5,0.9-0.9,1.5-1.3,1.9
					c-0.4,0.4-0.8,0.6-1.2,0.7c-0.4,0-0.7,0-1-0.1c-0.6-0.2-1.1-0.5-1.5-0.9c-0.4-0.4-0.7-1-0.9-1.6c-0.2-0.6-0.3-1.3-0.3-2.1
					c0-0.8,0-1.5,0.1-2.3c0-0.2,0.1-0.7,0.2-1.3c0.1-0.6,0.2-1.3,0.3-2.1c0.1-0.7,0.2-1.4,0.3-2.1c0.1-0.7,0.2-1.1,0.2-1.4
					c0.1-0.8,0.2-1.6,0.1-2.1c0-0.6-0.1-1-0.2-1.4c-0.1-0.4-0.3-0.6-0.5-0.8c-0.2-0.2-0.4-0.3-0.7-0.4c-0.6-0.2-1.1,0.1-1.6,0.6
					c-0.5,0.6-0.9,1.6-1.2,3.1c-0.7,5-1,7.6-1.7,12.6c-1.2-0.3-1.8-0.4-2.9-0.7c0.7-5.3,1.1-7.9,1.8-13.2c0.1-0.5,0.1-0.9,0.1-1.4
					c0-0.5,0-0.9-0.1-1.3c-0.1-0.4-0.2-0.7-0.4-1c-0.2-0.3-0.5-0.4-0.8-0.5c-0.6-0.1-1.1,0.1-1.6,0.7c-0.4,0.6-0.9,1.6-1.3,3.1
					c-0.7,5-1,7.6-1.7,12.6c-1.2-0.2-1.8-0.4-2.9-0.6c1.1-7.9,1.6-11.8,2.6-19.7C353.5,611.7,354.1,611.8,355.3,612z"/>
				<path class="st3" d="M373.6,609.1c1.2,0.1,1.8,0.2,3,0.3c-0.5,3.7-0.8,5.6-1.3,9.3c0.4-0.4,0.8-0.6,1.3-0.8c0.5-0.2,1-0.1,1.7,0
					c0.5,0.2,1,0.4,1.6,0.9c0.5,0.4,1,1,1.4,1.8c0.4,0.8,0.7,1.8,0.8,3c0.2,1.2,0.1,2.7-0.1,4.4c-0.2,1.5-0.5,2.9-1,4.2
					c-0.4,1.3-1,2.4-1.7,3.3c-0.7,0.9-1.5,1.5-2.3,1.9c-0.9,0.4-1.9,0.4-2.9,0.1c-0.6-0.2-1.1-0.5-1.6-0.9c-0.5-0.4-0.9-0.9-1.2-1.6
					c-0.3-0.7-0.5-1.5-0.6-2.5c-0.1-1,0-2.2,0.1-3.5C372,621.1,372.5,617.1,373.6,609.1z M379.3,628.1c0.1-1,0.2-2,0.2-2.9
					c0-0.9-0.1-1.8-0.3-2.5c-0.2-0.8-0.4-1.4-0.7-1.9c-0.3-0.5-0.7-0.8-1.2-1c-0.4-0.1-0.8-0.1-1.1,0.1s-0.7,0.4-1,0.7
					c-0.6,4.1-0.8,6.2-1.4,10.4c-0.3,2.4,0.1,3.7,1.2,4.1c0.5,0.2,1.1,0.1,1.5-0.2c0.5-0.3,0.9-0.8,1.3-1.4c0.4-0.7,0.7-1.4,1-2.3
					C379,630.1,379.2,629.1,379.3,628.1z"/>
				<path class="st3" d="M393.1,627.9c-0.2,1.8-1,3.2-2.3,4.1c-1.3,0.9-2.9,1.1-4.9,0.8c-0.1,1.1,0,2,0.1,2.7
					c0.1,0.7,0.3,1.3,0.5,1.8c0.2,0.5,0.5,0.8,0.9,1.1c0.4,0.3,0.7,0.5,1.1,0.6c0.9,0.3,1.8,0.3,2.7-0.1c0.9-0.4,1.7-1.3,2.4-2.7
					c0.4,0.1,0.6,0.2,0.9,0.3c-0.4,0.9-0.9,1.7-1.4,2.4c-0.6,0.7-1.2,1.3-1.9,1.8c-0.7,0.5-1.4,0.8-2.2,1c-0.7,0.2-1.5,0.1-2.2-0.1
					c-0.7-0.2-1.3-0.6-1.9-1.1c-0.6-0.5-1.1-1.2-1.5-2.1c-0.4-0.9-0.7-1.9-0.8-3.2c-0.1-1.3-0.1-2.7,0.1-4.4
					c0.1-1.1,0.4-2.3,0.8-3.5s0.8-2.3,1.4-3.3c0.6-1,1.3-1.7,2.1-2.2c0.8-0.5,1.7-0.6,2.8-0.3c0.5,0.2,0.9,0.4,1.4,0.7
					c0.4,0.3,0.8,0.7,1.1,1.2c0.3,0.5,0.5,1.1,0.7,1.8C393.3,626,393.3,626.9,393.1,627.9z M386.1,631.2c1.4,0.2,2.6-0.2,3.5-0.9
					c0.9-0.8,1.5-1.9,1.7-3.4c0.1-1,0.1-1.8-0.1-2.3c-0.2-0.5-0.5-0.8-1-1c-0.5-0.2-1,0-1.4,0.4c-0.4,0.4-0.9,1-1.2,1.7
					c-0.4,0.7-0.7,1.6-0.9,2.6C386.4,629.3,386.2,630.3,386.1,631.2z"/>
				<path class="st3" d="M398.3,624.5c-0.2,1.3-0.3,2-0.4,3.3c0.3-0.4,0.6-0.8,0.9-1.1c0.3-0.3,0.6-0.6,0.9-0.9
					c0.3-0.2,0.6-0.4,1-0.5c0.4-0.1,0.7-0.1,1.1,0.1c0.7,0.2,1.1,0.6,1.4,1.2c0.2,0.6,0.3,1.2,0.2,1.8c-0.1,0.4-0.1,0.7-0.3,0.9
					c-0.1,0.2-0.3,0.4-0.4,0.5c-0.2,0.1-0.3,0.2-0.5,0.2c-0.2,0-0.3,0-0.4,0c-0.2-0.1-0.3-0.2-0.4-0.3c-0.1-0.1-0.2-0.3-0.3-0.4
					c-0.1-0.2-0.2-0.3-0.3-0.5c-0.1-0.1-0.3-0.3-0.5-0.3c-0.4-0.1-0.9-0.1-1.4,0.2c-0.5,0.3-0.9,0.6-1.3,1
					c-0.8,5.8-1.2,8.7-1.9,14.5c-1.2-0.4-1.7-0.6-2.9-1c1.1-7.9,1.6-11.8,2.6-19.7C396.5,623.9,397.1,624.1,398.3,624.5z"/>
				<path class="st3" d="M414,650.3c-1.3-0.4-1.9-0.6-3.1-1c1.3-9.8,2-14.6,3.3-24.4c-1.3-0.4-1.9-0.6-3.2-1.1
					c0.1-0.8,0.2-1.2,0.4-2c0.4,0.1,0.8,0.2,1.2,0.3c0.5,0.1,1,0.1,1.5,0c0.6-0.1,1.2-0.2,1.8-0.4c0.7-0.2,1.4-0.5,2.2-1
					C416.7,630.7,415.4,640.5,414,650.3z"/>
				<path class="st3" d="M423.3,642.7c-0.8-0.2-1.4,0-1.8,0.5c-0.4,0.6-0.6,1.3-0.7,2.1c-0.1,0.9-0.1,1.6,0,2.3
					c0.1,0.6,0.4,1.2,0.6,1.6c0.3,0.4,0.6,0.8,1,1c0.4,0.3,0.8,0.4,1.1,0.6c0.7,0.2,1.4,0.2,1.9,0c0.6-0.2,1-0.5,1.4-1
					c0.4-0.5,0.7-1.1,1-1.7c0.2-0.7,0.4-1.4,0.5-2.1c0.1-0.9,0.1-1.9,0-2.8c-0.1-1-0.4-1.9-0.7-2.8c-0.4-0.9-0.9-1.7-1.5-2.4
					c-0.7-0.7-1.5-1.3-2.4-1.7c0.9,0,1.6-0.2,2.3-0.5c0.7-0.3,1.3-0.7,1.8-1.2c0.5-0.5,0.9-1,1.2-1.7c0.3-0.6,0.5-1.3,0.6-2
					c0.1-0.6,0.1-1.1,0-1.7c-0.1-0.6-0.2-1.1-0.4-1.5c-0.2-0.5-0.5-0.9-0.9-1.2c-0.4-0.4-0.8-0.6-1.3-0.8c-0.8-0.3-1.5-0.2-2,0.3
					c-0.5,0.4-0.8,1.1-0.9,1.8c-0.1,0.6,0,1.1,0.1,1.7c0.2,0.6,0.5,1.2,0.9,1.9c-0.6,0.7-1.3,0.9-1.9,0.7c-0.6-0.2-1.1-0.7-1.5-1.5
					c-0.4-0.8-0.4-1.8-0.3-3c0.1-0.9,0.4-1.6,0.8-2.2s0.8-1,1.4-1.3s1.1-0.4,1.8-0.5s1.3,0.1,2,0.3c0.7,0.2,1.4,0.6,2.1,1
					c0.7,0.5,1.3,1,1.7,1.7c0.5,0.7,0.8,1.4,1.1,2.3c0.2,0.9,0.3,1.9,0.1,2.9c-0.1,0.7-0.3,1.4-0.5,2c-0.2,0.7-0.6,1.2-0.9,1.8
					c-0.4,0.5-0.8,1-1.2,1.4c-0.5,0.4-1,0.7-1.5,0.8c1.5,1.4,2.6,2.8,3.1,4.2c0.6,1.4,0.7,3,0.5,4.7c-0.2,1.2-0.5,2.3-1.1,3.3
					c-0.5,1-1.2,1.8-2,2.4c-0.8,0.6-1.7,1.1-2.7,1.3c-1,0.2-2,0.2-3-0.1c-0.5-0.2-1.1-0.4-1.8-0.8c-0.7-0.4-1.3-0.9-1.9-1.7
					c-0.6-0.7-1-1.7-1.4-2.8c-0.3-1.1-0.4-2.5-0.2-4.2c0.2-1.5,0.6-2.6,1.2-3.3c0.6-0.7,1.3-0.9,2.1-0.6c0.2,0.1,0.4,0.1,0.6,0.2
					s0.4,0.3,0.6,0.5c0.2,0.2,0.3,0.5,0.5,0.8C423.1,641.9,423.2,642.3,423.3,642.7z"/>
				<path class="st3" d="M433.2,653.3c0-0.3,0.1-0.6,0.3-0.9c0.2-0.3,0.3-0.5,0.5-0.6c0.2-0.1,0.4-0.2,0.7-0.3
					c0.2-0.1,0.5-0.1,0.7,0c0.7,0.2,1.2,0.6,1.5,1.3c0.2,0.7,0.3,1.5,0.2,2.4c-0.1,0.6-0.2,1.3-0.5,1.9s-0.5,1.3-0.9,1.9
					c-0.3,0.6-0.7,1.1-1.1,1.5c-0.4,0.4-0.8,0.7-1.2,0.8c-0.2-0.2-0.2-0.4-0.3-0.5c0-0.2,0-0.4,0-0.5c0-0.3,0.1-0.5,0.2-0.8
					c0.1-0.3,0.2-0.5,0.3-0.7c0.1-0.2,0.2-0.5,0.3-0.7c0.1-0.2,0.2-0.5,0.2-0.7c0.1-0.4,0.1-0.7,0-0.9c-0.1-0.2-0.1-0.3-0.2-0.5
					c-0.1-0.1-0.2-0.2-0.3-0.3c-0.1-0.1-0.2-0.2-0.3-0.4c-0.1-0.2-0.2-0.4-0.2-0.7C433.2,654.3,433.2,653.9,433.2,653.3z"/>
				<path class="st3" d="M449.2,656.1c0.8,0.2,1.7,0.5,2.7,0.9c0.9,0.4,1.9,0.7,2.9,0.9c0.5,0.1,1,0.1,1.4,0.1c0.4,0,0.7-0.2,1-0.3
					c0.3-0.2,0.6-0.4,0.8-0.7c0.2-0.3,0.5-0.7,0.8-1.1c0.1,0.5,0.1,0.9,0.1,1.4c0,0.5,0,1-0.1,1.4c-0.1,0.7-0.2,1.2-0.5,1.6
					c-0.2,0.4-0.5,0.7-0.8,0.9c-0.3,0.2-0.7,0.4-1.1,0.4c-0.4,0-0.8,0-1.2,0c-0.6-0.1-1.2-0.3-1.8-0.5c-0.6-0.2-1.2-0.5-1.8-0.8
					c-0.6-0.3-1.1-0.5-1.6-0.8c-0.5-0.2-0.9-0.4-1.3-0.5c-0.5-0.1-1-0.1-1.5-0.1c-0.5,0-1,0.2-1.6,0.5c0-0.1-0.1-0.4-0.1-0.8
					c-0.1-0.4,0-0.9,0.1-1.7c0.2-1.3,0.5-2.4,1.1-3.4c0.6-1,1.2-1.9,2-2.8c0.8-0.9,1.6-1.7,2.4-2.6c0.9-0.8,1.7-1.7,2.5-2.7
					c0.8-1,1.5-2,2-3.2c0.6-1.2,1-2.5,1.2-4c0.2-1.4,0.1-2.7-0.2-3.7c-0.3-1-1-1.6-2-1.8c-0.9-0.2-1.7,0-2.2,0.6
					c-0.6,0.6-0.9,1.4-1,2.3c-0.1,0.4-0.1,0.9,0,1.6c0.1,0.6,0.3,1.2,0.6,1.6c-0.3,0.3-0.6,0.5-0.9,0.6c-0.3,0.1-0.5,0.1-0.8,0.1
					c-0.4-0.1-0.6-0.3-0.9-0.5c-0.2-0.3-0.4-0.6-0.5-1c-0.1-0.4-0.2-0.9-0.2-1.4c0-0.5,0-1,0.1-1.4c0.2-1.7,0.9-2.9,2-3.7
					c1.1-0.7,2.6-0.9,4.3-0.6c1.2,0.2,2.2,0.6,2.9,1.2c0.7,0.6,1.3,1.3,1.6,2c0.4,0.8,0.6,1.6,0.6,2.5c0.1,0.9,0,1.8-0.1,2.7
					c-0.2,1.6-0.6,3-1.3,4.2c-0.6,1.2-1.4,2.2-2.2,3.2c-0.8,0.9-1.7,1.8-2.6,2.5c-0.9,0.7-1.8,1.4-2.7,2.1c-0.8,0.7-1.6,1.4-2.2,2.2
					c-0.6,0.7-1,1.6-1.2,2.6C448.4,656,448.8,656,449.2,656.1z"/>
				<path class="st3" d="M472.2,633.2c1.3,0.1,2.4,0.6,3.2,1.5c0.8,0.9,1.4,2,1.8,3.3c0.4,1.3,0.6,2.9,0.6,4.6
					c0,1.7-0.1,3.5-0.3,5.3c-0.3,1.9-0.6,3.8-1.1,5.6c-0.5,1.9-1.2,3.5-2,5c-0.8,1.5-1.7,2.6-2.8,3.5c-1.1,0.8-2.3,1.2-3.7,1.1
					c-1.1-0.1-2-0.5-2.8-1.2c-0.8-0.7-1.5-1.6-1.9-2.9c-0.5-1.3-0.8-2.8-0.9-4.7c-0.1-1.9,0-4,0.3-6.5c0.3-2.3,0.8-4.4,1.3-6.2
					c0.6-1.8,1.3-3.4,2.1-4.7c0.8-1.3,1.8-2.2,2.8-2.9C469.8,633.3,471,633.1,472.2,633.2z M466.2,648.1c-0.2,1.4-0.3,2.8-0.4,4.2
					c-0.1,1.4,0,2.7,0.2,3.8c0.2,1.1,0.4,2.1,0.8,2.8c0.4,0.7,1,1.1,1.7,1.2c0.7,0.1,1.4-0.2,2-0.9c0.6-0.7,1.2-1.6,1.6-2.8
					c0.5-1.2,0.9-2.6,1.3-4.2c0.4-1.6,0.6-3.2,0.9-5c0.3-2.3,0.5-4.2,0.4-5.8c0-1.5-0.1-2.7-0.4-3.6c-0.2-0.9-0.5-1.5-0.9-1.9
					c-0.4-0.4-0.8-0.6-1.2-0.6c-0.7-0.1-1.4,0.3-2,1c-0.6,0.7-1.2,1.6-1.7,2.8s-1,2.6-1.4,4.2C466.8,644.7,466.5,646.3,466.2,648.1z
					"/>
				<path class="st3" d="M481.7,659.5c0.9,0,1.8,0.1,2.8,0.3c1,0.2,2,0.3,3,0.2c0.5,0,1-0.1,1.4-0.2c0.4-0.1,0.8-0.3,1.1-0.6
					c0.3-0.2,0.6-0.5,0.8-0.9c0.2-0.4,0.5-0.8,0.8-1.3c0.1,0.4,0.1,0.9,0.2,1.4c0,0.5,0,0.9-0.1,1.4c-0.1,0.7-0.2,1.2-0.5,1.7
					c-0.2,0.4-0.5,0.8-0.8,1.1c-0.3,0.3-0.7,0.5-1.1,0.6c-0.4,0.1-0.8,0.2-1.3,0.2c-0.6,0-1.2,0-1.8-0.1c-0.6-0.1-1.2-0.2-1.8-0.4
					c-0.6-0.1-1.1-0.3-1.6-0.4c-0.5-0.1-0.9-0.2-1.3-0.2c-0.5,0-1,0.1-1.5,0.2c-0.5,0.1-1,0.4-1.6,0.8c0-0.1-0.1-0.4-0.1-0.7
					c-0.1-0.4,0-0.9,0.1-1.6c0.2-1.3,0.5-2.5,1.1-3.5c0.6-1.1,1.3-2.1,2-3.1c0.8-1,1.6-2,2.5-3c0.9-1,1.7-2.1,2.5-3.2
					c0.8-1.1,1.5-2.3,2.1-3.6c0.6-1.3,1-2.6,1.2-4.2c0.2-1.4,0.1-2.6-0.2-3.5c-0.3-0.9-1-1.3-2.1-1.3c-1,0-1.7,0.4-2.3,1.1
					c-0.6,0.7-0.9,1.5-1.1,2.5c-0.1,0.4-0.1,0.9,0,1.5c0.1,0.6,0.3,1.1,0.6,1.4c-0.3,0.4-0.6,0.6-0.9,0.8c-0.3,0.1-0.6,0.2-0.8,0.2
					c-0.4,0-0.7-0.1-0.9-0.3c-0.2-0.2-0.4-0.5-0.5-0.9c-0.1-0.4-0.2-0.8-0.2-1.3c0-0.5,0-0.9,0.1-1.4c0.2-1.7,0.9-3,2.1-4
					c1.1-1,2.6-1.4,4.4-1.5c1.3,0,2.3,0.1,3,0.5c0.7,0.4,1.3,0.9,1.7,1.6c0.4,0.7,0.6,1.4,0.7,2.3c0.1,0.9,0,1.7-0.1,2.6
					c-0.2,1.6-0.6,3.1-1.3,4.4c-0.6,1.3-1.4,2.5-2.2,3.6c-0.9,1.1-1.8,2.1-2.7,3c-1,0.9-1.9,1.8-2.7,2.6c-0.9,0.8-1.6,1.7-2.2,2.6
					c-0.6,0.9-1.1,1.8-1.3,2.7C480.9,659.6,481.3,659.5,481.7,659.5z"/>
				<path class="st3" d="M499.5,651.8c-0.9,0.2-1.5,0.6-1.9,1.3c-0.4,0.7-0.6,1.4-0.8,2.3c-0.1,0.9-0.1,1.6,0.1,2.1
					c0.2,0.5,0.4,0.9,0.7,1.2c0.3,0.3,0.7,0.4,1.1,0.5c0.4,0.1,0.8,0.1,1.2,0c0.8-0.1,1.4-0.4,2-0.9c0.6-0.5,1.1-1,1.5-1.6
					c0.4-0.6,0.8-1.3,1-2.1s0.4-1.5,0.5-2.2c0.1-0.9,0.1-1.8,0-2.6c-0.1-0.8-0.4-1.6-0.8-2.2c-0.4-0.6-0.9-1.1-1.6-1.5
					c-0.7-0.4-1.6-0.5-2.6-0.5c0.9-0.4,1.7-0.9,2.5-1.5c0.7-0.6,1.4-1.3,1.9-2c0.5-0.7,1-1.4,1.3-2.1s0.5-1.4,0.6-2.1
					c0.1-0.6,0.1-1.1,0-1.6s-0.2-0.9-0.5-1.2c-0.2-0.3-0.5-0.6-0.9-0.8c-0.4-0.2-0.8-0.2-1.4-0.1c-0.9,0.1-1.6,0.5-2.1,1.2
					c-0.5,0.6-0.8,1.3-0.9,2.1c-0.1,0.6,0,1.1,0.2,1.6c0.2,0.5,0.5,1,1,1.3c-0.7,0.9-1.3,1.4-2,1.5c-0.7,0.1-1.2-0.2-1.6-0.8
					c-0.4-0.6-0.5-1.6-0.3-2.7c0.1-0.9,0.4-1.7,0.8-2.4c0.4-0.7,0.9-1.3,1.5-1.8c0.6-0.5,1.2-0.9,1.9-1.2c0.7-0.3,1.4-0.5,2.1-0.7
					c0.8-0.1,1.5-0.1,2.2,0s1.3,0.4,1.9,0.7c0.5,0.4,0.9,0.9,1.2,1.6c0.3,0.7,0.3,1.6,0.2,2.6c-0.1,0.7-0.3,1.4-0.5,2.1
					c-0.3,0.7-0.6,1.4-1,2.1c-0.4,0.7-0.8,1.3-1.3,1.9c-0.5,0.6-1,1.1-1.6,1.5c1.6,0.6,2.8,1.3,3.4,2.4c0.6,1.1,0.8,2.4,0.6,4.1
					c-0.2,1.2-0.5,2.4-1.1,3.6c-0.6,1.2-1.3,2.3-2.1,3.3c-0.8,1-1.8,1.8-2.8,2.5c-1,0.7-2.1,1.1-3.2,1.3c-0.5,0.1-1.2,0.1-1.9,0
					c-0.7-0.1-1.4-0.3-2-0.7c-0.6-0.4-1.1-1.1-1.5-2.1c-0.4-0.9-0.4-2.2-0.2-3.9c0.2-1.5,0.6-2.7,1.2-3.6c0.6-0.9,1.3-1.4,2.2-1.5
					c0.2,0,0.4,0,0.6,0c0.2,0,0.4,0.1,0.6,0.2c0.2,0.1,0.4,0.3,0.5,0.5C499.3,651.2,499.4,651.5,499.5,651.8z"/>
			</g>
		</g>
		<path class="st10" d="M404.3,667.7c76,28.3,138.7,1.9,155.3-6.5l4.4,2.9c0,0-70.7,41.9-159.7,8.8c-89-33.1-167.1-9.1-167.1-9.1
			v-5.2C237.2,658.5,315.3,634.5,404.3,667.7z"/>
	</g>
</g>
</svg>
